<?xml version="1.0" standalone="no"?>
<!DOCTYPE svg PUBLIC "-//W3C//DTD SVG 20010904//EN"
 "http://www.w3.org/TR/2001/REC-SVG-20010904/DTD/svg10.dtd">
<svg version="1.0" xmlns="http://www.w3.org/2000/svg"
 width="300.000000pt" height="300.000000pt" viewBox="0 0 300.000000 300.000000"
 preserveAspectRatio="xMidYMid meet">
<metadata>
Created by potrace 1.14, written by Peter Selinger 2001-2017
</metadata>
<g transform="translate(0.000000,300.000000) scale(0.100000,-0.100000)"
fill="#000000" stroke="none">
<path d="M54 2989 c-11 -6 -28 -23 -37 -39 -16 -26 -17 -140 -17 -1450 0
-1545 -3 -1462 55 -1488 20 -9 366 -12 1446 -12 1544 0 1461 -3 1487 55 16 36
17 2852 1 2888 -6 13 -23 31 -39 40 -26 16 -141 17 -1452 16 -935 0 -1430 -4
-1444 -10z m1042 -1043 c83 -30 129 -74 145 -138 32 -118 -71 -233 -177 -198
-48 16 -61 43 -29 64 63 41 70 139 15 195 -52 51 -157 62 -246 26 -180 -74
-262 -416 -154 -644 62 -131 166 -204 291 -205 96 0 148 23 214 97 57 65 72
68 99 23 16 -25 -112 -146 -180 -170 -64 -23 -204 -32 -275 -17 -174 36 -309
164 -354 336 -19 76 -19 234 0 310 47 178 190 313 365 344 84 15 209 5 286
-23z m429 4 c86 -13 146 -47 179 -103 14 -23 83 -170 152 -327 70 -157 130
-289 134 -293 3 -4 73 157 155 358 l148 366 141 -3 141 -3 3 -27 c3 -24 0 -28
-21 -28 -43 0 -88 -22 -98 -47 -5 -13 -9 -183 -9 -378 0 -403 -2 -393 81 -404
39 -5 44 -9 47 -33 l3 -28 -204 0 c-173 0 -206 2 -211 15 -10 26 5 45 35 45
48 0 78 20 90 59 6 23 9 152 7 345 l-3 309 -155 -382 c-85 -210 -160 -387
-168 -393 -10 -8 -19 -9 -30 -1 -10 5 -88 169 -174 364 -86 195 -164 368 -172
384 -14 27 -15 1 -13 -302 2 -328 2 -333 24 -355 13 -12 40 -24 65 -27 38 -5
43 -9 43 -31 l0 -25 -165 0 -165 0 0 25 c0 22 5 26 43 31 80 10 77 -6 80 404
2 243 -1 372 -8 385 -6 12 -33 26 -65 35 -46 14 -55 20 -55 40 0 37 28 41 145
25z"/>
</g>
</svg>
