<?xml version="1.0" encoding="UTF-8"?>
<svg xmlns="http://www.w3.org/2000/svg" xmlns:xlink="http://www.w3.org/1999/xlink" width="224.87999pt" height="225pt" viewBox="0 0 224.87999 225" version="1.2">
<defs>
<clipPath id="clip1">
  <path d="M 0 0.0585938 L 224.761719 0.0585938 L 224.761719 224.9375 L 0 224.9375 Z M 0 0.0585938 "/>
</clipPath>
<clipPath id="clip2">
  <path d="M 27.820312 22.546875 L 197.230469 22.546875 L 197.230469 191.957031 L 27.820312 191.957031 Z M 27.820312 22.546875 "/>
</clipPath>
</defs>
<g id="surface1">
<g clip-path="url(#clip1)" clip-rule="nonzero">
<path style=" stroke:none;fill-rule:nonzero;fill:rgb(100%,100%,100%);fill-opacity:1;" d="M 0 0.0585938 L 224.878906 0.0585938 L 224.878906 232.4375 L 0 232.4375 Z M 0 0.0585938 "/>
<path style=" stroke:none;fill-rule:nonzero;fill:rgb(100%,100%,100%);fill-opacity:1;" d="M 0 0.0585938 L 224.878906 0.0585938 L 224.878906 224.941406 L 0 224.941406 Z M 0 0.0585938 "/>
<path style=" stroke:none;fill-rule:nonzero;fill:rgb(33.729553%,23.919678%,48.629761%);fill-opacity:1;" d="M 0 0.0585938 L 224.878906 0.0585938 L 224.878906 224.941406 L 0 224.941406 Z M 0 0.0585938 "/>
</g>
<g clip-path="url(#clip2)" clip-rule="nonzero">
<path style=" stroke:none;fill-rule:nonzero;fill:rgb(33.729553%,23.919678%,48.629761%);fill-opacity:1;" d="M 27.820312 170.265625 C 27.820312 182.34375 37.609375 192.132812 49.6875 192.132812 L 175.535156 192.132812 C 187.613281 192.132812 197.40625 182.34375 197.40625 170.265625 L 197.40625 44.414062 C 197.40625 32.335938 187.613281 22.546875 175.535156 22.546875 L 49.6875 22.546875 C 37.609375 22.546875 27.820312 32.339844 27.820312 44.414062 Z M 27.820312 170.265625 "/>
</g>
<path style=" stroke:none;fill-rule:nonzero;fill:rgb(100%,100%,100%);fill-opacity:1;" d="M 98.144531 97.5625 L 98.144531 73.546875 L 119.28125 73.546875 C 121.296875 73.546875 123.238281 73.714844 125.105469 74.050781 C 126.972656 74.386719 128.628906 74.984375 130.066406 75.847656 C 131.503906 76.710938 132.65625 77.910156 133.519531 79.441406 C 134.378906 80.976562 134.8125 82.941406 134.8125 85.339844 C 134.8125 89.652344 133.519531 92.765625 130.929688 94.6875 C 128.34375 96.601562 125.03125 97.5625 121.003906 97.5625 Z M 75.566406 56 L 75.566406 158.679688 L 125.324219 158.679688 C 129.921875 158.679688 134.40625 158.105469 138.765625 156.949219 C 143.132812 155.804688 147.011719 154.03125 150.417969 151.632812 C 153.824219 149.234375 156.527344 146.148438 158.539062 142.359375 C 160.554688 138.566406 161.558594 134.089844 161.558594 128.910156 C 161.558594 122.492188 160.003906 117 156.890625 112.449219 C 153.769531 107.890625 149.054688 104.703125 142.71875 102.882812 C 147.324219 100.675781 150.800781 97.847656 153.148438 94.398438 C 155.5 90.945312 156.671875 86.632812 156.671875 81.457031 C 156.671875 76.660156 155.882812 72.636719 154.300781 69.375 C 152.714844 66.117188 150.492188 63.503906 147.617188 61.539062 C 144.734375 59.574219 141.28125 58.160156 137.261719 57.296875 C 133.234375 56.433594 128.777344 56 123.886719 56 Z M 98.144531 141.136719 L 98.144531 112.953125 L 122.734375 112.953125 C 127.625 112.953125 131.550781 114.078125 134.527344 116.332031 C 137.5 118.582031 138.984375 122.34375 138.984375 127.617188 C 138.984375 130.300781 138.527344 132.507812 137.621094 134.234375 C 136.707031 135.957031 135.488281 137.324219 133.949219 138.328125 C 132.417969 139.335938 130.644531 140.058594 128.628906 140.488281 C 126.617188 140.921875 124.507812 141.136719 122.304688 141.136719 Z M 98.144531 141.136719 "/>
</g>
</svg>
