<?xml version="1.0" encoding="UTF-8"?>
<svg xmlns="http://www.w3.org/2000/svg" xmlns:xlink="http://www.w3.org/1999/xlink" width="224.87999pt" height="225pt" viewBox="0 0 224.87999 225" version="1.2">
<defs>
<clipPath id="clip1">
  <path d="M 12.507812 12.570312 L 212.652344 12.570312 L 212.652344 212.710938 L 12.507812 212.710938 Z M 12.507812 12.570312 "/>
</clipPath>
</defs>
<g id="surface1">
<g clip-path="url(#clip1)" clip-rule="nonzero">
<path style=" stroke:none;fill-rule:nonzero;fill:rgb(0%,76.858521%,79.998779%);fill-opacity:1;" d="M 212.933594 112.78125 C 212.933594 114.421875 212.894531 116.058594 212.8125 117.699219 C 212.730469 119.335938 212.613281 120.972656 212.449219 122.601562 C 212.289062 124.234375 212.089844 125.863281 211.847656 127.484375 C 211.609375 129.105469 211.328125 130.722656 211.007812 132.332031 C 210.6875 133.941406 210.328125 135.539062 209.929688 137.128906 C 209.53125 138.722656 209.09375 140.300781 208.617188 141.871094 C 208.140625 143.441406 207.628906 144.996094 207.074219 146.542969 C 206.523438 148.085938 205.933594 149.613281 205.304688 151.128906 C 204.675781 152.644531 204.011719 154.144531 203.3125 155.628906 C 202.609375 157.109375 201.875 158.574219 201.101562 160.019531 C 200.328125 161.46875 199.519531 162.894531 198.675781 164.300781 C 197.832031 165.707031 196.957031 167.09375 196.042969 168.457031 C 195.132812 169.820312 194.1875 171.160156 193.210938 172.476562 C 192.234375 173.792969 191.226562 175.085938 190.1875 176.355469 C 189.144531 177.621094 188.074219 178.863281 186.972656 180.078125 C 185.871094 181.292969 184.742188 182.480469 183.582031 183.640625 C 182.421875 184.800781 181.234375 185.933594 180.019531 187.035156 C 178.804688 188.132812 177.5625 189.207031 176.292969 190.246094 C 175.027344 191.285156 173.734375 192.296875 172.417969 193.273438 C 171.101562 194.25 169.757812 195.191406 168.394531 196.105469 C 167.03125 197.015625 165.648438 197.894531 164.242188 198.734375 C 162.832031 199.578125 161.40625 200.386719 159.960938 201.160156 C 158.515625 201.933594 157.050781 202.671875 155.566406 203.371094 C 154.085938 204.074219 152.585938 204.738281 151.070312 205.363281 C 149.554688 205.992188 148.027344 206.582031 146.480469 207.136719 C 144.9375 207.6875 143.378906 208.203125 141.8125 208.679688 C 140.242188 209.152344 138.660156 209.589844 137.070312 209.988281 C 135.480469 210.386719 133.878906 210.746094 132.269531 211.066406 C 130.664062 211.386719 129.046875 211.667969 127.425781 211.910156 C 125.804688 212.148438 124.175781 212.351562 122.542969 212.511719 C 120.910156 212.671875 119.277344 212.792969 117.636719 212.871094 C 116 212.953125 114.359375 212.992188 112.722656 212.992188 C 111.082031 212.992188 109.441406 212.953125 107.804688 212.871094 C 106.164062 212.792969 104.53125 212.671875 102.898438 212.511719 C 101.265625 212.351562 99.640625 212.148438 98.015625 211.910156 C 96.394531 211.667969 94.777344 211.386719 93.171875 211.066406 C 91.5625 210.746094 89.960938 210.386719 88.371094 209.988281 C 86.78125 209.589844 85.199219 209.152344 83.628906 208.679688 C 82.0625 208.203125 80.503906 207.6875 78.960938 207.136719 C 77.417969 206.582031 75.886719 205.992188 74.371094 205.363281 C 72.855469 204.738281 71.355469 204.074219 69.875 203.371094 C 68.390625 202.671875 66.925781 201.933594 65.480469 201.160156 C 64.035156 200.386719 62.609375 199.578125 61.203125 198.734375 C 59.792969 197.894531 58.410156 197.015625 57.046875 196.105469 C 55.683594 195.191406 54.339844 194.25 53.023438 193.273438 C 51.707031 192.296875 50.414062 191.285156 49.148438 190.246094 C 47.878906 189.207031 46.636719 188.132812 45.421875 187.035156 C 44.207031 185.933594 43.019531 184.800781 41.859375 183.640625 C 40.699219 182.480469 39.570312 181.292969 38.46875 180.078125 C 37.367188 178.863281 36.296875 177.621094 35.253906 176.355469 C 34.214844 175.085938 33.207031 173.792969 32.230469 172.476562 C 31.253906 171.160156 30.308594 169.820312 29.398438 168.457031 C 28.484375 167.09375 27.609375 165.707031 26.765625 164.300781 C 25.921875 162.894531 25.113281 161.46875 24.339844 160.019531 C 23.566406 158.574219 22.832031 157.109375 22.128906 155.628906 C 21.429688 154.144531 20.765625 152.644531 20.136719 151.128906 C 19.507812 149.613281 18.917969 148.085938 18.367188 146.542969 C 17.8125 144.996094 17.300781 143.441406 16.824219 141.871094 C 16.347656 140.300781 15.910156 138.722656 15.511719 137.128906 C 15.113281 135.539062 14.753906 133.941406 14.433594 132.332031 C 14.113281 130.722656 13.832031 129.105469 13.59375 127.484375 C 13.351562 125.863281 13.152344 124.234375 12.992188 122.601562 C 12.832031 120.972656 12.710938 119.335938 12.628906 117.699219 C 12.546875 116.058594 12.507812 114.421875 12.507812 112.78125 C 12.507812 111.140625 12.546875 109.5 12.628906 107.863281 C 12.710938 106.226562 12.832031 104.589844 12.992188 102.957031 C 13.152344 101.328125 13.351562 99.699219 13.59375 98.078125 C 13.832031 96.453125 14.113281 94.839844 14.433594 93.230469 C 14.753906 91.621094 15.113281 90.023438 15.511719 88.429688 C 15.910156 86.839844 16.347656 85.261719 16.824219 83.691406 C 17.300781 82.121094 17.8125 80.566406 18.367188 79.019531 C 18.917969 77.476562 19.507812 75.945312 20.136719 74.429688 C 20.765625 72.917969 21.429688 71.417969 22.128906 69.933594 C 22.832031 68.453125 23.566406 66.988281 24.339844 65.542969 C 25.113281 64.09375 25.921875 62.667969 26.765625 61.261719 C 27.609375 59.855469 28.484375 58.46875 29.398438 57.105469 C 30.308594 55.742188 31.253906 54.402344 32.230469 53.085938 C 33.207031 51.765625 34.214844 50.472656 35.253906 49.207031 C 36.296875 47.9375 37.367188 46.699219 38.46875 45.480469 C 39.570312 44.265625 40.699219 43.078125 41.859375 41.921875 C 43.019531 40.761719 44.207031 39.628906 45.421875 38.527344 C 46.636719 37.425781 47.878906 36.355469 49.148438 35.316406 C 50.414062 34.273438 51.707031 33.265625 53.023438 32.289062 C 54.339844 31.3125 55.683594 30.367188 57.046875 29.457031 C 58.410156 28.546875 59.792969 27.667969 61.203125 26.824219 C 62.609375 25.984375 64.035156 25.175781 65.480469 24.402344 C 66.925781 23.628906 68.390625 22.890625 69.875 22.191406 C 71.355469 21.488281 72.855469 20.824219 74.371094 20.195312 C 75.886719 19.570312 77.417969 18.980469 78.960938 18.425781 C 80.503906 17.875 82.0625 17.359375 83.628906 16.882812 C 85.199219 16.40625 86.78125 15.96875 88.371094 15.570312 C 89.960938 15.171875 91.5625 14.8125 93.171875 14.492188 C 94.777344 14.175781 96.394531 13.894531 98.015625 13.652344 C 99.640625 13.414062 101.265625 13.210938 102.898438 13.050781 C 104.53125 12.890625 106.164062 12.769531 107.804688 12.6875 C 109.441406 12.609375 111.082031 12.570312 112.722656 12.570312 C 114.359375 12.570312 116 12.609375 117.636719 12.6875 C 119.277344 12.769531 120.910156 12.890625 122.542969 13.050781 C 124.175781 13.210938 125.804688 13.414062 127.425781 13.652344 C 129.046875 13.894531 130.664062 14.175781 132.269531 14.492188 C 133.878906 14.8125 135.480469 15.171875 137.070312 15.570312 C 138.660156 15.96875 140.242188 16.40625 141.8125 16.882812 C 143.378906 17.359375 144.9375 17.875 146.480469 18.425781 C 148.027344 18.980469 149.554688 19.570312 151.070312 20.195312 C 152.585938 20.824219 154.085938 21.488281 155.566406 22.191406 C 157.050781 22.890625 158.515625 23.628906 159.960938 24.402344 C 161.40625 25.175781 162.832031 25.984375 164.242188 26.824219 C 165.648438 27.667969 167.03125 28.546875 168.394531 29.457031 C 169.757812 30.367188 171.101562 31.3125 172.417969 32.289062 C 173.734375 33.265625 175.027344 34.273438 176.292969 35.316406 C 177.5625 36.355469 178.804688 37.425781 180.019531 38.527344 C 181.234375 39.628906 182.421875 40.761719 183.582031 41.921875 C 184.742188 43.078125 185.871094 44.265625 186.972656 45.480469 C 188.074219 46.699219 189.144531 47.9375 190.1875 49.207031 C 191.226562 50.472656 192.234375 51.765625 193.210938 53.085938 C 194.1875 54.402344 195.132812 55.742188 196.042969 57.105469 C 196.957031 58.46875 197.832031 59.855469 198.675781 61.261719 C 199.519531 62.667969 200.328125 64.09375 201.101562 65.542969 C 201.875 66.988281 202.609375 68.453125 203.3125 69.933594 C 204.011719 71.417969 204.675781 72.917969 205.304688 74.429688 C 205.933594 75.945312 206.523438 77.476562 207.074219 79.019531 C 207.628906 80.566406 208.140625 82.121094 208.617188 83.691406 C 209.09375 85.261719 209.53125 86.839844 209.929688 88.429688 C 210.328125 90.023438 210.6875 91.621094 211.007812 93.230469 C 211.328125 94.839844 211.609375 96.453125 211.847656 98.078125 C 212.089844 99.699219 212.289062 101.328125 212.449219 102.957031 C 212.613281 104.589844 212.730469 106.226562 212.8125 107.863281 C 212.894531 109.5 212.933594 111.140625 212.933594 112.78125 Z M 212.933594 112.78125 "/>
</g>
<path style=" stroke:none;fill-rule:nonzero;fill:rgb(100%,100%,100%);fill-opacity:1;" d="M 81.074219 124.03125 C 78.613281 127.316406 75.449219 130.832031 71.230469 133.527344 C 67.128906 136.105469 62.4375 138.214844 56.929688 138.214844 C 51.890625 138.214844 47.554688 135.519531 45.210938 133.292969 C 41.691406 130.011719 39.816406 125.085938 39.230469 120.632812 C 37.472656 106.570312 46.148438 88.050781 59.507812 79.960938 C 62.554688 78.085938 65.957031 77.148438 69.121094 77.148438 C 75.566406 77.148438 80.371094 81.722656 80.957031 87.230469 C 81.542969 92.152344 79.550781 96.371094 74.160156 99.183594 C 71.347656 100.589844 69.941406 100.472656 69.589844 99.886719 C 69.355469 99.417969 69.472656 98.714844 70.058594 98.246094 C 75.214844 93.910156 75.332031 90.394531 74.746094 85.472656 C 74.394531 82.308594 72.285156 80.195312 69.941406 80.195312 C 59.859375 80.195312 45.328125 102.816406 47.320312 119.226562 C 48.140625 125.671875 52.007812 133.058594 60.210938 133.058594 C 62.90625 133.058594 65.71875 132.355469 68.300781 131.066406 C 73.925781 128.253906 76.503906 126.140625 79.902344 121.453125 C 80.371094 120.867188 80.722656 120.164062 81.308594 119.460938 C 81.660156 118.875 82.128906 118.757812 82.597656 118.757812 C 83.066406 118.757812 83.535156 119.226562 83.652344 119.8125 C 83.769531 120.28125 83.535156 121.101562 82.949219 121.804688 C 82.128906 122.625 81.660156 123.328125 81.074219 124.03125 Z M 81.074219 124.03125 "/>
<path style=" stroke:none;fill-rule:nonzero;fill:rgb(100%,100%,100%);fill-opacity:1;" d="M 96.429688 132.238281 C 93.851562 132.238281 92.445312 130.832031 91.976562 128.839844 C 90.335938 131.066406 88.105469 132.238281 85.761719 132.238281 C 81.894531 132.238281 78.144531 128.957031 77.675781 124.5 C 76.738281 116.765625 83.300781 106.921875 93.265625 106.921875 C 97.484375 106.921875 101 108.5625 101.351562 111.960938 C 101.820312 116.179688 98.304688 117 96.898438 117 C 95.726562 117 93.851562 116.648438 93.734375 115.59375 C 93.617188 114.421875 96.3125 115.125 95.960938 112.429688 C 95.726562 110.789062 93.96875 110.203125 92.328125 110.203125 C 86.230469 110.203125 82.949219 118.640625 83.535156 123.914062 C 83.769531 126.257812 85.058594 128.605469 87.285156 128.605469 C 89.046875 128.605469 91.625 126.023438 92.5625 122.390625 C 93.148438 119.8125 95.609375 118.171875 97.367188 118.171875 C 98.304688 118.171875 98.890625 118.640625 99.007812 119.578125 C 99.007812 119.929688 99.007812 120.28125 98.890625 120.867188 C 98.65625 121.921875 97.835938 125.671875 97.835938 126.375 C 97.835938 127.082031 98.304688 127.902344 99.359375 127.902344 C 100.648438 127.902344 106.625 124.382812 110.023438 119.695312 C 110.257812 119.226562 110.84375 118.992188 111.429688 118.992188 C 111.902344 118.992188 112.371094 119.226562 112.488281 119.8125 C 112.605469 120.398438 112.371094 121.21875 111.546875 122.15625 C 107.679688 127.550781 99.359375 132.238281 96.429688 132.238281 Z M 96.429688 132.238281 "/>
<path style=" stroke:none;fill-rule:nonzero;fill:rgb(100%,100%,100%);fill-opacity:1;" d="M 180.230469 129.425781 C 180.582031 131.886719 181.640625 133.527344 182.695312 134.347656 C 183.046875 134.699219 183.28125 135.050781 183.28125 135.402344 C 183.398438 136.105469 182.8125 136.691406 181.992188 136.691406 C 181.757812 136.691406 181.40625 136.691406 181.171875 136.574219 C 176.832031 134.816406 175.074219 131.886719 174.488281 129.074219 C 172.847656 131.183594 170.621094 132.355469 168.277344 132.355469 C 164.410156 132.355469 160.660156 128.957031 160.074219 124.617188 C 159.136719 117 166.050781 107.039062 175.777344 107.039062 C 179.878906 107.039062 183.515625 108.679688 183.867188 111.960938 C 184.453125 116.296875 180.699219 117.117188 179.410156 117.117188 C 178.121094 117.117188 176.246094 116.765625 176.128906 115.710938 C 176.011719 114.65625 178.707031 115.242188 178.472656 112.546875 C 178.238281 110.90625 176.480469 110.203125 174.839844 110.203125 C 169.214844 110.203125 165.347656 117.703125 166.050781 123.796875 C 166.402344 126.257812 167.457031 128.605469 169.683594 128.605469 C 171.441406 128.605469 174.136719 126.023438 175.074219 122.390625 C 175.660156 119.929688 178.121094 118.171875 179.878906 118.171875 C 180.699219 118.171875 181.40625 118.640625 181.523438 119.578125 C 181.640625 120.046875 181.40625 121.21875 180.464844 125.203125 C 180.113281 126.847656 180.113281 128.253906 180.230469 129.425781 Z M 180.230469 129.425781 "/>
<path style=" stroke:none;fill-rule:nonzero;fill:rgb(100%,100%,100%);fill-opacity:1;" d="M 127.722656 127.902344 C 129.128906 127.902344 133.464844 126.257812 136.984375 121.453125 C 137.335938 120.984375 137.804688 120.75 138.390625 120.75 C 138.976562 120.75 139.445312 120.984375 139.5625 121.6875 C 139.679688 122.15625 139.328125 122.976562 138.625 123.914062 C 134.636719 129.425781 127.957031 132.238281 125.027344 132.238281 C 121.980469 132.238281 120.339844 130.363281 119.988281 127.550781 C 119.871094 126.613281 119.871094 125.554688 120.105469 124.382812 C 121.160156 118.171875 123.386719 114.304688 123.269531 113.132812 C 123.269531 112.78125 123.035156 112.664062 122.800781 112.664062 C 120.808594 112.664062 114.011719 119.695312 112.957031 124.265625 L 112.136719 128.019531 C 111.664062 130.597656 109.085938 132.355469 107.210938 132.355469 C 106.390625 132.355469 105.6875 131.886719 105.570312 130.949219 C 105.570312 130.597656 105.570312 130.246094 105.6875 129.660156 C 105.6875 129.660156 109.085938 112.3125 109.203125 111.492188 C 109.554688 109.5 110.257812 107.390625 114.480469 107.390625 C 115.300781 107.390625 116.003906 107.859375 116.121094 108.796875 C 116.121094 109.148438 116.121094 109.5 116.003906 110.085938 L 114.832031 115.242188 C 118.464844 110.4375 124.089844 106.921875 127.488281 106.921875 C 128.894531 106.921875 130.066406 107.625 130.183594 109.148438 C 130.300781 109.96875 130.066406 111.375 129.480469 113.015625 C 128.308594 116.296875 126.902344 121.21875 126.082031 125.554688 C 125.730469 126.496094 126.082031 127.902344 127.722656 127.902344 Z M 127.722656 127.902344 "/>
<path style=" stroke:none;fill-rule:nonzero;fill:rgb(100%,100%,100%);fill-opacity:1;" d="M 155.96875 120.398438 C 155.5 120.398438 155.03125 120.398438 154.5625 120.28125 C 150.8125 125.789062 146.828125 129.542969 143.78125 131.300781 C 142.492188 132.003906 141.320312 132.355469 140.5 132.355469 C 139.796875 132.355469 139.09375 132.238281 138.742188 131.652344 C 137.335938 129.425781 136.75 124.734375 136.75 119.929688 C 136.75 116.414062 136.984375 113.484375 137.6875 111.375 C 138.390625 109.148438 141.203125 107.039062 142.960938 107.039062 C 143.898438 107.039062 144.601562 107.507812 144.601562 108.5625 C 144.601562 108.914062 144.484375 109.265625 144.367188 109.734375 C 143.078125 113.484375 142.375 116.882812 142.375 120.398438 C 142.375 122.390625 142.84375 125.4375 143.195312 127.082031 C 143.3125 127.433594 143.3125 127.785156 143.664062 127.785156 C 144.25 127.785156 148.234375 123.914062 151.046875 119.226562 C 148.46875 117.585938 147.0625 114.65625 147.0625 111.023438 C 147.0625 104.929688 150.695312 101.878906 154.210938 101.878906 C 157.023438 101.878906 159.488281 103.875 159.488281 107.976562 C 159.488281 110.554688 158.433594 113.367188 157.023438 116.179688 C 157.023438 116.179688 157.609375 116.296875 157.847656 116.296875 C 160.074219 116.296875 161.714844 115.242188 162.652344 114.1875 C 163.355469 113.484375 163.941406 112.898438 164.527344 112.898438 C 164.996094 112.898438 165.113281 113.25 165.113281 113.601562 C 165.113281 113.835938 164.996094 114.304688 164.761719 114.65625 C 162.886719 118.054688 159.019531 120.398438 155.96875 120.398438 Z M 150.8125 107.742188 C 150.8125 110.085938 151.984375 112.546875 153.507812 114.1875 C 154.09375 112.546875 154.445312 111.023438 154.445312 109.382812 C 154.445312 106.335938 153.273438 105.046875 152.335938 105.046875 C 151.164062 104.929688 150.8125 106.453125 150.8125 107.742188 Z M 150.8125 107.742188 "/>
</g>
</svg>
