<?xml version="1.0" encoding="UTF-8"?>
<svg xmlns="http://www.w3.org/2000/svg" xmlns:xlink="http://www.w3.org/1999/xlink" width="224.87999pt" height="225pt" viewBox="0 0 224.87999 225" version="1.2">
<defs>
<clipPath id="clip1">
  <path d="M 36.339844 47 L 188.484375 47 L 188.484375 219.320312 L 36.339844 219.320312 Z M 36.339844 47 "/>
</clipPath>
<clipPath id="clip2">
  <path d="M 72 5.179688 L 96 5.179688 L 96 35 L 72 35 Z M 72 5.179688 "/>
</clipPath>
<clipPath id="clip3">
  <path d="M 99 5.179688 L 123 5.179688 L 123 35 L 99 35 Z M 99 5.179688 "/>
</clipPath>
<clipPath id="clip4">
  <path d="M 127 5.179688 L 151 5.179688 L 151 35 L 127 35 Z M 127 5.179688 "/>
</clipPath>
</defs>
<g id="surface1">
<g clip-path="url(#clip1)" clip-rule="nonzero">
<path style=" stroke:none;fill-rule:nonzero;fill:rgb(14.898682%,30.198669%,89.408875%);fill-opacity:1;" d="M 112.347656 219.3125 L 50.269531 202.113281 L 36.4375 47.261719 L 188.441406 47.261719 L 174.597656 202.089844 L 112.351562 219.308594 Z M 112.347656 219.3125 "/>
</g>
<path style=" stroke:none;fill-rule:nonzero;fill:rgb(16.079712%,39.608765%,94.509888%);fill-opacity:1;" d="M 162.742188 192.230469 L 174.578125 59.925781 L 112.441406 59.921875 L 112.441406 206.144531 Z M 162.742188 192.230469 "/>
<path style=" stroke:none;fill-rule:nonzero;fill:rgb(92.158508%,92.158508%,92.158508%);fill-opacity:1;" d="M 68.152344 117.355469 L 69.855469 136.34375 L 112.441406 136.34375 L 112.441406 117.355469 Z M 68.152344 117.355469 "/>
<path style=" stroke:none;fill-rule:nonzero;fill:rgb(92.158508%,92.158508%,92.158508%);fill-opacity:1;" d="M 64.726562 78.910156 L 66.453125 97.90625 L 112.441406 97.90625 L 112.441406 78.910156 Z M 64.726562 78.910156 "/>
<path style=" stroke:none;fill-rule:nonzero;fill:rgb(92.158508%,92.158508%,92.158508%);fill-opacity:1;" d="M 112.441406 166.679688 L 112.359375 166.703125 L 91.164062 160.988281 L 89.808594 145.839844 L 70.707031 145.839844 L 73.375 175.664062 L 112.351562 186.464844 L 112.441406 186.441406 Z M 112.441406 166.679688 "/>
<g clip-path="url(#clip2)" clip-rule="nonzero">
<path style=" stroke:none;fill-rule:nonzero;fill:rgb(0%,0%,0%);fill-opacity:1;" d="M 72.210938 5.179688 L 95.261719 5.179688 L 95.261719 14.796875 L 81.851562 14.796875 L 81.851562 24.417969 L 95.261719 24.417969 L 95.261719 34.035156 L 72.210938 34.035156 Z M 72.210938 5.179688 "/>
</g>
<g clip-path="url(#clip3)" clip-rule="nonzero">
<path style=" stroke:none;fill-rule:nonzero;fill:rgb(0%,0%,0%);fill-opacity:1;" d="M 99.871094 5.179688 L 122.917969 5.179688 L 122.917969 13.542969 L 109.511719 13.542969 L 109.511719 15.214844 L 122.917969 15.214844 L 122.917969 34.453125 L 99.871094 34.453125 L 99.871094 25.671875 L 113.28125 25.671875 L 113.28125 24 L 99.871094 24 Z M 99.871094 5.179688 "/>
</g>
<g clip-path="url(#clip4)" clip-rule="nonzero">
<path style=" stroke:none;fill-rule:nonzero;fill:rgb(0%,0%,0%);fill-opacity:1;" d="M 127.527344 5.179688 L 150.578125 5.179688 L 150.578125 13.542969 L 137.164062 13.542969 L 137.164062 15.214844 L 150.578125 15.214844 L 150.578125 34.453125 L 127.527344 34.453125 L 127.527344 25.671875 L 140.9375 25.671875 L 140.9375 24 L 127.527344 24 Z M 127.527344 5.179688 "/>
</g>
<path style=" stroke:none;fill-rule:nonzero;fill:rgb(100%,100%,100%);fill-opacity:1;" d="M 156.613281 117.355469 L 160.042969 78.910156 L 112.375 78.910156 L 112.375 97.90625 L 139.191406 97.90625 L 137.460938 117.355469 L 112.375 117.355469 L 112.375 136.34375 L 135.8125 136.34375 L 133.601562 160.976562 L 112.375 166.695312 L 112.375 186.453125 L 151.386719 175.664062 L 151.671875 172.453125 L 156.148438 122.453125 Z M 156.613281 117.355469 "/>
</g>
</svg>
