<?xml version="1.0" encoding="UTF-8"?>
<svg xmlns="http://www.w3.org/2000/svg" xmlns:xlink="http://www.w3.org/1999/xlink" width="224.87999pt" height="225pt" viewBox="0 0 224.87999 225" version="1.2">
<defs>
<clipPath id="clip1">
  <path d="M 0 0.0585938 L 224.761719 0.0585938 L 224.761719 224.9375 L 0 224.9375 Z M 0 0.0585938 "/>
</clipPath>
<clipPath id="clip2">
  <path d="M 49.039062 57 L 175.605469 57 L 175.605469 201.703125 L 49.039062 201.703125 Z M 49.039062 57 "/>
</clipPath>
<clipPath id="clip3">
  <path d="M 78 22.546875 L 99 22.546875 L 99 47 L 78 47 Z M 78 22.546875 "/>
</clipPath>
<clipPath id="clip4">
  <path d="M 101 22.546875 L 122 22.546875 L 122 48 L 101 48 Z M 101 22.546875 "/>
</clipPath>
<clipPath id="clip5">
  <path d="M 124 22.546875 L 145 22.546875 L 145 48 L 124 48 Z M 124 22.546875 "/>
</clipPath>
</defs>
<g id="surface1">
<g clip-path="url(#clip1)" clip-rule="nonzero">
<path style=" stroke:none;fill-rule:nonzero;fill:rgb(100%,100%,100%);fill-opacity:1;" d="M 0 0.0585938 L 224.878906 0.0585938 L 224.878906 232.4375 L 0 232.4375 Z M 0 0.0585938 "/>
<path style=" stroke:none;fill-rule:nonzero;fill:rgb(100%,100%,100%);fill-opacity:1;" d="M 0 0.0585938 L 224.878906 0.0585938 L 224.878906 224.941406 L 0 224.941406 Z M 0 0.0585938 "/>
<path style=" stroke:none;fill-rule:nonzero;fill:rgb(100%,100%,100%);fill-opacity:1;" d="M 0 0.0585938 L 224.878906 0.0585938 L 224.878906 224.941406 L 0 224.941406 Z M 0 0.0585938 "/>
</g>
<g clip-path="url(#clip2)" clip-rule="nonzero">
<path style=" stroke:none;fill-rule:nonzero;fill:rgb(14.898682%,30.198669%,89.408875%);fill-opacity:1;" d="M 112.265625 202.039062 L 60.628906 187.621094 L 49.125 57.824219 L 175.566406 57.820312 L 164.050781 187.601562 L 112.269531 202.035156 Z M 112.265625 202.039062 "/>
</g>
<path style=" stroke:none;fill-rule:nonzero;fill:rgb(16.079712%,39.608765%,94.509888%);fill-opacity:1;" d="M 154.1875 179.339844 L 164.03125 68.4375 L 112.347656 68.433594 L 112.347656 191 L 154.1875 179.335938 Z M 154.1875 179.339844 "/>
<path style=" stroke:none;fill-rule:nonzero;fill:rgb(92.158508%,92.158508%,92.158508%);fill-opacity:1;" d="M 75.503906 116.578125 L 76.921875 132.492188 L 112.347656 132.492188 L 112.347656 116.578125 Z M 75.503906 116.578125 "/>
<path style=" stroke:none;fill-rule:nonzero;fill:rgb(92.158508%,92.158508%,92.158508%);fill-opacity:1;" d="M 72.652344 84.351562 L 74.09375 100.273438 L 112.347656 100.273438 L 112.347656 84.351562 Z M 72.652344 84.351562 "/>
<path style=" stroke:none;fill-rule:nonzero;fill:rgb(92.158508%,92.158508%,92.158508%);fill-opacity:1;" d="M 112.347656 157.917969 L 112.277344 157.9375 L 94.648438 153.148438 L 93.519531 140.453125 L 77.628906 140.453125 L 79.847656 165.449219 L 112.273438 174.503906 L 112.347656 174.484375 Z M 112.347656 157.917969 "/>
<g clip-path="url(#clip3)" clip-rule="nonzero">
<path style=" stroke:none;fill-rule:nonzero;fill:rgb(0%,0%,0%);fill-opacity:1;" d="M 78.882812 22.546875 L 98.054688 22.546875 L 98.054688 30.609375 L 86.898438 30.609375 L 86.898438 38.675781 L 98.054688 38.675781 L 98.054688 46.738281 L 78.882812 46.738281 Z M 78.882812 22.546875 "/>
</g>
<g clip-path="url(#clip4)" clip-rule="nonzero">
<path style=" stroke:none;fill-rule:nonzero;fill:rgb(0%,0%,0%);fill-opacity:1;" d="M 101.886719 22.546875 L 121.058594 22.546875 L 121.058594 29.558594 L 109.90625 29.558594 L 109.90625 30.960938 L 121.058594 30.960938 L 121.058594 47.085938 L 101.886719 47.085938 L 101.886719 39.726562 L 113.046875 39.726562 L 113.046875 38.324219 L 101.886719 38.324219 Z M 101.886719 22.546875 "/>
</g>
<g clip-path="url(#clip5)" clip-rule="nonzero">
<path style=" stroke:none;fill-rule:nonzero;fill:rgb(0%,0%,0%);fill-opacity:1;" d="M 124.894531 22.546875 L 144.066406 22.546875 L 144.066406 29.558594 L 132.910156 29.558594 L 132.910156 30.960938 L 144.066406 30.960938 L 144.066406 47.085938 L 124.894531 47.085938 L 124.894531 39.726562 L 136.046875 39.726562 L 136.046875 38.324219 L 124.894531 38.324219 Z M 124.894531 22.546875 "/>
</g>
<path style=" stroke:none;fill-rule:nonzero;fill:rgb(100%,100%,100%);fill-opacity:1;" d="M 149.089844 116.578125 L 151.945312 84.351562 L 112.292969 84.351562 L 112.292969 100.273438 L 134.597656 100.273438 L 133.160156 116.578125 L 112.292969 116.578125 L 112.292969 132.492188 L 131.785156 132.492188 L 129.945312 153.140625 L 112.292969 157.933594 L 112.292969 174.492188 L 144.742188 165.449219 L 144.980469 162.757812 L 148.703125 120.847656 Z M 149.089844 116.578125 "/>
</g>
</svg>
