<?xml version="1.0" encoding="UTF-8"?>
<svg xmlns="http://www.w3.org/2000/svg" xmlns:xlink="http://www.w3.org/1999/xlink" width="224.87999pt" height="225pt" viewBox="0 0 224.87999 225" version="1.2">
<defs>
<clipPath id="clip1">
  <path d="M 0 0.0585938 L 224.761719 0.0585938 L 224.761719 224.9375 L 0 224.9375 Z M 0 0.0585938 "/>
</clipPath>
<clipPath id="clip2">
  <path d="M 50.738281 143 L 113 143 L 113 204.984375 L 50.738281 204.984375 Z M 50.738281 143 "/>
</clipPath>
<clipPath id="clip3">
  <path d="M 50.738281 81 L 113 81 L 113 144 L 50.738281 144 Z M 50.738281 81 "/>
</clipPath>
<clipPath id="clip4">
  <path d="M 50.738281 19.890625 L 113 19.890625 L 113 82 L 50.738281 82 Z M 50.738281 19.890625 "/>
</clipPath>
<clipPath id="clip5">
  <path d="M 112 19.890625 L 174.421875 19.890625 L 174.421875 82 L 112 82 Z M 112 19.890625 "/>
</clipPath>
<clipPath id="clip6">
  <path d="M 112 81 L 174.421875 81 L 174.421875 144 L 112 144 Z M 112 81 "/>
</clipPath>
</defs>
<g id="surface1">
<g clip-path="url(#clip1)" clip-rule="nonzero">
<path style=" stroke:none;fill-rule:nonzero;fill:rgb(100%,100%,100%);fill-opacity:1;" d="M 0 0.0585938 L 224.878906 0.0585938 L 224.878906 232.4375 L 0 232.4375 Z M 0 0.0585938 "/>
<path style=" stroke:none;fill-rule:nonzero;fill:rgb(100%,100%,100%);fill-opacity:1;" d="M 0 0.0585938 L 224.878906 0.0585938 L 224.878906 224.941406 L 0 224.941406 Z M 0 0.0585938 "/>
<path style=" stroke:none;fill-rule:nonzero;fill:rgb(100%,100%,100%);fill-opacity:1;" d="M 0 0.0585938 L 224.878906 0.0585938 L 224.878906 224.941406 L 0 224.941406 Z M 0 0.0585938 "/>
</g>
<g clip-path="url(#clip2)" clip-rule="nonzero">
<path style=" stroke:none;fill-rule:nonzero;fill:rgb(3.919983%,81.17981%,51.368713%);fill-opacity:1;" d="M 81.734375 204.921875 C 98.84375 204.921875 112.726562 191.109375 112.726562 174.09375 L 112.726562 143.265625 L 81.734375 143.265625 C 64.625 143.265625 50.738281 157.078125 50.738281 174.09375 C 50.738281 191.109375 64.625 204.921875 81.734375 204.921875 Z M 81.734375 204.921875 "/>
</g>
<g clip-path="url(#clip3)" clip-rule="nonzero">
<path style=" stroke:none;fill-rule:nonzero;fill:rgb(63.529968%,34.899902%,100%);fill-opacity:1;" d="M 50.738281 112.4375 C 50.738281 95.417969 64.625 81.609375 81.734375 81.609375 L 112.726562 81.609375 L 112.726562 143.265625 L 81.734375 143.265625 C 64.625 143.265625 50.738281 129.453125 50.738281 112.4375 Z M 50.738281 112.4375 "/>
</g>
<g clip-path="url(#clip4)" clip-rule="nonzero">
<path style=" stroke:none;fill-rule:nonzero;fill:rgb(94.898987%,30.589294%,11.759949%);fill-opacity:1;" d="M 50.738281 50.78125 C 50.738281 33.761719 64.625 19.953125 81.734375 19.953125 L 112.726562 19.953125 L 112.726562 81.609375 L 81.734375 81.609375 C 64.625 81.609375 50.738281 67.796875 50.738281 50.78125 Z M 50.738281 50.78125 "/>
</g>
<g clip-path="url(#clip5)" clip-rule="nonzero">
<path style=" stroke:none;fill-rule:nonzero;fill:rgb(100%,44.709778%,38.42926%);fill-opacity:1;" d="M 112.726562 19.953125 L 143.722656 19.953125 C 160.832031 19.953125 174.714844 33.761719 174.714844 50.78125 C 174.714844 67.796875 160.832031 81.609375 143.722656 81.609375 L 112.726562 81.609375 Z M 112.726562 19.953125 "/>
</g>
<g clip-path="url(#clip6)" clip-rule="nonzero">
<path style=" stroke:none;fill-rule:nonzero;fill:rgb(10.198975%,73.728943%,99.609375%);fill-opacity:1;" d="M 174.714844 112.4375 C 174.714844 129.453125 160.832031 143.265625 143.722656 143.265625 C 126.613281 143.265625 112.726562 129.453125 112.726562 112.4375 C 112.726562 95.417969 126.613281 81.609375 143.722656 81.609375 C 160.832031 81.609375 174.714844 95.417969 174.714844 112.4375 Z M 174.714844 112.4375 "/>
</g>
</g>
</svg>
