<?xml version="1.0" encoding="UTF-8"?>
<svg xmlns="http://www.w3.org/2000/svg" xmlns:xlink="http://www.w3.org/1999/xlink" width="224.87999pt" height="225pt" viewBox="0 0 224.87999 225" version="1.2">
<defs>
<clipPath id="clip1">
  <path d="M 40.4375 148 L 113 148 L 113 220 L 40.4375 220 Z M 40.4375 148 "/>
</clipPath>
<clipPath id="clip2">
  <path d="M 40.4375 76 L 113 76 L 113 149 L 40.4375 149 Z M 40.4375 76 "/>
</clipPath>
<clipPath id="clip3">
  <path d="M 40.4375 4.429688 L 113 4.429688 L 113 77 L 40.4375 77 Z M 40.4375 4.429688 "/>
</clipPath>
<clipPath id="clip4">
  <path d="M 112 4.429688 L 184.289062 4.429688 L 184.289062 77 L 112 77 Z M 112 4.429688 "/>
</clipPath>
<clipPath id="clip5">
  <path d="M 112 76 L 184.289062 76 L 184.289062 149 L 112 149 Z M 112 76 "/>
</clipPath>
</defs>
<g id="surface1">
<g clip-path="url(#clip1)" clip-rule="nonzero">
<path style=" stroke:none;fill-rule:nonzero;fill:rgb(3.919983%,81.17981%,51.368713%);fill-opacity:1;" d="M 76.402344 219.996094 C 96.253906 219.996094 112.363281 203.90625 112.363281 184.082031 L 112.363281 148.164062 L 76.402344 148.164062 C 56.550781 148.164062 40.4375 164.253906 40.4375 184.082031 C 40.4375 203.90625 56.550781 219.996094 76.402344 219.996094 Z M 76.402344 219.996094 "/>
</g>
<g clip-path="url(#clip2)" clip-rule="nonzero">
<path style=" stroke:none;fill-rule:nonzero;fill:rgb(63.529968%,34.899902%,100%);fill-opacity:1;" d="M 40.4375 112.25 C 40.4375 92.421875 56.550781 76.332031 76.402344 76.332031 L 112.363281 76.332031 L 112.363281 148.164062 L 76.402344 148.164062 C 56.550781 148.164062 40.4375 132.074219 40.4375 112.25 Z M 40.4375 112.25 "/>
</g>
<g clip-path="url(#clip3)" clip-rule="nonzero">
<path style=" stroke:none;fill-rule:nonzero;fill:rgb(94.898987%,30.589294%,11.759949%);fill-opacity:1;" d="M 40.4375 40.414062 C 40.4375 20.589844 56.550781 4.5 76.402344 4.5 L 112.363281 4.5 L 112.363281 76.332031 L 76.402344 76.332031 C 56.550781 76.332031 40.4375 60.242188 40.4375 40.414062 Z M 40.4375 40.414062 "/>
</g>
<g clip-path="url(#clip4)" clip-rule="nonzero">
<path style=" stroke:none;fill-rule:nonzero;fill:rgb(100%,44.709778%,38.42926%);fill-opacity:1;" d="M 112.363281 4.5 L 148.328125 4.5 C 168.179688 4.5 184.289062 20.589844 184.289062 40.414062 C 184.289062 60.242188 168.179688 76.332031 148.328125 76.332031 L 112.363281 76.332031 Z M 112.363281 4.5 "/>
</g>
<g clip-path="url(#clip5)" clip-rule="nonzero">
<path style=" stroke:none;fill-rule:nonzero;fill:rgb(10.198975%,73.728943%,99.609375%);fill-opacity:1;" d="M 184.289062 112.25 C 184.289062 132.074219 168.179688 148.164062 148.328125 148.164062 C 128.476562 148.164062 112.363281 132.074219 112.363281 112.25 C 112.363281 92.421875 128.476562 76.332031 148.328125 76.332031 C 168.179688 76.332031 184.289062 92.421875 184.289062 112.25 Z M 184.289062 112.25 "/>
</g>
</g>
</svg>
