<?xml version="1.0" encoding="UTF-8"?>
<svg xmlns="http://www.w3.org/2000/svg" xmlns:xlink="http://www.w3.org/1999/xlink" width="224.87999pt" height="225pt" viewBox="0 0 224.87999 225" version="1.2">
<defs>
<clipPath id="clip1">
  <path d="M 6 6.863281 L 218 6.863281 L 218 218.25 L 6 218.25 Z M 6 6.863281 "/>
</clipPath>
</defs>
<g id="surface1">
<g clip-path="url(#clip1)" clip-rule="nonzero">
<path style=" stroke:none;fill-rule:nonzero;fill:rgb(94.119263%,31.369019%,19.999695%);fill-opacity:1;" d="M 212.289062 99.183594 L 125.664062 12.410156 C 121.988281 8.710938 117.152344 6.863281 112.3125 6.863281 C 107.472656 6.863281 102.636719 8.710938 98.960938 12.410156 L 81.832031 29.570312 L 103.03125 50.804688 C 110.074219 46.660156 119.246094 47.554688 125.289062 53.605469 C 131.328125 59.65625 132.203125 68.847656 128.066406 75.882812 L 148.90625 96.757812 C 155.949219 92.613281 165.125 93.511719 171.164062 99.558594 C 178.332031 106.738281 178.332031 118.371094 171.164062 125.550781 C 163.996094 132.730469 152.382812 132.730469 145.214844 125.550781 C 139.175781 119.503906 138.28125 110.3125 142.417969 103.257812 L 121.578125 82.378906 C 120.089844 83.261719 118.53125 83.90625 116.902344 84.320312 L 116.902344 140.773438 C 124.804688 142.820312 130.664062 149.945312 130.664062 158.507812 C 130.664062 168.667969 122.457031 176.890625 112.3125 176.890625 C 102.171875 176.890625 93.960938 168.667969 93.960938 158.507812 C 93.960938 149.945312 99.824219 142.820312 107.726562 140.773438 L 107.726562 84.320312 C 104.660156 83.53125 101.738281 82.003906 99.339844 79.597656 C 93.300781 73.550781 92.421875 64.359375 96.5625 57.320312 L 75.34375 36.066406 L 12.335938 99.183594 C 4.953125 106.558594 4.953125 118.550781 12.335938 125.929688 L 98.960938 212.703125 C 102.636719 216.398438 107.472656 218.25 112.3125 218.25 C 117.152344 218.25 121.988281 216.398438 125.664062 212.703125 L 212.289062 125.929688 C 219.671875 118.550781 219.671875 106.558594 212.289062 99.183594 Z M 212.289062 99.183594 "/>
</g>
</g>
</svg>
