<?xml version="1.0" encoding="UTF-8"?>
<svg xmlns="http://www.w3.org/2000/svg" xmlns:xlink="http://www.w3.org/1999/xlink" width="224.87999pt" height="225pt" viewBox="0 0 224.87999 225" version="1.2">
<defs>
<clipPath id="clip1">
  <path d="M 54 3.789062 L 161 3.789062 L 161 213.664062 L 54 213.664062 Z M 54 3.789062 "/>
</clipPath>
</defs>
<g id="surface1">
<path style=" stroke:none;fill-rule:nonzero;fill:rgb(30.589294%,47.059631%,58.81958%);fill-opacity:1;" d="M 91.496094 115.089844 C 91.496094 115.089844 85.972656 118.457031 95.335938 119.417969 C 106.625 120.859375 112.628906 120.621094 125.117188 118.214844 C 125.117188 118.214844 128.480469 120.378906 133.042969 122.0625 C 104.945312 134.082031 69.398438 121.339844 91.496094 115.089844 Z M 87.894531 99.464844 C 87.894531 99.464844 81.890625 104.03125 91.253906 104.996094 C 103.503906 106.195312 113.109375 106.4375 129.679688 103.070312 C 129.679688 103.070312 131.84375 105.476562 135.445312 106.675781 C 101.582031 116.773438 63.632812 107.640625 87.890625 99.464844 Z M 154.179688 126.867188 C 154.179688 126.867188 158.261719 130.230469 149.613281 132.875 C 133.523438 137.683594 82.132812 139.125 67.71875 132.875 C 62.675781 130.714844 72.28125 127.589844 75.402344 127.105469 C 78.527344 126.386719 80.207031 126.386719 80.207031 126.386719 C 74.683594 122.539062 43.460938 134.320312 64.355469 137.683594 C 121.753906 147.058594 169.066406 133.597656 154.179688 126.867188 Z M 94.136719 83.117188 C 94.136719 83.117188 67.960938 89.367188 84.773438 91.53125 C 91.976562 92.492188 106.148438 92.25 119.355469 91.289062 C 130.164062 90.328125 140.96875 88.40625 140.96875 88.40625 C 140.96875 88.40625 137.128906 90.085938 134.484375 91.769531 C 107.828125 98.742188 56.675781 95.617188 71.324219 88.40625 C 83.8125 82.394531 94.136719 83.117188 94.136719 83.117188 Z M 140.96875 109.320312 C 167.867188 95.375 155.378906 81.914062 146.734375 83.597656 C 144.570312 84.078125 143.609375 84.558594 143.609375 84.558594 C 143.609375 84.558594 144.332031 83.117188 146.011719 82.636719 C 163.0625 76.625 176.511719 100.664062 140.488281 110.039062 C 140.488281 110.039062 140.730469 109.796875 140.96875 109.316406 Z M 96.78125 147.300781 C 122.714844 148.984375 162.339844 146.339844 163.304688 134.078125 C 163.304688 134.078125 161.386719 138.886719 141.933594 142.492188 C 119.835938 146.578125 92.460938 146.097656 76.371094 143.453125 C 76.371094 143.453125 79.734375 146.339844 96.785156 147.300781 Z M 96.78125 147.300781 "/>
<g clip-path="url(#clip1)" clip-rule="nonzero">
<path style=" stroke:none;fill-rule:nonzero;fill:rgb(96.078491%,50.979614%,9.799194%);fill-opacity:1;" d="M 124.636719 3.789062 C 124.636719 3.789062 139.527344 18.933594 110.46875 41.769531 C 87.171875 60.28125 105.183594 70.859375 110.46875 82.875 C 96.777344 70.617188 86.929688 59.800781 93.65625 49.703125 C 103.503906 34.800781 130.644531 27.59375 124.636719 3.789062 Z M 116.957031 72.78125 C 123.921875 80.714844 115.035156 87.925781 115.035156 87.925781 C 115.035156 87.925781 132.804688 78.792969 124.640625 67.492188 C 117.195312 56.675781 111.433594 51.386719 142.652344 33.363281 C 142.652344 33.363281 93.421875 45.625 116.957031 72.785156 Z M 99.179688 201.867188 L 99.179688 178.308594 C 99.179688 172.296875 95.820312 168.210938 87.414062 168.210938 C 82.609375 168.210938 78.527344 169.414062 74.925781 170.851562 L 76.125 175.179688 C 78.761719 174.21875 82.128906 173.253906 85.730469 173.253906 C 90.296875 173.253906 92.457031 175.179688 92.457031 179.023438 L 92.457031 182.148438 L 90.054688 182.148438 C 78.527344 182.148438 73.242188 186.476562 73.242188 193.449219 C 73.242188 199.21875 76.847656 202.582031 83.332031 202.582031 C 87.414062 202.582031 90.535156 200.660156 93.417969 198.253906 L 93.898438 201.859375 L 99.183594 201.859375 Z M 92.457031 194.171875 C 90.054688 196.335938 87.414062 197.539062 85.011719 197.539062 C 81.890625 197.539062 79.96875 195.617188 79.96875 192.25 C 79.96875 188.886719 81.890625 186.480469 89.574219 186.480469 L 92.457031 186.480469 Z M 121.757812 201.867188 L 113.351562 201.867188 L 103.265625 168.933594 L 110.46875 168.933594 L 116.714844 189.125 L 118.15625 195.132812 C 121.277344 186.480469 123.679688 177.585938 124.640625 168.933594 L 131.84375 168.933594 C 129.921875 179.75 126.558594 191.527344 121.757812 201.867188 Z M 160.660156 201.867188 L 160.660156 178.308594 C 160.660156 172.296875 157.300781 168.210938 148.894531 168.210938 C 144.089844 168.210938 140.007812 169.414062 136.40625 170.851562 L 137.367188 175.179688 C 140.25 174.21875 143.609375 173.253906 147.214844 173.253906 C 151.777344 173.253906 153.9375 175.179688 153.9375 179.023438 L 153.9375 182.148438 L 151.535156 182.148438 C 140.007812 182.148438 134.726562 186.476562 134.726562 193.449219 C 134.726562 199.21875 138.085938 202.582031 144.570312 202.582031 C 148.894531 202.582031 152.015625 200.660156 154.898438 198.253906 L 155.378906 201.859375 L 160.660156 201.859375 Z M 153.9375 194.171875 C 151.535156 196.335938 148.894531 197.539062 146.492188 197.539062 C 143.371094 197.539062 141.449219 195.617188 141.449219 192.25 C 141.449219 188.886719 143.371094 186.480469 151.054688 186.480469 L 153.9375 186.480469 Z M 65.800781 207.394531 C 63.878906 210.28125 60.996094 212.441406 57.394531 213.644531 L 54.269531 209.800781 C 56.671875 208.359375 59.074219 206.195312 60.035156 204.273438 C 60.996094 202.589844 61.234375 200.183594 61.234375 194.65625 L 61.234375 157.15625 L 68.441406 157.15625 L 68.441406 194.175781 C 68.441406 201.628906 67.71875 204.511719 65.804688 207.398438 Z M 65.800781 207.394531 "/>
</g>
</g>
</svg>
