<svg xmlns="http://www.w3.org/2000/svg" width="375" viewBox="0 0 375 375" height="375" version="1.0"><path fill="#FFD600" d="M-37.5 -37.5H412.5V412.5H-37.5z"/><path fill="#000001" d="M 246.195312 282.273438 C 253.519531 294.167969 261.476562 305.566406 278.335938 305.566406 C 292.496094 305.566406 299.925781 298.53125 299.925781 288.792969 C 299.925781 277.140625 292.242188 273.003906 276.664062 266.21875 L 268.125 262.578125 C 243.476562 252.121094 227.082031 239.019531 227.082031 211.34375 C 227.082031 185.839844 246.609375 166.429688 277.121094 166.429688 C 298.847656 166.429688 314.457031 173.953125 325.71875 193.660156 L 299.113281 210.667969 C 293.257812 200.210938 286.929688 196.09375 277.121094 196.09375 C 267.109375 196.09375 260.769531 202.410156 260.769531 210.667969 C 260.769531 220.871094 267.117188 224.996094 281.777344 231.316406 L 290.316406 234.957031 C 319.367188 247.328125 335.75 259.964844 335.75 288.371094 C 335.75 318.976562 311.578125 335.75 279.128906 335.75 C 247.390625 335.75 229.367188 319.824219 219.335938 300.105469 Z M 123.578125 283.140625 C 128.933594 292.730469 137.070312 300.105469 148.777344 300.105469 C 159.972656 300.105469 166.417969 295.683594 166.417969 278.484375 L 166.417969 166.417969 L 201.691406 166.417969 L 201.691406 283.902344 C 201.691406 319.539062 181.023438 335.75 150.839844 335.75 C 123.566406 335.75 103.882812 317.273438 95.859375 300.105469 Z M 123.578125 283.140625"/></svg>