<?xml version="1.0" encoding="UTF-8"?>
<svg xmlns="http://www.w3.org/2000/svg" xmlns:xlink="http://www.w3.org/1999/xlink" width="224.87999pt" height="225pt" viewBox="0 0 224.87999 225" version="1.2">
<defs>
<clipPath id="clip1">
  <path d="M 64 4.855469 L 114 4.855469 L 114 194 L 64 194 Z M 64 4.855469 "/>
</clipPath>
<clipPath id="clip2">
  <path d="M 108 166 L 122 166 L 122 219.839844 L 108 219.839844 Z M 108 166 "/>
</clipPath>
</defs>
<g id="surface1">
<path style=" stroke:none;fill-rule:nonzero;fill:rgb(34.899902%,58.81958%,21.179199%);fill-opacity:1;" d="M 112.3125 5.441406 L 118.082031 16.214844 C 119.378906 18.207031 120.78125 19.964844 122.4375 21.605469 C 127.269531 26.40625 131.855469 31.441406 135.976562 36.828125 C 145.753906 49.59375 152.347656 63.769531 157.054688 79.097656 C 159.878906 88.464844 161.414062 98.070312 161.527344 107.785156 C 162 136.828125 151.988281 161.765625 131.800781 182.492188 C 128.503906 185.769531 124.976562 188.808594 121.195312 191.507812 C 119.195312 191.507812 118.25 189.984375 117.425781 188.578125 C 115.890625 186.007812 114.953125 183.070312 114.480469 180.148438 C 113.769531 176.632812 113.304688 173.121094 113.535156 169.492188 L 113.535156 167.851562 C 113.371094 167.503906 111.609375 6.265625 112.3125 5.441406 Z M 112.3125 5.441406 "/>
<g clip-path="url(#clip1)" clip-rule="nonzero">
<path style=" stroke:none;fill-rule:nonzero;fill:rgb(42.349243%,67.449951%,28.239441%);fill-opacity:1;" d="M 112.3125 5.085938 C 112.074219 4.613281 111.839844 4.96875 111.601562 5.199219 C 111.714844 7.550781 110.890625 9.644531 109.601562 11.648438 C 108.183594 13.636719 106.304688 15.160156 104.421875 16.800781 C 93.949219 25.816406 85.707031 36.707031 79.105469 48.886719 C 70.324219 65.28125 65.796875 82.847656 64.511719 101.34375 C 63.925781 108.015625 66.632812 131.554688 68.75 138.347656 C 74.519531 156.378906 84.882812 171.488281 98.304688 184.601562 C 101.601562 187.757812 105.128906 190.6875 108.777344 193.503906 C 109.839844 193.503906 109.953125 192.5625 110.195312 191.863281 C 110.660156 190.367188 111.015625 188.84375 111.257812 187.296875 L 113.621094 169.734375 Z M 112.3125 5.085938 "/>
</g>
<g clip-path="url(#clip2)" clip-rule="nonzero">
<path style=" stroke:none;fill-rule:nonzero;fill:rgb(76.078796%,74.899292%,74.899292%);fill-opacity:1;" d="M 118.082031 198.644531 C 118.316406 195.957031 119.613281 193.726562 121.027344 191.5 C 119.605469 190.917969 118.554688 189.753906 117.730469 188.457031 C 117.019531 187.289062 116.433594 185.886719 115.972656 184.59375 C 114.324219 179.675781 113.972656 174.519531 113.5 169.492188 L 113.5 166.449219 C 112.914062 166.917969 112.789062 170.898438 112.789062 171.488281 C 112.445312 176.804688 111.738281 182.074219 110.667969 187.296875 C 110.316406 189.40625 110.082031 191.507812 108.777344 193.382812 C 108.777344 193.617188 108.777344 193.851562 108.890625 194.203125 C 111.015625 200.410156 111.59375 206.730469 111.953125 213.175781 L 111.953125 215.527344 C 111.953125 218.335938 111.839844 217.742188 114.183594 218.683594 C 115.128906 219.03125 116.183594 219.152344 117.128906 219.851562 C 117.835938 219.851562 117.953125 219.269531 117.953125 218.796875 L 117.601562 214.933594 L 117.601562 204.160156 C 117.484375 202.277344 117.835938 200.410156 118.074219 198.648438 Z M 118.082031 198.644531 "/>
</g>
</g>
</svg>
