<?xml version="1.0" encoding="UTF-8"?>
<svg xmlns="http://www.w3.org/2000/svg" xmlns:xlink="http://www.w3.org/1999/xlink" width="224.87999pt" height="225pt" viewBox="0 0 224.87999 225" version="1.2">
<defs>
<clipPath id="clip1">
  <path d="M 58 91 L 200 91 L 200 144.933594 L 58 144.933594 Z M 58 91 "/>
</clipPath>
<clipPath id="clip2">
  <path d="M 117 59.539062 L 167 59.539062 L 167 144.933594 L 117 144.933594 Z M 117 59.539062 "/>
</clipPath>
<clipPath id="clip3">
  <path d="M 58 91 L 109 91 L 109 144.933594 L 58 144.933594 Z M 58 91 "/>
</clipPath>
<clipPath id="clip4">
  <path d="M 4.179688 90 L 220.816406 90 L 220.816406 144.933594 L 4.179688 144.933594 Z M 4.179688 90 "/>
</clipPath>
<clipPath id="clip5">
  <path d="M 93.898438 145.0625 L 130.292969 145.0625 L 130.292969 187.789062 L 93.898438 187.789062 Z M 93.898438 145.0625 "/>
</clipPath>
<clipPath id="clip6">
  <path d="M 136.222656 145.0625 L 146.714844 145.0625 L 146.714844 160.054688 L 136.222656 160.054688 Z M 136.222656 145.0625 "/>
</clipPath>
</defs>
<g id="surface1">
<g clip-path="url(#clip1)" clip-rule="nonzero">
<path style=" stroke:none;fill-rule:nonzero;fill:rgb(21.958923%,55.688477%,23.529053%);fill-opacity:1;" d="M 82.097656 91.382812 L 60.105469 103.519531 C 59.28125 103.972656 58.773438 104.8125 58.773438 105.71875 L 58.773438 130.011719 C 58.773438 130.917969 59.28125 131.753906 60.105469 132.210938 L 82.101562 144.359375 C 82.921875 144.808594 83.941406 144.808594 84.761719 144.359375 L 106.753906 132.210938 C 107.570312 131.753906 108.074219 130.917969 108.074219 130.011719 L 108.074219 105.71875 C 108.074219 104.8125 107.570312 103.976562 106.742188 103.519531 L 84.753906 91.382812 C 84.34375 91.152344 83.882812 91.042969 83.425781 91.042969 C 82.960938 91.042969 82.503906 91.152344 82.09375 91.382812 M 195.253906 113.25 L 191.585938 115.269531 C 191.449219 115.347656 191.367188 115.484375 191.367188 115.636719 L 191.367188 119.6875 C 191.367188 119.839844 191.453125 119.976562 191.585938 120.054688 L 195.253906 122.078125 C 195.394531 122.15625 195.558594 122.15625 195.699219 122.078125 L 199.363281 120.054688 C 199.5 119.976562 199.582031 119.839844 199.582031 119.6875 L 199.582031 115.636719 C 199.582031 115.484375 199.5 115.347656 199.359375 115.269531 L 195.691406 113.25 C 195.625 113.207031 195.550781 113.191406 195.472656 113.191406 C 195.398438 113.191406 195.320312 113.207031 195.253906 113.25 "/>
</g>
<g clip-path="url(#clip2)" clip-rule="nonzero">
<path style=" stroke:none;fill-rule:nonzero;fill:rgb(21.569824%,27.839661%,30.979919%);fill-opacity:1;" d="M 165.222656 65.636719 L 154.515625 59.675781 C 154.179688 59.488281 153.769531 59.496094 153.4375 59.691406 C 153.105469 59.886719 152.898438 60.242188 152.898438 60.625 L 152.894531 96.625 L 143.019531 91.175781 C 142.609375 90.949219 142.148438 90.835938 141.691406 90.835938 C 141.234375 90.835938 140.769531 90.949219 140.359375 91.175781 L 140.363281 91.175781 L 118.371094 103.316406 C 117.546875 103.765625 117.039062 104.605469 117.039062 105.511719 L 117.039062 129.800781 C 117.039062 130.707031 117.546875 131.542969 118.371094 132 L 140.367188 144.148438 C 141.1875 144.601562 142.207031 144.601562 143.023438 144.148438 L 165.019531 132 C 165.835938 131.550781 166.339844 130.707031 166.339844 129.800781 L 166.339844 67.535156 C 166.339844 66.746094 165.910156 66.023438 165.222656 65.636719 Z M 152.292969 124.179688 L 142.300781 129.703125 C 141.925781 129.90625 141.464844 129.90625 141.09375 129.703125 L 131.09375 124.179688 C 130.714844 123.976562 130.484375 123.589844 130.484375 123.179688 L 130.484375 112.136719 C 130.484375 111.722656 130.714844 111.34375 131.089844 111.132812 L 141.089844 105.617188 L 141.085938 105.617188 C 141.273438 105.515625 141.480469 105.464844 141.691406 105.464844 C 141.898438 105.464844 142.105469 105.519531 142.292969 105.617188 L 152.289062 111.132812 C 152.667969 111.34375 152.894531 111.730469 152.894531 112.140625 L 152.894531 123.183594 C 152.894531 123.589844 152.667969 123.976562 152.292969 124.179688 Z M 152.292969 124.179688 "/>
</g>
<g clip-path="url(#clip3)" clip-rule="nonzero">
<path style=" stroke:none;fill-rule:nonzero;fill:rgb(18.03894%,49.01886%,19.60907%);fill-opacity:1;" d="M 82.097656 91.382812 L 58.773438 130.011719 C 58.773438 130.917969 59.28125 131.753906 60.105469 132.210938 L 82.101562 144.359375 C 82.921875 144.808594 83.941406 144.808594 84.761719 144.359375 L 108.074219 105.71875 C 108.074219 104.8125 107.570312 103.976562 106.742188 103.519531 L 84.753906 91.382812 C 84.34375 91.152344 83.882812 91.042969 83.425781 91.042969 C 82.960938 91.042969 82.503906 91.152344 82.09375 91.382812 "/>
<path style=" stroke:none;fill-rule:nonzero;fill:rgb(29.798889%,68.629456%,31.369019%);fill-opacity:1;" d="M 82.097656 91.382812 L 60.105469 103.519531 C 59.28125 103.972656 58.773438 104.8125 58.773438 105.71875 L 82.097656 144.359375 C 82.917969 144.808594 83.933594 144.808594 84.753906 144.359375 L 106.75 132.210938 C 107.570312 131.753906 108.074219 130.917969 108.074219 130.011719 L 84.753906 91.382812 C 84.34375 91.152344 83.882812 91.042969 83.425781 91.042969 C 82.960938 91.042969 82.503906 91.152344 82.09375 91.382812 "/>
</g>
<g clip-path="url(#clip4)" clip-rule="nonzero">
<path style=" stroke:none;fill-rule:nonzero;fill:rgb(21.569824%,27.839661%,30.979919%);fill-opacity:1;" d="M 218.792969 103.316406 L 196.804688 91.175781 C 196.390625 90.949219 195.929688 90.835938 195.472656 90.835938 C 195.015625 90.835938 194.554688 90.949219 194.140625 91.175781 L 194.148438 91.175781 L 172.152344 103.316406 C 171.332031 103.765625 170.824219 104.625 170.824219 105.5625 L 170.824219 129.757812 C 170.824219 130.691406 171.332031 131.554688 172.152344 132.003906 L 194.152344 144.152344 C 194.976562 144.609375 195.984375 144.609375 196.808594 144.152344 L 206.953125 138.550781 C 207.878906 138.035156 207.875 136.707031 206.941406 136.199219 L 184.875 124.183594 C 184.5 123.976562 184.269531 123.585938 184.269531 123.164062 L 184.269531 112.140625 C 184.269531 111.730469 184.492188 111.347656 184.851562 111.152344 L 194.867188 105.625 L 194.863281 105.625 C 195.050781 105.523438 195.257812 105.472656 195.46875 105.472656 C 195.679688 105.472656 195.886719 105.527344 196.074219 105.625 L 206.089844 111.15625 C 206.449219 111.351562 206.671875 111.734375 206.671875 112.144531 L 206.671875 121.140625 C 206.671875 121.523438 206.878906 121.882812 207.214844 122.074219 C 207.550781 122.261719 207.964844 122.261719 208.300781 122.070312 L 219.046875 115.84375 C 219.710938 115.457031 220.125 114.746094 220.125 113.976562 L 220.125 105.574219 C 220.125 104.628906 219.613281 103.765625 218.792969 103.316406 Z M 52.960938 103.316406 L 30.972656 91.175781 C 30.558594 90.949219 30.097656 90.835938 29.640625 90.835938 C 29.183594 90.835938 28.722656 90.949219 28.308594 91.175781 L 28.3125 91.175781 L 6.320312 103.316406 C 5.5 103.765625 4.988281 104.625 4.988281 105.5625 L 4.988281 138.9375 C 4.988281 139.324219 5.195312 139.679688 5.53125 139.875 C 5.867188 140.0625 6.28125 140.0625 6.617188 139.871094 L 17.363281 133.640625 C 18.027344 133.257812 18.4375 132.546875 18.4375 131.777344 L 18.4375 112.136719 C 18.4375 111.722656 18.660156 111.34375 19.019531 111.148438 L 29.035156 105.621094 C 29.222656 105.519531 29.429688 105.46875 29.640625 105.46875 C 29.851562 105.46875 30.058594 105.523438 30.246094 105.621094 L 40.261719 111.152344 C 40.621094 111.347656 40.84375 111.730469 40.84375 112.140625 L 40.84375 131.78125 C 40.84375 132.550781 41.253906 133.261719 41.921875 133.644531 L 52.667969 139.875 C 53.003906 140.066406 53.417969 140.066406 53.753906 139.878906 C 54.085938 139.679688 54.292969 139.324219 54.292969 138.9375 L 54.292969 105.566406 C 54.292969 104.628906 53.78125 103.765625 52.960938 103.316406 Z M 52.960938 103.316406 "/>
</g>
<g clip-path="url(#clip5)" clip-rule="nonzero">
<path style=" stroke:none;fill-rule:nonzero;fill:rgb(54.899597%,75.289917%,24.308777%);fill-opacity:1;" d="M 107.632812 182.832031 C 106.570312 183.46875 106.367188 183.542969 105.367188 183.910156 C 105.125 183.996094 104.761719 184.148438 105.503906 184.589844 L 110.511719 187.699219 C 110.988281 187.988281 111.542969 188.140625 112.085938 188.140625 L 112.089844 188.144531 C 112.640625 188.144531 113.183594 187.992188 113.664062 187.703125 L 128.648438 178.625 C 129.625 178.03125 130.222656 176.929688 130.222656 175.757812 L 130.222656 157.617188 C 130.222656 156.433594 129.625 155.332031 128.648438 154.746094 L 113.664062 145.664062 C 112.722656 145.101562 111.464844 145.101562 110.511719 145.664062 L 95.542969 154.738281 C 94.570312 155.328125 93.972656 156.433594 93.972656 157.605469 L 93.972656 175.746094 C 93.972656 176.929688 94.570312 178.03125 95.542969 178.617188 L 99.46875 180.992188 C 101.371094 181.980469 102.050781 181.980469 102.917969 181.980469 C 105.734375 181.980469 107.355469 180.195312 107.355469 177.078125 L 107.355469 159.160156 C 107.355469 158.90625 107.152344 158.707031 106.917969 158.707031 L 105.019531 158.707031 C 104.777344 158.707031 104.582031 158.902344 104.582031 159.160156 L 104.582031 177.070312 C 104.582031 178.457031 103.214844 179.828125 100.984375 178.660156 L 96.878906 176.175781 C 96.734375 176.097656 96.648438 175.929688 96.648438 175.757812 L 96.648438 157.617188 C 96.648438 157.4375 96.734375 157.269531 96.882812 157.183594 L 111.851562 148.105469 C 111.988281 148.019531 112.175781 148.019531 112.3125 148.105469 L 127.292969 157.171875 C 127.4375 157.265625 127.527344 157.429688 127.527344 157.605469 L 127.527344 175.757812 C 127.527344 175.925781 127.441406 176.097656 127.300781 176.183594 L 112.3125 185.257812 C 112.183594 185.34375 111.988281 185.34375 111.851562 185.257812 L 108.003906 182.867188 C 107.890625 182.789062 107.746094 182.761719 107.632812 182.832031 Z M 107.632812 182.832031 "/>
</g>
<path style=" stroke:none;fill-rule:nonzero;fill:rgb(54.899597%,75.289917%,24.308777%);fill-opacity:1;" d="M 116.710938 172.894531 C 112.746094 172.894531 111.875 171.847656 111.585938 169.777344 C 111.554688 169.558594 111.375 169.398438 111.15625 169.398438 L 109.21875 169.398438 C 108.972656 169.398438 108.789062 169.601562 108.789062 169.847656 C 108.789062 172.496094 110.15625 175.652344 116.722656 175.652344 C 121.457031 175.644531 124.1875 173.679688 124.1875 170.257812 L 124.183594 170.257812 C 124.183594 166.863281 121.992188 165.960938 117.390625 165.320312 C 112.734375 164.671875 112.265625 164.339844 112.265625 163.199219 C 112.265625 162.257812 112.664062 160.996094 116.109375 160.996094 C 119.1875 160.996094 120.320312 161.695312 120.792969 163.871094 C 120.832031 164.078125 121.011719 164.230469 121.214844 164.230469 L 123.160156 164.230469 C 123.28125 164.230469 123.398438 164.179688 123.476562 164.085938 C 123.558594 163.992188 123.597656 163.863281 123.589844 163.738281 C 123.292969 159.984375 120.914062 158.238281 116.109375 158.238281 C 111.835938 158.238281 109.285156 160.128906 109.285156 163.300781 C 109.285156 166.742188 111.824219 167.695312 115.921875 168.121094 C 120.832031 168.625 121.210938 169.378906 121.210938 170.394531 C 121.214844 172.148438 119.871094 172.894531 116.710938 172.894531 Z M 116.710938 172.894531 "/>
<g clip-path="url(#clip6)" clip-rule="nonzero">
<path style=" stroke:none;fill-rule:nonzero;fill:rgb(18.03894%,49.01886%,19.60907%);fill-opacity:1;" d="M 153.125 38.78125 C 151.828125 38.78125 150.644531 39.820312 150.644531 41.261719 L 150.644531 86.59375 L 140.367188 80.601562 C 139.726562 80.222656 139 80.035156 138.273438 80.035156 C 137.550781 80.035156 136.824219 80.222656 136.179688 80.601562 L 111.492188 95 C 110.207031 95.746094 109.414062 97.117188 109.414062 98.59375 L 109.414062 127.429688 C 109.414062 128.914062 110.207031 130.28125 111.492188 131.023438 L 136.179688 145.421875 C 136.824219 145.804688 137.550781 145.988281 138.273438 145.988281 C 139 145.988281 139.726562 145.804688 140.367188 145.421875 L 165.058594 131.023438 C 166.34375 130.28125 167.132812 128.90625 167.132812 127.429688 L 167.132812 48.929688 C 167.132812 47.460938 166.351562 46.113281 165.089844 45.371094 L 154.347656 39.121094 C 153.941406 38.886719 153.535156 38.78125 153.125 38.78125 Z M 72.308594 80.035156 C 71.585938 80.035156 70.863281 80.226562 70.214844 80.601562 L 45.527344 95 C 44.242188 95.746094 43.449219 97.117188 43.449219 98.59375 L 43.449219 127.429688 C 43.449219 128.914062 44.242188 130.28125 45.527344 131.023438 L 70.214844 145.421875 C 71.511719 146.175781 73.109375 146.175781 74.402344 145.421875 L 99.09375 131.023438 C 100.378906 130.28125 101.167969 128.90625 101.167969 127.429688 L 101.167969 98.59375 C 101.167969 97.109375 100.378906 95.746094 99.09375 95 L 74.402344 80.601562 C 73.757812 80.226562 73.035156 80.035156 72.308594 80.035156 Z M 204.238281 80.035156 C 203.515625 80.035156 202.789062 80.222656 202.144531 80.601562 L 177.457031 95 C 176.171875 95.746094 175.378906 97.117188 175.378906 98.59375 L 175.378906 127.429688 C 175.378906 128.914062 176.171875 130.28125 177.457031 131.023438 L 201.40625 145.503906 C 202.691406 146.289062 204.304688 146.296875 205.609375 145.535156 L 217.378906 138.691406 C 218.601562 137.988281 218.609375 136.21875 217.378906 135.5 L 191.871094 120.46875 L 191.871094 105.667969 L 204.238281 98.464844 L 216.609375 105.667969 L 216.609375 115.976562 C 216.609375 117.351562 217.765625 117.566406 218.539062 117.105469 C 221.65625 115.273438 231.054688 109.824219 231.054688 109.824219 C 232.316406 109.089844 233.097656 107.730469 233.097656 106.261719 L 233.097656 98.59375 C 233.097656 97.109375 232.308594 95.746094 231.019531 95 L 206.332031 80.601562 C 205.679688 80.222656 204.964844 80.035156 204.238281 80.035156 Z M 6.34375 80.050781 C 5.621094 80.050781 4.894531 80.238281 4.25 80.617188 L -20.4375 95 C -21.722656 95.753906 -22.515625 97.125 -22.515625 98.609375 L -22.515625 135.417969 C -22.515625 137.21875 -20.570312 138.332031 -19.019531 137.433594 L -8.070312 131.054688 C -6.808594 130.3125 -6.023438 128.960938 -6.023438 127.492188 L -6.023438 105.699219 L 6.34375 98.480469 L 18.714844 105.699219 L 18.714844 127.492188 C 18.714844 128.960938 19.496094 130.3125 20.757812 131.054688 L 31.710938 137.433594 C 33.261719 138.339844 35.203125 137.21875 35.203125 135.417969 L 35.203125 98.609375 C 35.203125 97.125 34.414062 95.753906 33.128906 95 L 8.4375 80.617188 C 7.796875 80.238281 7.070312 80.050781 6.34375 80.050781 Z M 138.273438 98.464844 L 150.644531 105.683594 L 150.644531 120.339844 L 138.273438 127.558594 L 125.90625 120.339844 L 125.90625 105.683594 Z M 204.238281 104.796875 L 197.167969 108.921875 L 197.167969 117.152344 L 204.238281 121.261719 L 211.308594 117.152344 L 211.308594 108.921875 Z M 104.519531 137.738281 C 103.671875 137.738281 102.8125 137.945312 102.070312 138.367188 L 78.878906 151.769531 C 77.355469 152.613281 76.433594 154.265625 76.433594 155.992188 L 76.433594 182.765625 C 76.433594 184.488281 77.394531 186.109375 78.878906 186.984375 L 84.984375 190.464844 C 87.910156 191.90625 88.988281 191.914062 90.316406 191.914062 C 94.683594 191.914062 97.175781 189.300781 97.175781 184.679688 L 97.175781 158.230469 C 97.175781 157.824219 96.863281 157.539062 96.5 157.539062 L 93.566406 157.539062 C 93.164062 157.539062 92.875 157.867188 92.875 158.230469 L 92.875 184.679688 C 92.875 186.6875 90.757812 188.742188 87.304688 187.015625 L 80.957031 183.359375 C 80.75 183.238281 80.605469 182.988281 80.605469 182.75 L 80.605469 155.976562 C 80.605469 155.734375 80.71875 155.453125 80.957031 155.332031 L 104.148438 141.960938 C 104.394531 141.835938 104.675781 141.835938 104.875 141.960938 L 128.082031 155.332031 C 128.320312 155.453125 128.433594 155.695312 128.433594 155.976562 L 128.433594 182.75 C 128.433594 183.027344 128.277344 183.269531 128.082031 183.394531 L 104.875 196.8125 C 104.667969 196.933594 104.347656 196.933594 104.148438 196.8125 L 98.222656 193.285156 C 98.066406 193.203125 97.816406 193.152344 97.660156 193.234375 C 96.019531 194.199219 95.6875 194.328125 94.164062 194.847656 C 93.761719 194.96875 93.210938 195.21875 94.375 195.859375 L 102.070312 200.4375 C 102.839844 200.839844 103.679688 201.082031 104.519531 201.082031 C 105.402344 201.082031 106.257812 200.839844 106.933594 200.402344 L 130.125 186.984375 C 131.652344 186.144531 132.574219 184.488281 132.574219 182.765625 L 132.574219 155.992188 C 132.574219 154.265625 131.609375 152.652344 130.125 151.769531 L 106.933594 138.367188 C 106.214844 137.945312 105.367188 137.738281 104.519531 137.738281 Z M 140.691406 150.09375 C 138.324219 150.09375 136.246094 152.007812 136.246094 154.542969 C 136.246094 156.992188 138.242188 159.003906 140.691406 159.003906 C 143.140625 159.003906 145.136719 156.992188 145.136719 154.542969 C 145.136719 152.007812 143.097656 150.054688 140.691406 150.09375 Z M 140.640625 150.804688 C 142.738281 150.804688 144.425781 152.453125 144.425781 154.542969 C 144.425781 156.585938 142.726562 158.277344 140.640625 158.328125 C 138.589844 158.328125 136.921875 156.628906 136.921875 154.542969 C 136.921875 152.453125 138.597656 150.804688 140.640625 150.804688 Z M 139.015625 152.011719 L 139.015625 157.023438 L 139.964844 157.023438 L 139.964844 155.023438 L 140.851562 155.023438 C 141.214844 155.023438 141.300781 155.179688 141.382812 155.460938 C 141.382812 155.5 141.535156 156.800781 141.574219 157.039062 L 142.605469 157.039062 C 142.492188 156.800781 142.40625 156.113281 142.363281 155.703125 C 142.25 155.058594 142.210938 154.613281 141.527344 154.574219 C 141.890625 154.449219 142.492188 154.257812 142.492188 153.332031 C 142.492188 152.003906 141.339844 152.011719 140.738281 152.011719 Z M 139.964844 152.816406 L 140.769531 152.816406 C 141.019531 152.816406 141.496094 152.808594 141.496094 153.496094 C 141.496094 153.773438 141.375 154.226562 140.722656 154.21875 L 139.964844 154.21875 Z M 110.734375 156.910156 C 104.113281 156.910156 100.1875 159.730469 100.1875 164.382812 C 100.1875 169.480469 104.121094 170.84375 110.460938 171.488281 C 118.046875 172.246094 118.644531 173.339844 118.644531 174.824219 C 118.644531 177.429688 116.550781 178.511719 111.652344 178.511719 C 105.511719 178.511719 104.160156 176.988281 103.714844 173.9375 C 103.671875 173.613281 103.382812 173.371094 103.019531 173.371094 L 100.011719 173.371094 C 99.648438 173.371094 99.332031 173.660156 99.332031 174.066406 C 99.332031 177.957031 101.453125 182.621094 111.605469 182.621094 C 119.050781 182.613281 123.265625 179.726562 123.265625 174.660156 C 123.265625 169.648438 119.890625 168.3125 112.75 167.347656 C 105.527344 166.382812 104.808594 165.898438 104.808594 164.207031 C 104.808594 162.804688 105.402344 160.96875 110.734375 160.96875 C 115.507812 160.96875 117.289062 162.011719 118.015625 165.222656 C 118.097656 165.542969 118.320312 165.738281 118.644531 165.738281 L 121.65625 165.738281 C 121.851562 165.738281 122.023438 165.660156 122.136719 165.542969 C 122.261719 165.386719 122.339844 165.226562 122.296875 165.027344 C 121.820312 159.484375 118.164062 156.910156 110.734375 156.910156 Z M 110.734375 156.910156 "/>
</g>
</g>
</svg>
