<?xml version="1.0" encoding="UTF-8"?>
<svg xmlns="http://www.w3.org/2000/svg" xmlns:xlink="http://www.w3.org/1999/xlink" width="224.87999pt" height="225pt" viewBox="0 0 224.87999 225" version="1.2">
<defs>
<clipPath id="clip1">
  <path d="M 13.898438 71.460938 L 211.042969 71.460938 L 211.042969 175.652344 L 13.898438 175.652344 Z M 13.898438 71.460938 "/>
</clipPath>
<clipPath id="clip2">
  <path d="M 211.101562 123.699219 C 211.101562 124.550781 211.058594 125.402344 210.980469 126.253906 C 210.902344 127.105469 210.785156 127.957031 210.625 128.804688 C 210.46875 129.652344 210.269531 130.5 210.03125 131.339844 C 209.796875 132.183594 209.519531 133.023438 209.207031 133.859375 C 208.890625 134.695312 208.539062 135.527344 208.144531 136.355469 C 207.753906 137.183594 207.324219 138.003906 206.855469 138.820312 C 206.386719 139.636719 205.878906 140.445312 205.335938 141.246094 C 204.792969 142.050781 204.210938 142.84375 203.59375 143.632812 C 202.976562 144.421875 202.324219 145.199219 201.632812 145.96875 C 200.941406 146.742188 200.21875 147.503906 199.457031 148.253906 C 198.695312 149.007812 197.902344 149.746094 197.070312 150.480469 C 196.242188 151.210938 195.378906 151.929688 194.484375 152.640625 C 193.585938 153.347656 192.65625 154.042969 191.695312 154.730469 C 190.734375 155.414062 189.742188 156.085938 188.71875 156.746094 C 187.695312 157.40625 186.640625 158.050781 185.558594 158.679688 C 184.472656 159.3125 183.359375 159.929688 182.21875 160.53125 C 181.078125 161.136719 179.910156 161.722656 178.714844 162.296875 C 177.519531 162.867188 176.296875 163.425781 175.050781 163.964844 C 173.804688 164.507812 172.53125 165.03125 171.234375 165.539062 C 169.9375 166.046875 168.621094 166.539062 167.277344 167.011719 C 165.9375 167.484375 164.574219 167.941406 163.191406 168.378906 C 161.804688 168.816406 160.402344 169.238281 158.980469 169.640625 C 157.554688 170.042969 156.113281 170.425781 154.65625 170.789062 C 153.195312 171.152344 151.722656 171.5 150.230469 171.824219 C 148.742188 172.152344 147.234375 172.457031 145.714844 172.746094 C 144.195312 173.03125 142.664062 173.300781 141.121094 173.546875 C 139.578125 173.796875 138.023438 174.023438 136.457031 174.230469 C 134.890625 174.4375 133.316406 174.625 131.734375 174.789062 C 130.152344 174.957031 128.5625 175.101562 126.964844 175.226562 C 125.371094 175.351562 123.769531 175.457031 122.164062 175.539062 C 120.558594 175.625 118.949219 175.6875 117.335938 175.726562 C 115.726562 175.769531 114.113281 175.789062 112.5 175.789062 C 110.882812 175.789062 109.273438 175.769531 107.660156 175.726562 C 106.046875 175.6875 104.441406 175.625 102.832031 175.539062 C 101.226562 175.457031 99.625 175.351562 98.03125 175.226562 C 96.433594 175.101562 94.84375 174.957031 93.261719 174.789062 C 91.679688 174.625 90.105469 174.4375 88.539062 174.230469 C 86.976562 174.023438 85.421875 173.796875 83.875 173.546875 C 82.332031 173.300781 80.800781 173.03125 79.28125 172.746094 C 77.761719 172.457031 76.257812 172.152344 74.765625 171.824219 C 73.273438 171.5 71.800781 171.152344 70.339844 170.789062 C 68.882812 170.425781 67.441406 170.042969 66.019531 169.640625 C 64.59375 169.238281 63.191406 168.816406 61.808594 168.378906 C 60.421875 167.941406 59.058594 167.484375 57.71875 167.011719 C 56.375 166.539062 55.058594 166.046875 53.761719 165.539062 C 52.464844 165.03125 51.195312 164.507812 49.945312 163.964844 C 48.699219 163.425781 47.476562 162.867188 46.28125 162.296875 C 45.085938 161.722656 43.917969 161.136719 42.777344 160.53125 C 41.636719 159.929688 40.523438 159.3125 39.4375 158.679688 C 38.355469 158.050781 37.300781 157.40625 36.277344 156.746094 C 35.253906 156.085938 34.261719 155.414062 33.300781 154.730469 C 32.339844 154.042969 31.410156 153.347656 30.515625 152.640625 C 29.617188 151.929688 28.753906 151.210938 27.925781 150.480469 C 27.09375 149.746094 26.300781 149.007812 25.539062 148.253906 C 24.777344 147.503906 24.054688 146.742188 23.363281 145.96875 C 22.671875 145.199219 22.019531 144.421875 21.402344 143.632812 C 20.785156 142.84375 20.203125 142.050781 19.660156 141.246094 C 19.117188 140.445312 18.609375 139.636719 18.140625 138.820312 C 17.675781 138.003906 17.242188 137.183594 16.851562 136.355469 C 16.460938 135.527344 16.105469 134.695312 15.792969 133.859375 C 15.476562 133.023438 15.199219 132.183594 14.964844 131.339844 C 14.726562 130.5 14.53125 129.652344 14.371094 128.804688 C 14.214844 127.957031 14.09375 127.105469 14.015625 126.253906 C 13.9375 125.402344 13.898438 124.550781 13.898438 123.699219 C 13.898438 122.84375 13.9375 121.992188 14.015625 121.140625 C 14.09375 120.289062 14.214844 119.441406 14.371094 118.59375 C 14.53125 117.742188 14.726562 116.898438 14.964844 116.054688 C 15.199219 115.210938 15.476562 114.371094 15.792969 113.535156 C 16.105469 112.699219 16.460938 111.867188 16.851562 111.039062 C 17.242188 110.214844 17.675781 109.390625 18.140625 108.578125 C 18.609375 107.761719 19.117188 106.949219 19.660156 106.148438 C 20.203125 105.347656 20.785156 104.550781 21.402344 103.761719 C 22.019531 102.976562 22.671875 102.195312 23.363281 101.425781 C 24.054688 100.65625 24.777344 99.894531 25.539062 99.140625 C 26.300781 98.390625 27.09375 97.648438 27.925781 96.917969 C 28.753906 96.1875 29.617188 95.464844 30.515625 94.757812 C 31.410156 94.046875 32.339844 93.351562 33.300781 92.667969 C 34.261719 91.980469 35.253906 91.308594 36.277344 90.652344 C 37.300781 89.992188 38.355469 89.347656 39.4375 88.714844 C 40.523438 88.082031 41.636719 87.464844 42.777344 86.863281 C 43.917969 86.261719 45.085938 85.671875 46.28125 85.101562 C 47.476562 84.527344 48.699219 83.96875 49.945312 83.429688 C 51.195312 82.890625 52.464844 82.363281 53.761719 81.855469 C 55.058594 81.347656 56.375 80.859375 57.71875 80.382812 C 59.058594 79.910156 60.421875 79.453125 61.808594 79.015625 C 63.191406 78.578125 64.59375 78.15625 66.019531 77.757812 C 67.441406 77.355469 68.882812 76.972656 70.339844 76.605469 C 71.800781 76.242188 73.273438 75.898438 74.765625 75.570312 C 76.257812 75.246094 77.761719 74.9375 79.28125 74.648438 C 80.800781 74.363281 82.332031 74.097656 83.875 73.847656 C 85.421875 73.601562 86.976562 73.375 88.539062 73.167969 C 90.105469 72.960938 91.679688 72.773438 93.261719 72.605469 C 94.84375 72.441406 96.433594 72.292969 98.03125 72.167969 C 99.625 72.042969 101.226562 71.941406 102.832031 71.855469 C 104.441406 71.773438 106.046875 71.710938 107.660156 71.667969 C 109.273438 71.625 110.882812 71.605469 112.5 71.605469 C 114.113281 71.605469 115.726562 71.625 117.335938 71.667969 C 118.949219 71.710938 120.558594 71.773438 122.164062 71.855469 C 123.769531 71.941406 125.371094 72.042969 126.964844 72.167969 C 128.5625 72.292969 130.152344 72.441406 131.734375 72.605469 C 133.316406 72.773438 134.890625 72.960938 136.457031 73.167969 C 138.023438 73.375 139.578125 73.601562 141.121094 73.847656 C 142.664062 74.097656 144.195312 74.363281 145.714844 74.648438 C 147.234375 74.9375 148.742188 75.246094 150.230469 75.570312 C 151.722656 75.898438 153.195312 76.242188 154.65625 76.605469 C 156.113281 76.972656 157.554688 77.355469 158.980469 77.757812 C 160.402344 78.15625 161.804688 78.578125 163.191406 79.015625 C 164.574219 79.453125 165.9375 79.910156 167.277344 80.382812 C 168.621094 80.859375 169.9375 81.347656 171.234375 81.855469 C 172.53125 82.363281 173.804688 82.890625 175.050781 83.429688 C 176.296875 83.96875 177.519531 84.527344 178.714844 85.101562 C 179.910156 85.671875 181.078125 86.261719 182.21875 86.863281 C 183.359375 87.464844 184.472656 88.082031 185.558594 88.714844 C 186.640625 89.347656 187.695312 89.992188 188.71875 90.652344 C 189.742188 91.308594 190.734375 91.980469 191.695312 92.667969 C 192.65625 93.351562 193.585938 94.046875 194.484375 94.757812 C 195.378906 95.464844 196.242188 96.1875 197.070312 96.917969 C 197.902344 97.648438 198.695312 98.390625 199.457031 99.140625 C 200.21875 99.894531 200.941406 100.65625 201.632812 101.425781 C 202.324219 102.195312 202.976562 102.976562 203.59375 103.761719 C 204.210938 104.550781 204.792969 105.347656 205.335938 106.148438 C 205.878906 106.949219 206.386719 107.761719 206.855469 108.578125 C 207.324219 109.390625 207.753906 110.214844 208.144531 111.039062 C 208.539062 111.867188 208.890625 112.699219 209.207031 113.535156 C 209.519531 114.371094 209.796875 115.210938 210.03125 116.054688 C 210.269531 116.898438 210.46875 117.742188 210.625 118.59375 C 210.785156 119.441406 210.902344 120.289062 210.980469 121.140625 C 211.058594 121.992188 211.101562 122.84375 211.101562 123.699219 Z M 211.101562 123.699219 "/>
</clipPath>
<radialGradient id="radial0" gradientUnits="userSpaceOnUse" cx="0.299102" cy="-44.979641" fx="0.299102" fy="-44.979641" r="129.801356" gradientTransform="matrix(0.997596,0,0,1.002404,72.798812,135.012895)">
<stop offset="0" style="stop-color:rgb(99.725342%,99.772644%,99.839783%);stop-opacity:1;"/>
<stop offset="0.00390625" style="stop-color:rgb(99.176025%,99.319458%,99.520874%);stop-opacity:1;"/>
<stop offset="0.0078125" style="stop-color:rgb(98.628235%,98.866272%,99.201965%);stop-opacity:1;"/>
<stop offset="0.0117188" style="stop-color:rgb(98.078918%,98.413086%,98.883057%);stop-opacity:1;"/>
<stop offset="0.015625" style="stop-color:rgb(97.531128%,97.9599%,98.564148%);stop-opacity:1;"/>
<stop offset="0.0195312" style="stop-color:rgb(96.981812%,97.506714%,98.245239%);stop-opacity:1;"/>
<stop offset="0.0234375" style="stop-color:rgb(96.434021%,97.053528%,97.926331%);stop-opacity:1;"/>
<stop offset="0.0273438" style="stop-color:rgb(95.88623%,96.600342%,97.607422%);stop-opacity:1;"/>
<stop offset="0.03125" style="stop-color:rgb(95.336914%,96.147156%,97.288513%);stop-opacity:1;"/>
<stop offset="0.0351562" style="stop-color:rgb(94.789124%,95.69397%,96.97113%);stop-opacity:1;"/>
<stop offset="0.0390625" style="stop-color:rgb(94.239807%,95.240784%,96.652222%);stop-opacity:1;"/>
<stop offset="0.0429688" style="stop-color:rgb(93.692017%,94.787598%,96.333313%);stop-opacity:1;"/>
<stop offset="0.046875" style="stop-color:rgb(93.1427%,94.334412%,96.014404%);stop-opacity:1;"/>
<stop offset="0.0507812" style="stop-color:rgb(92.59491%,93.881226%,95.695496%);stop-opacity:1;"/>
<stop offset="0.0546875" style="stop-color:rgb(92.047119%,93.42804%,95.376587%);stop-opacity:1;"/>
<stop offset="0.0585938" style="stop-color:rgb(91.497803%,92.974854%,95.057678%);stop-opacity:1;"/>
<stop offset="0.0625" style="stop-color:rgb(90.950012%,92.521667%,94.73877%);stop-opacity:1;"/>
<stop offset="0.0664062" style="stop-color:rgb(90.400696%,92.068481%,94.419861%);stop-opacity:1;"/>
<stop offset="0.0703125" style="stop-color:rgb(89.852905%,91.615295%,94.100952%);stop-opacity:1;"/>
<stop offset="0.0742188" style="stop-color:rgb(89.303589%,91.162109%,93.783569%);stop-opacity:1;"/>
<stop offset="0.078125" style="stop-color:rgb(88.755798%,90.708923%,93.464661%);stop-opacity:1;"/>
<stop offset="0.0820312" style="stop-color:rgb(88.208008%,90.255737%,93.145752%);stop-opacity:1;"/>
<stop offset="0.0859375" style="stop-color:rgb(87.658691%,89.802551%,92.826843%);stop-opacity:1;"/>
<stop offset="0.0898438" style="stop-color:rgb(87.110901%,89.349365%,92.507935%);stop-opacity:1;"/>
<stop offset="0.09375" style="stop-color:rgb(86.561584%,88.897705%,92.189026%);stop-opacity:1;"/>
<stop offset="0.0976562" style="stop-color:rgb(86.013794%,88.444519%,91.870117%);stop-opacity:1;"/>
<stop offset="0.101562" style="stop-color:rgb(85.464478%,87.991333%,91.551208%);stop-opacity:1;"/>
<stop offset="0.105469" style="stop-color:rgb(84.916687%,87.538147%,91.2323%);stop-opacity:1;"/>
<stop offset="0.109375" style="stop-color:rgb(84.368896%,87.084961%,90.914917%);stop-opacity:1;"/>
<stop offset="0.113281" style="stop-color:rgb(83.81958%,86.631775%,90.596008%);stop-opacity:1;"/>
<stop offset="0.117188" style="stop-color:rgb(83.27179%,86.178589%,90.2771%);stop-opacity:1;"/>
<stop offset="0.121094" style="stop-color:rgb(82.722473%,85.725403%,89.958191%);stop-opacity:1;"/>
<stop offset="0.125" style="stop-color:rgb(82.174683%,85.272217%,89.639282%);stop-opacity:1;"/>
<stop offset="0.128906" style="stop-color:rgb(81.626892%,84.819031%,89.320374%);stop-opacity:1;"/>
<stop offset="0.132812" style="stop-color:rgb(81.077576%,84.365845%,89.001465%);stop-opacity:1;"/>
<stop offset="0.136719" style="stop-color:rgb(80.529785%,83.912659%,88.682556%);stop-opacity:1;"/>
<stop offset="0.140625" style="stop-color:rgb(79.980469%,83.459473%,88.363647%);stop-opacity:1;"/>
<stop offset="0.144531" style="stop-color:rgb(79.432678%,83.006287%,88.044739%);stop-opacity:1;"/>
<stop offset="0.148438" style="stop-color:rgb(78.883362%,82.553101%,87.727356%);stop-opacity:1;"/>
<stop offset="0.152344" style="stop-color:rgb(78.335571%,82.099915%,87.408447%);stop-opacity:1;"/>
<stop offset="0.15625" style="stop-color:rgb(77.787781%,81.646729%,87.089539%);stop-opacity:1;"/>
<stop offset="0.160156" style="stop-color:rgb(77.238464%,81.193542%,86.77063%);stop-opacity:1;"/>
<stop offset="0.164062" style="stop-color:rgb(76.690674%,80.740356%,86.451721%);stop-opacity:1;"/>
<stop offset="0.167969" style="stop-color:rgb(76.141357%,80.28717%,86.132812%);stop-opacity:1;"/>
<stop offset="0.171875" style="stop-color:rgb(75.593567%,79.833984%,85.813904%);stop-opacity:1;"/>
<stop offset="0.175781" style="stop-color:rgb(75.04425%,79.380798%,85.494995%);stop-opacity:1;"/>
<stop offset="0.179688" style="stop-color:rgb(74.49646%,78.927612%,85.176086%);stop-opacity:1;"/>
<stop offset="0.183594" style="stop-color:rgb(73.948669%,78.474426%,84.857178%);stop-opacity:1;"/>
<stop offset="0.1875" style="stop-color:rgb(73.399353%,78.02124%,84.539795%);stop-opacity:1;"/>
<stop offset="0.191406" style="stop-color:rgb(72.851562%,77.56958%,84.220886%);stop-opacity:1;"/>
<stop offset="0.195312" style="stop-color:rgb(72.302246%,77.116394%,83.901978%);stop-opacity:1;"/>
<stop offset="0.199219" style="stop-color:rgb(71.754456%,76.663208%,83.583069%);stop-opacity:1;"/>
<stop offset="0.203125" style="stop-color:rgb(71.205139%,76.210022%,83.26416%);stop-opacity:1;"/>
<stop offset="0.207031" style="stop-color:rgb(70.657349%,75.756836%,82.945251%);stop-opacity:1;"/>
<stop offset="0.210938" style="stop-color:rgb(70.109558%,75.30365%,82.626343%);stop-opacity:1;"/>
<stop offset="0.214844" style="stop-color:rgb(69.560242%,74.850464%,82.307434%);stop-opacity:1;"/>
<stop offset="0.21875" style="stop-color:rgb(69.012451%,74.397278%,81.988525%);stop-opacity:1;"/>
<stop offset="0.222656" style="stop-color:rgb(68.463135%,73.944092%,81.671143%);stop-opacity:1;"/>
<stop offset="0.226562" style="stop-color:rgb(67.915344%,73.490906%,81.352234%);stop-opacity:1;"/>
<stop offset="0.230469" style="stop-color:rgb(67.366028%,73.03772%,81.033325%);stop-opacity:1;"/>
<stop offset="0.234375" style="stop-color:rgb(66.818237%,72.584534%,80.714417%);stop-opacity:1;"/>
<stop offset="0.238281" style="stop-color:rgb(66.270447%,72.131348%,80.395508%);stop-opacity:1;"/>
<stop offset="0.242188" style="stop-color:rgb(65.72113%,71.678162%,80.076599%);stop-opacity:1;"/>
<stop offset="0.246094" style="stop-color:rgb(65.17334%,71.224976%,79.75769%);stop-opacity:1;"/>
<stop offset="0.25" style="stop-color:rgb(64.624023%,70.77179%,79.438782%);stop-opacity:1;"/>
<stop offset="0.253906" style="stop-color:rgb(64.076233%,70.318604%,79.119873%);stop-opacity:1;"/>
<stop offset="0.257812" style="stop-color:rgb(63.528442%,69.865417%,78.800964%);stop-opacity:1;"/>
<stop offset="0.261719" style="stop-color:rgb(62.979126%,69.412231%,78.483582%);stop-opacity:1;"/>
<stop offset="0.265625" style="stop-color:rgb(62.431335%,68.959045%,78.164673%);stop-opacity:1;"/>
<stop offset="0.269531" style="stop-color:rgb(61.882019%,68.505859%,77.845764%);stop-opacity:1;"/>
<stop offset="0.273438" style="stop-color:rgb(61.334229%,68.052673%,77.526855%);stop-opacity:1;"/>
<stop offset="0.277344" style="stop-color:rgb(60.784912%,67.599487%,77.207947%);stop-opacity:1;"/>
<stop offset="0.28125" style="stop-color:rgb(60.237122%,67.146301%,76.889038%);stop-opacity:1;"/>
<stop offset="0.285156" style="stop-color:rgb(59.689331%,66.693115%,76.570129%);stop-opacity:1;"/>
<stop offset="0.289062" style="stop-color:rgb(59.140015%,66.241455%,76.251221%);stop-opacity:1;"/>
<stop offset="0.292969" style="stop-color:rgb(58.592224%,65.788269%,75.932312%);stop-opacity:1;"/>
<stop offset="0.296875" style="stop-color:rgb(58.042908%,65.335083%,75.614929%);stop-opacity:1;"/>
<stop offset="0.300781" style="stop-color:rgb(57.495117%,64.881897%,75.296021%);stop-opacity:1;"/>
<stop offset="0.304688" style="stop-color:rgb(56.945801%,64.428711%,74.977112%);stop-opacity:1;"/>
<stop offset="0.308594" style="stop-color:rgb(56.39801%,63.975525%,74.658203%);stop-opacity:1;"/>
<stop offset="0.3125" style="stop-color:rgb(55.85022%,63.522339%,74.339294%);stop-opacity:1;"/>
<stop offset="0.316406" style="stop-color:rgb(55.300903%,63.069153%,74.020386%);stop-opacity:1;"/>
<stop offset="0.320312" style="stop-color:rgb(54.753113%,62.615967%,73.701477%);stop-opacity:1;"/>
<stop offset="0.324219" style="stop-color:rgb(54.203796%,62.162781%,73.382568%);stop-opacity:1;"/>
<stop offset="0.328125" style="stop-color:rgb(53.656006%,61.709595%,73.06366%);stop-opacity:1;"/>
<stop offset="0.332031" style="stop-color:rgb(53.106689%,61.256409%,72.744751%);stop-opacity:1;"/>
<stop offset="0.335938" style="stop-color:rgb(52.558899%,60.803223%,72.427368%);stop-opacity:1;"/>
<stop offset="0.339844" style="stop-color:rgb(52.011108%,60.350037%,72.108459%);stop-opacity:1;"/>
<stop offset="0.34375" style="stop-color:rgb(51.461792%,59.896851%,71.789551%);stop-opacity:1;"/>
<stop offset="0.347656" style="stop-color:rgb(50.914001%,59.443665%,71.470642%);stop-opacity:1;"/>
<stop offset="0.351562" style="stop-color:rgb(50.364685%,58.990479%,71.151733%);stop-opacity:1;"/>
<stop offset="0.355469" style="stop-color:rgb(49.816895%,58.537292%,70.832825%);stop-opacity:1;"/>
<stop offset="0.359375" style="stop-color:rgb(49.267578%,58.084106%,70.513916%);stop-opacity:1;"/>
<stop offset="0.363281" style="stop-color:rgb(48.719788%,57.63092%,70.195007%);stop-opacity:1;"/>
<stop offset="0.367188" style="stop-color:rgb(48.171997%,57.177734%,69.876099%);stop-opacity:1;"/>
<stop offset="0.371094" style="stop-color:rgb(47.622681%,56.724548%,69.55719%);stop-opacity:1;"/>
<stop offset="0.375" style="stop-color:rgb(47.07489%,56.271362%,69.239807%);stop-opacity:1;"/>
<stop offset="0.378906" style="stop-color:rgb(46.525574%,55.818176%,68.920898%);stop-opacity:1;"/>
<stop offset="0.382812" style="stop-color:rgb(45.977783%,55.36499%,68.60199%);stop-opacity:1;"/>
<stop offset="0.386719" style="stop-color:rgb(45.429993%,54.91333%,68.283081%);stop-opacity:1;"/>
<stop offset="0.390625" style="stop-color:rgb(44.880676%,54.460144%,67.964172%);stop-opacity:1;"/>
<stop offset="0.394531" style="stop-color:rgb(44.332886%,54.006958%,67.645264%);stop-opacity:1;"/>
<stop offset="0.398438" style="stop-color:rgb(43.783569%,53.553772%,67.326355%);stop-opacity:1;"/>
<stop offset="0.402344" style="stop-color:rgb(43.235779%,53.100586%,67.007446%);stop-opacity:1;"/>
<stop offset="0.40625" style="stop-color:rgb(42.686462%,52.6474%,66.688538%);stop-opacity:1;"/>
<stop offset="0.410156" style="stop-color:rgb(42.138672%,52.194214%,66.371155%);stop-opacity:1;"/>
<stop offset="0.414062" style="stop-color:rgb(41.590881%,51.741028%,66.052246%);stop-opacity:1;"/>
<stop offset="0.417969" style="stop-color:rgb(41.041565%,51.287842%,65.733337%);stop-opacity:1;"/>
<stop offset="0.421875" style="stop-color:rgb(40.493774%,50.834656%,65.414429%);stop-opacity:1;"/>
<stop offset="0.425781" style="stop-color:rgb(39.944458%,50.38147%,65.09552%);stop-opacity:1;"/>
<stop offset="0.429688" style="stop-color:rgb(39.396667%,49.928284%,64.776611%);stop-opacity:1;"/>
<stop offset="0.433594" style="stop-color:rgb(38.847351%,49.475098%,64.457703%);stop-opacity:1;"/>
<stop offset="0.4375" style="stop-color:rgb(38.299561%,49.021912%,64.138794%);stop-opacity:1;"/>
<stop offset="0.441406" style="stop-color:rgb(37.75177%,48.568726%,63.819885%);stop-opacity:1;"/>
<stop offset="0.445312" style="stop-color:rgb(37.202454%,48.11554%,63.500977%);stop-opacity:1;"/>
<stop offset="0.449219" style="stop-color:rgb(36.654663%,47.662354%,63.183594%);stop-opacity:1;"/>
<stop offset="0.453125" style="stop-color:rgb(36.105347%,47.209167%,62.864685%);stop-opacity:1;"/>
<stop offset="0.457031" style="stop-color:rgb(35.557556%,46.755981%,62.545776%);stop-opacity:1;"/>
<stop offset="0.460938" style="stop-color:rgb(35.00824%,46.302795%,62.226868%);stop-opacity:1;"/>
<stop offset="0.464844" style="stop-color:rgb(34.460449%,45.849609%,61.907959%);stop-opacity:1;"/>
<stop offset="0.46875" style="stop-color:rgb(33.912659%,45.396423%,61.58905%);stop-opacity:1;"/>
<stop offset="0.472656" style="stop-color:rgb(33.363342%,44.943237%,61.270142%);stop-opacity:1;"/>
<stop offset="0.476562" style="stop-color:rgb(32.815552%,44.490051%,60.951233%);stop-opacity:1;"/>
<stop offset="0.480469" style="stop-color:rgb(32.266235%,44.036865%,60.632324%);stop-opacity:1;"/>
<stop offset="0.484375" style="stop-color:rgb(31.718445%,43.585205%,60.314941%);stop-opacity:1;"/>
<stop offset="0.488281" style="stop-color:rgb(31.170654%,43.132019%,59.996033%);stop-opacity:1;"/>
<stop offset="0.492188" style="stop-color:rgb(30.621338%,42.678833%,59.677124%);stop-opacity:1;"/>
<stop offset="0.496094" style="stop-color:rgb(30.073547%,42.225647%,59.358215%);stop-opacity:1;"/>
<stop offset="0.5" style="stop-color:rgb(29.736328%,41.882324%,59.016418%);stop-opacity:1;"/>
<stop offset="0.503906" style="stop-color:rgb(29.60968%,41.648865%,58.651733%);stop-opacity:1;"/>
<stop offset="0.507812" style="stop-color:rgb(29.484558%,41.416931%,58.287048%);stop-opacity:1;"/>
<stop offset="0.511719" style="stop-color:rgb(29.359436%,41.183472%,57.922363%);stop-opacity:1;"/>
<stop offset="0.515625" style="stop-color:rgb(29.232788%,40.951538%,57.556152%);stop-opacity:1;"/>
<stop offset="0.519531" style="stop-color:rgb(29.107666%,40.718079%,57.191467%);stop-opacity:1;"/>
<stop offset="0.523438" style="stop-color:rgb(28.981018%,40.486145%,56.826782%);stop-opacity:1;"/>
<stop offset="0.527344" style="stop-color:rgb(28.855896%,40.252686%,56.462097%);stop-opacity:1;"/>
<stop offset="0.53125" style="stop-color:rgb(28.729248%,40.019226%,56.097412%);stop-opacity:1;"/>
<stop offset="0.535156" style="stop-color:rgb(28.604126%,39.787292%,55.732727%);stop-opacity:1;"/>
<stop offset="0.539062" style="stop-color:rgb(28.477478%,39.553833%,55.368042%);stop-opacity:1;"/>
<stop offset="0.542969" style="stop-color:rgb(28.352356%,39.321899%,55.003357%);stop-opacity:1;"/>
<stop offset="0.546875" style="stop-color:rgb(28.227234%,39.08844%,54.638672%);stop-opacity:1;"/>
<stop offset="0.550781" style="stop-color:rgb(28.100586%,38.856506%,54.272461%);stop-opacity:1;"/>
<stop offset="0.554688" style="stop-color:rgb(27.975464%,38.623047%,53.907776%);stop-opacity:1;"/>
<stop offset="0.558594" style="stop-color:rgb(27.848816%,38.389587%,53.543091%);stop-opacity:1;"/>
<stop offset="0.5625" style="stop-color:rgb(27.723694%,38.157654%,53.178406%);stop-opacity:1;"/>
<stop offset="0.566406" style="stop-color:rgb(27.597046%,37.924194%,52.813721%);stop-opacity:1;"/>
<stop offset="0.570312" style="stop-color:rgb(27.471924%,37.692261%,52.449036%);stop-opacity:1;"/>
<stop offset="0.574219" style="stop-color:rgb(27.346802%,37.458801%,52.084351%);stop-opacity:1;"/>
<stop offset="0.578125" style="stop-color:rgb(27.220154%,37.226868%,51.719666%);stop-opacity:1;"/>
<stop offset="0.582031" style="stop-color:rgb(27.095032%,36.993408%,51.35498%);stop-opacity:1;"/>
<stop offset="0.585938" style="stop-color:rgb(26.968384%,36.759949%,50.990295%);stop-opacity:1;"/>
<stop offset="0.589844" style="stop-color:rgb(26.843262%,36.528015%,50.624084%);stop-opacity:1;"/>
<stop offset="0.59375" style="stop-color:rgb(26.716614%,36.294556%,50.259399%);stop-opacity:1;"/>
<stop offset="0.597656" style="stop-color:rgb(26.591492%,36.062622%,49.894714%);stop-opacity:1;"/>
<stop offset="0.601562" style="stop-color:rgb(26.46637%,35.829163%,49.530029%);stop-opacity:1;"/>
<stop offset="0.605469" style="stop-color:rgb(26.339722%,35.595703%,49.165344%);stop-opacity:1;"/>
<stop offset="0.609375" style="stop-color:rgb(26.2146%,35.36377%,48.800659%);stop-opacity:1;"/>
<stop offset="0.613281" style="stop-color:rgb(26.087952%,35.13031%,48.435974%);stop-opacity:1;"/>
<stop offset="0.617188" style="stop-color:rgb(25.96283%,34.898376%,48.071289%);stop-opacity:1;"/>
<stop offset="0.621094" style="stop-color:rgb(25.836182%,34.664917%,47.706604%);stop-opacity:1;"/>
<stop offset="0.625" style="stop-color:rgb(25.71106%,34.432983%,47.340393%);stop-opacity:1;"/>
<stop offset="0.628906" style="stop-color:rgb(25.585938%,34.199524%,46.975708%);stop-opacity:1;"/>
<stop offset="0.632812" style="stop-color:rgb(25.45929%,33.966064%,46.611023%);stop-opacity:1;"/>
<stop offset="0.636719" style="stop-color:rgb(25.334167%,33.734131%,46.246338%);stop-opacity:1;"/>
<stop offset="0.640625" style="stop-color:rgb(25.20752%,33.500671%,45.881653%);stop-opacity:1;"/>
<stop offset="0.644531" style="stop-color:rgb(25.082397%,33.268738%,45.516968%);stop-opacity:1;"/>
<stop offset="0.648438" style="stop-color:rgb(24.95575%,33.035278%,45.152283%);stop-opacity:1;"/>
<stop offset="0.652344" style="stop-color:rgb(24.830627%,32.803345%,44.787598%);stop-opacity:1;"/>
<stop offset="0.65625" style="stop-color:rgb(24.705505%,32.569885%,44.422913%);stop-opacity:1;"/>
<stop offset="0.660156" style="stop-color:rgb(24.578857%,32.336426%,44.058228%);stop-opacity:1;"/>
<stop offset="0.664062" style="stop-color:rgb(24.453735%,32.104492%,43.692017%);stop-opacity:1;"/>
<stop offset="0.667969" style="stop-color:rgb(24.327087%,31.871033%,43.327332%);stop-opacity:1;"/>
<stop offset="0.671875" style="stop-color:rgb(24.201965%,31.639099%,42.962646%);stop-opacity:1;"/>
<stop offset="0.675781" style="stop-color:rgb(24.075317%,31.40564%,42.597961%);stop-opacity:1;"/>
<stop offset="0.679688" style="stop-color:rgb(23.950195%,31.173706%,42.233276%);stop-opacity:1;"/>
<stop offset="0.683594" style="stop-color:rgb(23.823547%,30.940247%,41.868591%);stop-opacity:1;"/>
<stop offset="0.6875" style="stop-color:rgb(23.698425%,30.706787%,41.503906%);stop-opacity:1;"/>
<stop offset="0.691406" style="stop-color:rgb(23.573303%,30.474854%,41.139221%);stop-opacity:1;"/>
<stop offset="0.695312" style="stop-color:rgb(23.446655%,30.241394%,40.774536%);stop-opacity:1;"/>
<stop offset="0.699219" style="stop-color:rgb(23.321533%,30.00946%,40.409851%);stop-opacity:1;"/>
<stop offset="0.703125" style="stop-color:rgb(23.194885%,29.776001%,40.04364%);stop-opacity:1;"/>
<stop offset="0.707031" style="stop-color:rgb(23.069763%,29.544067%,39.678955%);stop-opacity:1;"/>
<stop offset="0.710938" style="stop-color:rgb(22.943115%,29.310608%,39.31427%);stop-opacity:1;"/>
<stop offset="0.714844" style="stop-color:rgb(22.817993%,29.077148%,38.949585%);stop-opacity:1;"/>
<stop offset="0.71875" style="stop-color:rgb(22.692871%,28.845215%,38.5849%);stop-opacity:1;"/>
<stop offset="0.722656" style="stop-color:rgb(22.566223%,28.611755%,38.220215%);stop-opacity:1;"/>
<stop offset="0.726562" style="stop-color:rgb(22.441101%,28.379822%,37.85553%);stop-opacity:1;"/>
<stop offset="0.730469" style="stop-color:rgb(22.314453%,28.146362%,37.490845%);stop-opacity:1;"/>
<stop offset="0.734375" style="stop-color:rgb(22.189331%,27.912903%,37.12616%);stop-opacity:1;"/>
<stop offset="0.738281" style="stop-color:rgb(22.062683%,27.680969%,36.759949%);stop-opacity:1;"/>
<stop offset="0.742188" style="stop-color:rgb(21.937561%,27.44751%,36.395264%);stop-opacity:1;"/>
<stop offset="0.746094" style="stop-color:rgb(21.812439%,27.215576%,36.030579%);stop-opacity:1;"/>
<stop offset="0.75" style="stop-color:rgb(21.685791%,26.982117%,35.665894%);stop-opacity:1;"/>
<stop offset="0.753906" style="stop-color:rgb(21.560669%,26.750183%,35.301208%);stop-opacity:1;"/>
<stop offset="0.757812" style="stop-color:rgb(21.434021%,26.516724%,34.936523%);stop-opacity:1;"/>
<stop offset="0.761719" style="stop-color:rgb(21.308899%,26.283264%,34.571838%);stop-opacity:1;"/>
<stop offset="0.765625" style="stop-color:rgb(21.182251%,26.051331%,34.207153%);stop-opacity:1;"/>
<stop offset="0.769531" style="stop-color:rgb(21.057129%,25.817871%,33.842468%);stop-opacity:1;"/>
<stop offset="0.773438" style="stop-color:rgb(20.932007%,25.585938%,33.477783%);stop-opacity:1;"/>
<stop offset="0.777344" style="stop-color:rgb(20.805359%,25.352478%,33.111572%);stop-opacity:1;"/>
<stop offset="0.78125" style="stop-color:rgb(20.680237%,25.120544%,32.746887%);stop-opacity:1;"/>
<stop offset="0.785156" style="stop-color:rgb(20.553589%,24.887085%,32.382202%);stop-opacity:1;"/>
<stop offset="0.789062" style="stop-color:rgb(20.428467%,24.653625%,32.017517%);stop-opacity:1;"/>
<stop offset="0.792969" style="stop-color:rgb(20.301819%,24.421692%,31.652832%);stop-opacity:1;"/>
<stop offset="0.796875" style="stop-color:rgb(20.176697%,24.188232%,31.288147%);stop-opacity:1;"/>
<stop offset="0.800781" style="stop-color:rgb(20.051575%,23.956299%,30.923462%);stop-opacity:1;"/>
<stop offset="0.804688" style="stop-color:rgb(19.924927%,23.722839%,30.558777%);stop-opacity:1;"/>
<stop offset="0.808594" style="stop-color:rgb(19.799805%,23.490906%,30.194092%);stop-opacity:1;"/>
<stop offset="0.8125" style="stop-color:rgb(19.673157%,23.257446%,29.827881%);stop-opacity:1;"/>
<stop offset="0.816406" style="stop-color:rgb(19.548035%,23.023987%,29.463196%);stop-opacity:1;"/>
<stop offset="0.820312" style="stop-color:rgb(19.421387%,22.792053%,29.098511%);stop-opacity:1;"/>
<stop offset="0.824219" style="stop-color:rgb(19.296265%,22.558594%,28.733826%);stop-opacity:1;"/>
<stop offset="0.828125" style="stop-color:rgb(19.171143%,22.32666%,28.369141%);stop-opacity:1;"/>
<stop offset="0.832031" style="stop-color:rgb(19.044495%,22.093201%,28.004456%);stop-opacity:1;"/>
<stop offset="0.835938" style="stop-color:rgb(18.919373%,21.861267%,27.639771%);stop-opacity:1;"/>
<stop offset="0.839844" style="stop-color:rgb(18.792725%,21.627808%,27.275085%);stop-opacity:1;"/>
<stop offset="0.84375" style="stop-color:rgb(18.667603%,21.394348%,26.9104%);stop-opacity:1;"/>
<stop offset="0.847656" style="stop-color:rgb(18.540955%,21.162415%,26.545715%);stop-opacity:1;"/>
<stop offset="0.851562" style="stop-color:rgb(18.415833%,20.928955%,26.179504%);stop-opacity:1;"/>
<stop offset="0.855469" style="stop-color:rgb(18.289185%,20.697021%,25.814819%);stop-opacity:1;"/>
<stop offset="0.859375" style="stop-color:rgb(18.164062%,20.463562%,25.450134%);stop-opacity:1;"/>
<stop offset="0.863281" style="stop-color:rgb(18.03894%,20.230103%,25.085449%);stop-opacity:1;"/>
<stop offset="0.867188" style="stop-color:rgb(17.912292%,19.998169%,24.720764%);stop-opacity:1;"/>
<stop offset="0.871094" style="stop-color:rgb(17.78717%,19.764709%,24.356079%);stop-opacity:1;"/>
<stop offset="0.875" style="stop-color:rgb(17.660522%,19.532776%,23.991394%);stop-opacity:1;"/>
<stop offset="0.878906" style="stop-color:rgb(17.5354%,19.299316%,23.626709%);stop-opacity:1;"/>
<stop offset="0.882812" style="stop-color:rgb(17.408752%,19.067383%,23.262024%);stop-opacity:1;"/>
<stop offset="0.886719" style="stop-color:rgb(17.28363%,18.833923%,22.897339%);stop-opacity:1;"/>
<stop offset="0.890625" style="stop-color:rgb(17.158508%,18.600464%,22.531128%);stop-opacity:1;"/>
<stop offset="0.894531" style="stop-color:rgb(17.03186%,18.36853%,22.166443%);stop-opacity:1;"/>
<stop offset="0.898438" style="stop-color:rgb(16.906738%,18.135071%,21.801758%);stop-opacity:1;"/>
<stop offset="0.902344" style="stop-color:rgb(16.78009%,17.903137%,21.437073%);stop-opacity:1;"/>
<stop offset="0.90625" style="stop-color:rgb(16.654968%,17.669678%,21.072388%);stop-opacity:1;"/>
<stop offset="0.910156" style="stop-color:rgb(16.52832%,17.437744%,20.707703%);stop-opacity:1;"/>
<stop offset="0.914062" style="stop-color:rgb(16.403198%,17.204285%,20.343018%);stop-opacity:1;"/>
<stop offset="0.917969" style="stop-color:rgb(16.278076%,16.970825%,19.978333%);stop-opacity:1;"/>
<stop offset="0.921875" style="stop-color:rgb(16.151428%,16.738892%,19.613647%);stop-opacity:1;"/>
<stop offset="0.925781" style="stop-color:rgb(16.026306%,16.505432%,19.247437%);stop-opacity:1;"/>
<stop offset="0.929688" style="stop-color:rgb(15.899658%,16.273499%,18.882751%);stop-opacity:1;"/>
<stop offset="0.933594" style="stop-color:rgb(15.774536%,16.040039%,18.518066%);stop-opacity:1;"/>
<stop offset="0.9375" style="stop-color:rgb(15.647888%,15.808105%,18.153381%);stop-opacity:1;"/>
<stop offset="0.941406" style="stop-color:rgb(15.522766%,15.574646%,17.788696%);stop-opacity:1;"/>
<stop offset="0.945312" style="stop-color:rgb(15.397644%,15.341187%,17.424011%);stop-opacity:1;"/>
<stop offset="0.949219" style="stop-color:rgb(15.270996%,15.109253%,17.059326%);stop-opacity:1;"/>
<stop offset="0.953125" style="stop-color:rgb(15.145874%,14.875793%,16.694641%);stop-opacity:1;"/>
<stop offset="0.957031" style="stop-color:rgb(15.019226%,14.64386%,16.329956%);stop-opacity:1;"/>
<stop offset="0.960938" style="stop-color:rgb(14.894104%,14.4104%,15.965271%);stop-opacity:1;"/>
<stop offset="0.964844" style="stop-color:rgb(14.767456%,14.178467%,15.59906%);stop-opacity:1;"/>
<stop offset="0.96875" style="stop-color:rgb(14.642334%,13.945007%,15.234375%);stop-opacity:1;"/>
<stop offset="0.972656" style="stop-color:rgb(14.517212%,13.711548%,14.86969%);stop-opacity:1;"/>
<stop offset="0.976562" style="stop-color:rgb(14.390564%,13.479614%,14.505005%);stop-opacity:1;"/>
<stop offset="0.980469" style="stop-color:rgb(14.265442%,13.246155%,14.14032%);stop-opacity:1;"/>
<stop offset="0.984375" style="stop-color:rgb(14.138794%,13.014221%,13.775635%);stop-opacity:1;"/>
<stop offset="0.988281" style="stop-color:rgb(14.013672%,12.780762%,13.41095%);stop-opacity:1;"/>
<stop offset="0.992188" style="stop-color:rgb(13.887024%,12.547302%,13.046265%);stop-opacity:1;"/>
<stop offset="0.996094" style="stop-color:rgb(13.761902%,12.315369%,12.68158%);stop-opacity:1;"/>
<stop offset="1" style="stop-color:rgb(13.699341%,12.199402%,12.5%);stop-opacity:1;"/>
</radialGradient>
</defs>
<g id="surface1">
<g clip-path="url(#clip1)" clip-rule="nonzero">
<g clip-path="url(#clip2)" clip-rule="nonzero">
<path style=" stroke:none;fill-rule:nonzero;fill:url(#radial0);" d="M 13.898438 71.605469 L 13.898438 175.652344 L 211.042969 175.652344 L 211.042969 71.605469 Z M 13.898438 71.605469 "/>
</g>
</g>
<path style=" stroke:none;fill-rule:nonzero;fill:rgb(38.038635%,50.588989%,71.369934%);fill-opacity:1;" d="M 207.25 123.699219 C 207.25 124.488281 207.210938 125.277344 207.132812 126.0625 C 207.058594 126.851562 206.945312 127.640625 206.792969 128.425781 C 206.640625 129.210938 206.449219 129.992188 206.222656 130.773438 C 205.996094 131.554688 205.730469 132.332031 205.429688 133.105469 C 205.125 133.878906 204.785156 134.648438 204.410156 135.414062 C 204.03125 136.179688 203.617188 136.941406 203.167969 137.695312 C 202.71875 138.453125 202.230469 139.199219 201.710938 139.945312 C 201.1875 140.6875 200.628906 141.421875 200.035156 142.152344 C 199.441406 142.882812 198.8125 143.601562 198.152344 144.316406 C 197.488281 145.027344 196.792969 145.734375 196.058594 146.429688 C 195.328125 147.125 194.566406 147.8125 193.769531 148.488281 C 192.972656 149.167969 192.140625 149.832031 191.28125 150.488281 C 190.417969 151.144531 189.527344 151.789062 188.601562 152.425781 C 187.679688 153.058594 186.726562 153.679688 185.742188 154.289062 C 184.757812 154.898438 183.746094 155.496094 182.703125 156.082031 C 181.664062 156.667969 180.59375 157.238281 179.496094 157.796875 C 178.398438 158.355469 177.277344 158.898438 176.128906 159.429688 C 174.980469 159.957031 173.804688 160.472656 172.605469 160.972656 C 171.410156 161.476562 170.1875 161.960938 168.941406 162.429688 C 167.695312 162.902344 166.429688 163.355469 165.136719 163.792969 C 163.847656 164.230469 162.539062 164.652344 161.210938 165.058594 C 159.878906 165.464844 158.53125 165.855469 157.164062 166.226562 C 155.796875 166.597656 154.410156 166.953125 153.007812 167.289062 C 151.605469 167.628906 150.191406 167.949219 148.757812 168.25 C 147.324219 168.550781 145.878906 168.835938 144.417969 169.101562 C 142.957031 169.367188 141.488281 169.613281 140.003906 169.84375 C 138.519531 170.074219 137.023438 170.285156 135.519531 170.476562 C 134.015625 170.667969 132.503906 170.839844 130.984375 170.992188 C 129.460938 171.148438 127.933594 171.28125 126.402344 171.398438 C 124.867188 171.515625 123.328125 171.609375 121.785156 171.6875 C 120.242188 171.765625 118.695312 171.824219 117.148438 171.863281 C 115.597656 171.902344 114.050781 171.921875 112.5 171.921875 C 110.949219 171.921875 109.398438 171.902344 107.847656 171.863281 C 106.300781 171.824219 104.753906 171.765625 103.210938 171.6875 C 101.667969 171.609375 100.128906 171.515625 98.59375 171.398438 C 97.0625 171.28125 95.535156 171.148438 94.011719 170.992188 C 92.492188 170.839844 90.980469 170.667969 89.476562 170.476562 C 87.972656 170.285156 86.476562 170.074219 84.992188 169.84375 C 83.511719 169.613281 82.039062 169.367188 80.578125 169.101562 C 79.117188 168.835938 77.671875 168.550781 76.238281 168.25 C 74.804688 167.949219 73.390625 167.628906 71.988281 167.289062 C 70.585938 166.953125 69.199219 166.597656 67.832031 166.226562 C 66.464844 165.855469 65.117188 165.464844 63.785156 165.058594 C 62.457031 164.652344 61.148438 164.230469 59.859375 163.792969 C 58.570312 163.355469 57.300781 162.902344 56.054688 162.429688 C 54.808594 161.960938 53.589844 161.476562 52.390625 160.972656 C 51.191406 160.472656 50.015625 159.957031 48.867188 159.429688 C 47.71875 158.898438 46.597656 158.355469 45.5 157.796875 C 44.402344 157.238281 43.335938 156.667969 42.292969 156.082031 C 41.25 155.496094 40.238281 154.898438 39.253906 154.289062 C 38.273438 153.679688 37.316406 153.058594 36.394531 152.425781 C 35.46875 151.789062 34.578125 151.144531 33.714844 150.488281 C 32.855469 149.832031 32.027344 149.167969 31.226562 148.488281 C 30.429688 147.8125 29.667969 147.125 28.9375 146.429688 C 28.207031 145.734375 27.507812 145.027344 26.84375 144.316406 C 26.183594 143.601562 25.554688 142.882812 24.960938 142.152344 C 24.367188 141.421875 23.808594 140.6875 23.285156 139.945312 C 22.765625 139.199219 22.277344 138.453125 21.828125 137.695312 C 21.378906 136.941406 20.964844 136.179688 20.585938 135.414062 C 20.210938 134.648438 19.871094 133.878906 19.570312 133.105469 C 19.265625 132.332031 19 131.554688 18.773438 130.773438 C 18.546875 129.992188 18.355469 129.210938 18.203125 128.425781 C 18.050781 127.640625 17.9375 126.851562 17.863281 126.0625 C 17.785156 125.277344 17.75 124.488281 17.75 123.699219 C 17.75 122.910156 17.785156 122.121094 17.863281 121.332031 C 17.9375 120.542969 18.050781 119.757812 18.203125 118.972656 C 18.355469 118.1875 18.546875 117.402344 18.773438 116.621094 C 19 115.839844 19.265625 115.0625 19.570312 114.289062 C 19.871094 113.515625 20.210938 112.746094 20.585938 111.980469 C 20.964844 111.214844 21.378906 110.453125 21.828125 109.699219 C 22.277344 108.945312 22.765625 108.195312 23.285156 107.453125 C 23.808594 106.710938 24.367188 105.972656 24.960938 105.242188 C 25.554688 104.515625 26.183594 103.792969 26.84375 103.082031 C 27.507812 102.367188 28.207031 101.660156 28.9375 100.964844 C 29.667969 100.269531 30.429688 99.582031 31.226562 98.90625 C 32.027344 98.230469 32.855469 97.5625 33.714844 96.90625 C 34.578125 96.25 35.46875 95.605469 36.394531 94.972656 C 37.316406 94.339844 38.273438 93.714844 39.253906 93.105469 C 40.238281 92.496094 41.25 91.898438 42.292969 91.3125 C 43.335938 90.730469 44.402344 90.15625 45.5 89.597656 C 46.597656 89.042969 47.71875 88.496094 48.867188 87.96875 C 50.015625 87.4375 51.191406 86.921875 52.390625 86.421875 C 53.589844 85.921875 54.808594 85.433594 56.054688 84.964844 C 57.300781 84.496094 58.570312 84.039062 59.859375 83.601562 C 61.148438 83.164062 62.457031 82.742188 63.785156 82.335938 C 65.117188 81.929688 66.464844 81.542969 67.832031 81.167969 C 69.199219 80.796875 70.585938 80.441406 71.988281 80.105469 C 73.390625 79.769531 74.804688 79.449219 76.238281 79.144531 C 77.671875 78.84375 79.117188 78.558594 80.578125 78.292969 C 82.039062 78.027344 83.511719 77.78125 84.992188 77.550781 C 86.476562 77.324219 87.972656 77.113281 89.476562 76.921875 C 90.980469 76.730469 92.492188 76.554688 94.011719 76.402344 C 95.535156 76.246094 97.0625 76.113281 98.59375 75.996094 C 100.128906 75.882812 101.667969 75.785156 103.210938 75.707031 C 104.753906 75.628906 106.300781 75.570312 107.847656 75.535156 C 109.398438 75.496094 110.949219 75.476562 112.5 75.476562 C 114.050781 75.476562 115.597656 75.496094 117.148438 75.535156 C 118.695312 75.570312 120.242188 75.628906 121.785156 75.707031 C 123.328125 75.785156 124.867188 75.882812 126.402344 75.996094 C 127.933594 76.113281 129.460938 76.246094 130.984375 76.402344 C 132.503906 76.554688 134.015625 76.730469 135.519531 76.921875 C 137.023438 77.113281 138.519531 77.324219 140.003906 77.550781 C 141.488281 77.78125 142.957031 78.027344 144.417969 78.292969 C 145.878906 78.558594 147.324219 78.84375 148.757812 79.144531 C 150.191406 79.449219 151.605469 79.769531 153.007812 80.105469 C 154.410156 80.441406 155.796875 80.796875 157.164062 81.167969 C 158.53125 81.542969 159.878906 81.929688 161.210938 82.335938 C 162.539062 82.742188 163.847656 83.164062 165.136719 83.601562 C 166.429688 84.039062 167.695312 84.496094 168.941406 84.964844 C 170.1875 85.433594 171.410156 85.921875 172.605469 86.421875 C 173.804688 86.921875 174.980469 87.4375 176.128906 87.96875 C 177.277344 88.496094 178.398438 89.042969 179.496094 89.597656 C 180.59375 90.15625 181.664062 90.730469 182.703125 91.3125 C 183.746094 91.898438 184.757812 92.496094 185.742188 93.105469 C 186.726562 93.714844 187.679688 94.339844 188.601562 94.972656 C 189.527344 95.605469 190.417969 96.25 191.28125 96.90625 C 192.140625 97.5625 192.972656 98.230469 193.769531 98.90625 C 194.566406 99.582031 195.328125 100.269531 196.058594 100.964844 C 196.792969 101.660156 197.488281 102.367188 198.152344 103.082031 C 198.8125 103.792969 199.441406 104.515625 200.035156 105.242188 C 200.628906 105.972656 201.1875 106.710938 201.710938 107.453125 C 202.230469 108.195312 202.71875 108.945312 203.167969 109.699219 C 203.617188 110.453125 204.03125 111.214844 204.410156 111.980469 C 204.785156 112.746094 205.125 113.515625 205.429688 114.289062 C 205.730469 115.0625 205.996094 115.839844 206.222656 116.621094 C 206.449219 117.402344 206.640625 118.1875 206.792969 118.972656 C 206.945312 119.757812 207.058594 120.542969 207.132812 121.332031 C 207.210938 122.121094 207.25 122.910156 207.25 123.699219 Z M 207.25 123.699219 "/>
<path style=" stroke:none;fill-rule:nonzero;fill:rgb(100%,100%,100%);fill-opacity:1;" d="M 131.679688 139.332031 L 136.378906 115.027344 C 137.457031 109.53125 136.53125 105.429688 133.757812 102.875 C 131.0625 100.398438 126.441406 99.160156 119.664062 99.160156 L 111.496094 99.160156 L 113.808594 87.085938 C 113.886719 86.621094 113.808594 86.15625 113.5 85.769531 C 113.191406 85.382812 112.804688 85.226562 112.34375 85.226562 L 101.097656 85.226562 C 100.328125 85.226562 99.710938 85.769531 99.558594 86.464844 L 94.550781 112.242188 C 94.085938 109.300781 93.007812 106.824219 91.160156 104.8125 C 87.847656 101.019531 82.6875 99.082031 75.675781 99.082031 L 54.03125 99.082031 C 53.261719 99.082031 52.644531 99.625 52.488281 100.320312 L 42.398438 152.648438 C 42.320312 153.113281 42.398438 153.574219 42.707031 153.964844 C 43.015625 154.351562 43.398438 154.503906 43.863281 154.503906 L 55.1875 154.503906 C 55.957031 154.503906 56.574219 153.964844 56.726562 153.265625 L 59.191406 140.648438 L 67.589844 140.648438 C 71.980469 140.648438 75.753906 140.183594 78.605469 139.257812 C 81.609375 138.25 84.304688 136.625 86.691406 134.378906 C 88.617188 132.597656 90.234375 130.585938 91.46875 128.417969 L 89.464844 138.867188 C 89.386719 139.332031 89.464844 139.796875 89.773438 140.183594 C 90.082031 140.570312 90.46875 140.726562 90.929688 140.726562 L 102.175781 140.726562 C 102.945312 140.726562 103.5625 140.183594 103.714844 139.488281 L 109.261719 110.847656 L 116.964844 110.847656 C 120.277344 110.847656 121.203125 111.46875 121.511719 111.777344 C 121.742188 112.011719 122.203125 112.9375 121.664062 115.804688 L 117.199219 138.945312 C 117.121094 139.410156 117.199219 139.875 117.503906 140.261719 C 117.8125 140.648438 118.199219 140.804688 118.660156 140.804688 L 130.214844 140.804688 C 130.910156 140.570312 131.523438 140.03125 131.679688 139.332031 Z M 79.605469 119.207031 C 78.914062 122.847656 77.601562 125.476562 75.675781 126.949219 C 73.75 128.417969 70.59375 129.195312 66.433594 129.195312 L 61.425781 129.195312 L 65.046875 110.460938 L 71.515625 110.460938 C 76.292969 110.460938 78.21875 111.46875 78.988281 112.320312 C 79.992188 113.558594 80.222656 115.957031 79.605469 119.207031 Z M 79.605469 119.207031 "/>
<path style=" stroke:none;fill-rule:nonzero;fill:rgb(100%,100%,100%);fill-opacity:1;" d="M 179.746094 104.8125 C 176.433594 101.019531 171.273438 99.082031 164.265625 99.082031 L 142.464844 99.082031 C 141.695312 99.082031 141.078125 99.625 140.921875 100.320312 L 130.832031 152.570312 C 130.753906 153.035156 130.832031 153.5 131.140625 153.886719 C 131.449219 154.273438 131.832031 154.425781 132.296875 154.425781 L 143.621094 154.425781 C 144.390625 154.425781 145.007812 153.886719 145.160156 153.1875 L 147.625 140.570312 L 156.023438 140.570312 C 160.414062 140.570312 164.1875 140.109375 167.039062 139.179688 C 170.042969 138.171875 172.738281 136.546875 175.125 134.300781 C 177.128906 132.445312 178.824219 130.355469 180.054688 128.109375 C 181.289062 125.867188 182.210938 123.386719 182.753906 120.679688 C 184.0625 113.945312 183.058594 108.679688 179.746094 104.8125 Z M 167.960938 119.207031 C 167.269531 122.847656 165.957031 125.476562 164.03125 126.949219 C 162.105469 128.417969 158.949219 129.195312 154.789062 129.195312 L 149.78125 129.195312 L 153.402344 110.460938 L 159.875 110.460938 C 164.648438 110.460938 166.574219 111.46875 167.34375 112.320312 C 168.425781 113.558594 168.65625 115.957031 167.960938 119.207031 Z M 167.960938 119.207031 "/>
<path style=" stroke:none;fill-rule:nonzero;fill:rgb(0%,0%,1.568604%);fill-opacity:1;" d="M 71.515625 108.914062 C 75.832031 108.914062 78.679688 109.6875 80.144531 111.3125 C 81.609375 112.9375 81.917969 115.648438 81.144531 119.519531 C 80.375 123.542969 78.835938 126.484375 76.601562 128.1875 C 74.367188 129.890625 70.976562 130.742188 66.433594 130.742188 L 59.578125 130.742188 L 63.8125 108.914062 Z M 43.9375 152.878906 L 55.261719 152.878906 L 57.960938 139.023438 L 67.664062 139.023438 C 71.980469 139.023438 75.445312 138.558594 78.21875 137.628906 C 80.992188 136.703125 83.457031 135.230469 85.769531 133.0625 C 87.695312 131.285156 89.234375 129.347656 90.390625 127.257812 C 91.546875 125.167969 92.394531 122.847656 92.855469 120.292969 C 94.085938 114.101562 93.164062 109.300781 90.160156 105.816406 C 87.15625 102.335938 82.378906 100.632812 75.832031 100.632812 L 54.03125 100.632812 Z M 43.9375 152.878906 "/>
<path style=" stroke:none;fill-rule:nonzero;fill:rgb(0%,0%,1.568604%);fill-opacity:1;" d="M 101.175781 86.777344 L 112.421875 86.777344 L 109.726562 100.632812 L 119.738281 100.632812 C 126.054688 100.632812 130.371094 101.714844 132.757812 103.960938 C 135.144531 106.203125 135.839844 109.765625 134.914062 114.71875 L 130.214844 139.023438 L 118.816406 139.023438 L 123.28125 115.878906 C 123.820312 113.25 123.589844 111.46875 122.742188 110.539062 C 121.894531 109.609375 119.96875 109.070312 117.121094 109.070312 L 108.109375 109.070312 L 102.328125 139.023438 L 91.082031 139.023438 Z M 101.175781 86.777344 "/>
<path style=" stroke:none;fill-rule:nonzero;fill:rgb(0%,0%,1.568604%);fill-opacity:1;" d="M 159.875 108.914062 C 164.1875 108.914062 167.039062 109.6875 168.5 111.3125 C 169.964844 112.9375 170.273438 115.648438 169.503906 119.519531 C 168.730469 123.542969 167.191406 126.484375 164.957031 128.1875 C 162.722656 129.890625 159.335938 130.742188 154.789062 130.742188 L 147.933594 130.742188 L 152.171875 108.914062 Z M 132.296875 152.878906 L 143.621094 152.878906 L 146.316406 139.023438 L 156.023438 139.023438 C 160.335938 139.023438 163.800781 138.558594 166.574219 137.628906 C 169.347656 136.703125 171.8125 135.230469 174.125 133.0625 C 176.050781 131.285156 177.589844 129.347656 178.746094 127.257812 C 179.902344 125.167969 180.75 122.847656 181.210938 120.292969 C 182.445312 114.101562 181.519531 109.300781 178.515625 105.816406 C 175.511719 102.335938 170.734375 100.632812 164.1875 100.632812 L 142.386719 100.632812 Z M 132.296875 152.878906 "/>
</g>
</svg>
