<?xml version="1.0" encoding="UTF-8"?>
<svg xmlns="http://www.w3.org/2000/svg" xmlns:xlink="http://www.w3.org/1999/xlink" width="224.87999pt" height="225pt" viewBox="0 0 224.87999 225" version="1.2">
<defs>
<clipPath id="clip1">
  <path d="M 5 5.640625 L 158 5.640625 L 158 169 L 5 169 Z M 5 5.640625 "/>
</clipPath>
<clipPath id="clip2">
  <path d="M 67 56 L 220 56 L 220 219.195312 L 67 219.195312 Z M 67 56 "/>
</clipPath>
</defs>
<g id="surface1">
<g clip-path="url(#clip1)" clip-rule="nonzero">
<path style=" stroke:none;fill-rule:nonzero;fill:rgb(0.779724%,46.669006%,74.119568%);fill-opacity:1;" d="M 115.398438 5.640625 C 106.640625 5.667969 100.566406 6.4375 93.226562 7.703125 C 71.554688 11.46875 67.605469 19.375 67.605469 33.949219 L 67.605469 56.21875 L 118.296875 56.21875 L 118.296875 67.457031 L 41.175781 67.457031 C 26.328125 67.457031 13.335938 74.4375 9.21875 91.167969 C 4.566406 110.371094 4.355469 122.398438 9.21875 142.449219 C 12.90625 157.40625 21.035156 168.617188 35.886719 168.617188 L 56.347656 168.617188 L 56.347656 139.933594 C 56.347656 123.265625 71.476562 106.796875 88.8125 106.796875 L 129.570312 106.796875 C 143.78125 106.796875 157.730469 96.332031 157.730469 82.199219 L 157.730469 33.949219 C 157.730469 20.242188 147.824219 9.992188 133.972656 7.691406 C 134.316406 7.65625 124.082031 5.605469 115.398438 5.640625 Z M 87.324219 28.121094 C 91.949219 28.121094 95.773438 31.925781 95.773438 36.5625 C 95.773438 41.242188 91.949219 44.980469 87.324219 44.980469 C 82.609375 44.980469 78.875 41.246094 78.875 36.5625 C 78.875 31.941406 82.609375 28.121094 87.324219 28.121094 Z M 87.324219 28.121094 "/>
</g>
<g clip-path="url(#clip2)" clip-rule="nonzero">
<path style=" stroke:none;fill-rule:nonzero;fill:rgb(100%,75.689697%,2.749634%);fill-opacity:1;" d="M 109.941406 219.195312 C 118.699219 219.167969 124.769531 218.398438 132.109375 217.132812 C 153.785156 213.367188 157.730469 205.460938 157.730469 190.886719 L 157.730469 168.617188 L 107.039062 168.617188 L 107.039062 157.375 L 184.164062 157.375 C 199.011719 157.375 212.007812 150.398438 216.125 133.667969 C 220.777344 114.464844 220.984375 102.4375 216.125 82.386719 C 212.429688 67.429688 204.300781 56.21875 189.449219 56.21875 L 168.992188 56.21875 L 168.992188 84.902344 C 168.992188 101.570312 153.863281 118.039062 136.527344 118.039062 L 95.769531 118.039062 C 81.558594 118.039062 67.605469 128.5 67.605469 142.636719 L 67.605469 190.886719 C 67.605469 204.59375 77.511719 214.84375 91.363281 217.144531 C 91.019531 217.175781 101.253906 219.226562 109.941406 219.195312 Z M 138.019531 196.714844 C 133.394531 196.714844 129.570312 192.910156 129.570312 188.273438 C 129.570312 183.59375 133.394531 179.855469 138.019531 179.855469 C 142.734375 179.855469 146.46875 183.585938 146.46875 188.273438 C 146.46875 192.894531 142.726562 196.714844 138.019531 196.714844 Z M 138.019531 196.714844 "/>
</g>
</g>
</svg>
