<?xml version="1.0" encoding="UTF-8"?>
<svg xmlns="http://www.w3.org/2000/svg" xmlns:xlink="http://www.w3.org/1999/xlink" width="224.87999pt" height="225pt" viewBox="0 0 224.87999 225" version="1.2">
<defs>
<clipPath id="clip1">
  <path d="M 0 0.0585938 L 224.761719 0.0585938 L 224.761719 224.9375 L 0 224.9375 Z M 0 0.0585938 "/>
</clipPath>
<clipPath id="clip2">
  <path d="M 25.105469 182 L 56 182 L 56 199 L 25.105469 199 Z M 25.105469 182 "/>
</clipPath>
<clipPath id="clip3">
  <path d="M 38 133 L 101 133 L 101 202.453125 L 38 202.453125 Z M 38 133 "/>
</clipPath>
</defs>
<g id="surface1">
<g clip-path="url(#clip1)" clip-rule="nonzero">
<path style=" stroke:none;fill-rule:nonzero;fill:rgb(100%,100%,100%);fill-opacity:1;" d="M 0 0.0585938 L 224.878906 0.0585938 L 224.878906 232.4375 L 0 232.4375 Z M 0 0.0585938 "/>
<path style=" stroke:none;fill-rule:nonzero;fill:rgb(100%,100%,100%);fill-opacity:1;" d="M 0 0.0585938 L 224.878906 0.0585938 L 224.878906 224.941406 L 0 224.941406 Z M 0 0.0585938 "/>
<path style=" stroke:none;fill-rule:nonzero;fill:rgb(100%,100%,100%);fill-opacity:1;" d="M 0 0.0585938 L 224.878906 0.0585938 L 224.878906 224.941406 L 0 224.941406 Z M 0 0.0585938 "/>
</g>
<g clip-path="url(#clip2)" clip-rule="nonzero">
<path style=" stroke:none;fill-rule:nonzero;fill:rgb(94.509888%,35.289001%,14.118958%);fill-opacity:1;" d="M 55.628906 197.617188 L 25.105469 198.671875 L 40.753906 182.757812 Z M 55.628906 197.617188 "/>
</g>
<path style=" stroke:none;fill-rule:nonzero;fill:rgb(94.509888%,35.289001%,14.118958%);fill-opacity:1;" d="M 194.09375 118.695312 C 188.425781 162.914062 147.980469 194.164062 103.765625 188.480469 C 59.546875 182.8125 28.3125 142.363281 33.980469 98.140625 C 39.65625 53.917969 80.09375 22.667969 124.316406 28.347656 C 168.53125 34.019531 199.777344 74.472656 194.09375 118.695312 "/>
<path style=" stroke:none;fill-rule:nonzero;fill:rgb(59.999084%,59.999084%,59.999084%);fill-opacity:1;" d="M 134.617188 85.46875 C 139.921875 91.105469 134.691406 104.441406 134.691406 104.441406 C 134.691406 104.441406 129.511719 123.289062 99.894531 147.734375 L 94.359375 142.308594 L 131.96875 103.871094 L 132.691406 102.886719 C 133.695312 101.253906 134.519531 85.359375 134.617188 85.46875 "/>
<path style="fill:none;stroke-width:1.918;stroke-linecap:round;stroke-linejoin:round;stroke:rgb(100%,100%,100%);stroke-opacity:1;stroke-miterlimit:4;" d="M 164.978682 87.533313 C 172.970109 96.0238 165.090491 116.111482 165.090491 116.111482 C 165.090491 116.111482 157.287375 144.501366 112.669556 181.322899 L 104.330932 173.150143 L 160.988853 115.252431 L 162.077523 113.769685 C 163.589892 111.310209 164.831564 87.368563 164.978682 87.533313 Z M 164.978682 87.533313 " transform="matrix(0.663797,0,0,0.663886,25.104785,27.35658)"/>
<path style="fill-rule:nonzero;fill:rgb(39.99939%,39.99939%,39.99939%);fill-opacity:1;stroke-width:1.201;stroke-linecap:round;stroke-linejoin:round;stroke:rgb(100%,100%,100%);stroke-opacity:1;stroke-miterlimit:4;" d="M 92.096634 161.111655 L 164.860988 87.321492 C 168.562466 91.710892 169.339247 96.435674 168.268231 103.172756 C 167.550297 107.832816 159.488254 117.152935 159.488254 117.152935 L 104.330932 173.150143 " transform="matrix(0.663797,0,0,0.663886,25.104785,27.35658)"/>
<path style=" stroke:none;fill-rule:nonzero;fill:rgb(100%,57.649231%,11.759949%);fill-opacity:1;" d="M 134.617188 85.5 L 86.238281 134.316406 L 86.335938 134.222656 L 86.320312 134.230469 L 74.316406 122.398438 C 99.34375 91.257812 115.527344 85.453125 115.527344 85.453125 C 115.527344 85.453125 126.066406 81.339844 133.582031 84.53125 C 134.160156 84.839844 134.414062 85.019531 134.617188 85.503906 "/>
<path style="fill:none;stroke-width:1.918;stroke-linecap:round;stroke-linejoin:round;stroke:rgb(100%,100%,100%);stroke-opacity:1;stroke-miterlimit:4;" d="M 164.978682 87.580384 L 92.096634 161.111655 L 92.243752 160.970441 L 92.220213 160.982209 L 74.13652 143.159834 C 111.839813 96.253273 136.220138 87.509777 136.220138 87.509777 C 136.220138 87.509777 152.097067 81.314016 163.419235 86.121173 C 164.290172 86.586003 164.672677 86.856663 164.978682 87.586268 Z M 164.978682 87.580384 " transform="matrix(0.663797,0,0,0.663886,25.104785,27.35658)"/>
<path style=" stroke:none;fill-rule:nonzero;fill:rgb(59.999084%,59.999084%,59.999084%);fill-opacity:1;" d="M 99.894531 147.734375 C 88.347656 157.238281 73.578125 172.175781 53.5 182.59375 L 57.964844 201.6875 L 39.035156 183.039062 L 86.238281 134.316406 "/>
<g clip-path="url(#clip3)" clip-rule="nonzero">
<path style="fill:none;stroke-width:1.918;stroke-linecap:round;stroke-linejoin:round;stroke:rgb(100%,100%,100%);stroke-opacity:1;stroke-miterlimit:4;" d="M 112.669556 181.322899 C 95.274374 195.638462 73.024311 218.138548 42.776938 233.830946 L 49.503153 262.591517 L 20.985882 234.501712 L 92.096634 161.111655 " transform="matrix(0.663797,0,0,0.663886,25.104785,27.35658)"/>
</g>
<path style="fill-rule:nonzero;fill:rgb(94.509888%,35.289001%,14.118958%);fill-opacity:1;stroke-width:1.918;stroke-linecap:round;stroke-linejoin:round;stroke:rgb(100%,100%,100%);stroke-opacity:1;stroke-miterlimit:4;" d="M 74.624951 143.401075 L 92.290829 160.999861 L 51.480413 169.837499 L 74.230676 143.077459 Z M 74.624951 143.401075 " transform="matrix(0.663797,0,0,0.663886,25.104785,27.35658)"/>
<path style=" stroke:none;fill-rule:nonzero;fill:rgb(59.999084%,59.999084%,59.999084%);fill-opacity:1;" d="M 129.996094 71.335938 C 128.851562 81.71875 136.324219 91.066406 146.707031 92.226562 C 157.082031 93.378906 166.433594 85.898438 167.59375 75.515625 C 168.75 65.136719 161.261719 55.78125 150.882812 54.625 C 140.5 53.476562 131.152344 60.949219 129.996094 71.335938 "/>
<path style="fill:none;stroke-width:1.918;stroke-linecap:round;stroke-linejoin:round;stroke:rgb(100%,100%,100%);stroke-opacity:1;stroke-miterlimit:4;" d="M 158.017078 66.245313 C 156.29286 81.884756 167.550297 95.964961 183.191838 97.712484 C 198.821609 99.448238 212.909588 88.180543 214.657345 72.5411 C 216.399217 56.907541 205.118242 42.815568 189.482585 41.073929 C 173.841045 39.344059 159.75895 50.599986 158.017078 66.245313 Z M 158.017078 66.245313 " transform="matrix(0.663797,0,0,0.663886,25.104785,27.35658)"/>
<path style=" stroke:none;fill-rule:nonzero;fill:rgb(39.99939%,39.99939%,39.99939%);fill-opacity:1;" d="M 164.878906 83.878906 C 168.367188 78.78125 168.1875 71.152344 167.484375 68.894531 C 166.625 66.128906 164.703125 61.628906 161.347656 59.289062 L 143.621094 75.625 C 143.621094 75.625 157.246094 90.269531 157.597656 90.316406 C 157.746094 90.335938 161.695312 88.527344 164.878906 83.878906 "/>
<path style="fill:none;stroke-width:1.918;stroke-linecap:round;stroke-linejoin:round;stroke:rgb(100%,100%,100%);stroke-opacity:1;stroke-miterlimit:4;" d="M 210.567477 85.13856 C 215.822516 77.460052 215.55182 65.968769 214.492574 62.567866 C 213.197939 58.402055 210.302665 51.623787 205.247705 48.099322 L 178.542922 72.70585 C 178.542922 72.70585 199.068767 94.764643 199.59839 94.83525 C 199.822009 94.864669 205.771444 92.140417 210.567477 85.13856 Z M 205.177089 65.862858 C 205.177089 65.862858 207.742819 72.170414 204.488578 77.077598 Z M 205.177089 65.862858 " transform="matrix(0.663797,0,0,0.663886,25.104785,27.35658)"/>
<path style=" stroke:none;fill-rule:nonzero;fill:rgb(39.99939%,39.99939%,39.99939%);fill-opacity:1;" d="M 94.777344 142.316406 L 75.210938 145.792969 L 87.023438 133.519531 "/>
<path style="fill:none;stroke-width:1.918;stroke-linecap:round;stroke-linejoin:round;stroke:rgb(100%,100%,100%);stroke-opacity:1;stroke-miterlimit:4;" d="M 104.960595 173.161911 L 75.484117 178.398594 L 93.279459 159.911337 M 75.307576 143.530521 L 112.78725 178.7987 " transform="matrix(0.663797,0,0,0.663886,25.104785,27.35658)"/>
</g>
</svg>
