<svg xmlns="http://www.w3.org/2000/svg" width="375" viewBox="0 0 375 375" height="375" version="1.0"><defs><clipPath id="a"><path d="M 7.308594 27 L 368 27 L 368 348 L 7.308594 348 Z M 7.308594 27"/></clipPath></defs><g clip-path="url(#a)"><path fill="#00D8FF" d="M 303.679688 131.273438 C 299.953125 129.992188 296.082031 128.773438 292.089844 127.625 C 292.75 124.953125 293.355469 122.3125 293.890625 119.722656 C 302.652344 77.152344 296.925781 42.855469 277.335938 31.5625 C 258.550781 20.738281 227.835938 32.027344 196.8125 59.015625 C 193.828125 61.609375 190.835938 64.355469 187.851562 67.234375 C 185.855469 65.332031 183.871094 63.492188 181.890625 61.730469 C 149.375 32.871094 116.785156 20.710938 97.21875 32.035156 C 78.453125 42.894531 72.898438 75.132812 80.796875 115.480469 C 81.558594 119.375 82.449219 123.355469 83.457031 127.402344 C 78.84375 128.710938 74.394531 130.105469 70.132812 131.589844 C 32.015625 144.875 7.671875 165.695312 7.671875 187.292969 C 7.671875 209.589844 33.804688 231.972656 73.507812 245.539062 C 76.640625 246.605469 79.890625 247.617188 83.238281 248.574219 C 82.152344 252.945312 81.207031 257.234375 80.414062 261.421875 C 72.882812 301.070312 78.765625 332.546875 97.476562 343.328125 C 116.804688 354.476562 149.25 343.019531 180.835938 315.421875 C 183.339844 313.242188 185.839844 310.925781 188.34375 308.503906 C 191.609375 311.625 194.855469 314.59375 198.078125 317.375 C 228.679688 343.695312 258.902344 354.324219 277.589844 343.511719 C 296.898438 332.335938 303.1875 298.511719 295.027344 257.375 C 294.410156 254.226562 293.679688 251.019531 292.878906 247.757812 C 295.15625 247.085938 297.390625 246.382812 299.570312 245.664062 C 340.847656 231.984375 367.695312 209.898438 367.695312 187.292969 C 367.695312 165.617188 342.5625 144.65625 303.679688 131.273438 Z M 294.734375 231.070312 C 292.765625 231.71875 290.738281 232.351562 288.6875 232.957031 C 284.128906 218.546875 277.984375 203.207031 270.445312 187.363281 C 277.632812 171.898438 283.539062 156.761719 287.96875 142.4375 C 291.652344 143.503906 295.226562 144.625 298.671875 145.8125 C 331.988281 157.277344 352.308594 174.234375 352.308594 187.292969 C 352.308594 201.195312 330.371094 219.261719 294.734375 231.070312 Z M 279.9375 260.355469 C 283.554688 278.546875 284.058594 294.996094 281.667969 307.859375 C 279.53125 319.414062 275.214844 327.121094 269.882812 330.199219 C 258.535156 336.761719 234.277344 328.230469 208.117188 305.722656 C 205.109375 303.136719 202.085938 300.378906 199.0625 297.46875 C 209.199219 286.378906 219.339844 273.484375 229.242188 259.160156 C 246.636719 257.628906 263.078125 255.097656 278 251.652344 C 278.730469 254.621094 279.375 257.515625 279.9375 260.355469 Z M 130.417969 329.058594 C 119.332031 332.980469 110.503906 333.09375 105.167969 330.015625 C 93.8125 323.464844 89.089844 298.1875 95.53125 264.292969 C 96.269531 260.410156 97.144531 256.417969 98.160156 252.34375 C 112.90625 255.605469 129.226562 257.953125 146.675781 259.355469 C 156.636719 273.375 167.074219 286.25 177.578125 297.527344 C 175.285156 299.746094 172.992188 301.855469 170.714844 303.839844 C 156.75 316.054688 142.753906 324.714844 130.417969 329.058594 Z M 78.488281 230.988281 C 60.929688 224.984375 46.433594 217.195312 36.496094 208.675781 C 27.566406 201.042969 23.058594 193.449219 23.058594 187.292969 C 23.058594 174.191406 42.601562 157.46875 75.199219 146.109375 C 79.15625 144.730469 83.296875 143.429688 87.59375 142.210938 C 92.097656 156.859375 98.007812 172.179688 105.140625 187.660156 C 97.914062 203.375 91.921875 218.9375 87.371094 233.769531 C 84.308594 232.886719 81.339844 231.957031 78.488281 230.988281 Z M 95.894531 112.527344 C 89.128906 77.960938 93.621094 51.886719 104.929688 45.339844 C 116.972656 38.371094 143.605469 48.308594 171.671875 73.226562 C 173.472656 74.820312 175.273438 76.484375 177.085938 78.210938 C 166.621094 89.4375 156.285156 102.21875 146.410156 116.152344 C 129.480469 117.71875 113.269531 120.238281 98.371094 123.613281 C 97.433594 119.847656 96.601562 116.144531 95.894531 112.527344 Z M 251.179688 150.859375 C 247.625 144.710938 243.964844 138.703125 240.238281 132.859375 C 251.730469 134.3125 262.726562 136.242188 273.0625 138.597656 C 269.96875 148.539062 266.101562 158.933594 261.546875 169.59375 C 258.28125 163.390625 254.824219 157.140625 251.179688 150.859375 Z M 187.855469 89.199219 C 194.957031 96.882812 202.058594 105.457031 209.046875 114.765625 C 202 114.433594 194.871094 114.261719 187.683594 114.261719 C 180.570312 114.261719 173.496094 114.429688 166.492188 114.757812 C 173.480469 105.535156 180.652344 96.96875 187.855469 89.199219 Z M 124.121094 150.96875 C 120.5625 157.132812 117.171875 163.351562 113.957031 169.578125 C 109.480469 158.960938 105.648438 148.519531 102.519531 138.433594 C 112.792969 136.136719 123.746094 134.257812 135.160156 132.835938 C 131.378906 138.730469 127.691406 144.78125 124.121094 150.964844 Z M 135.488281 242.839844 C 123.695312 241.53125 112.574219 239.746094 102.308594 237.511719 C 105.488281 227.246094 109.402344 216.589844 113.976562 205.738281 C 117.199219 211.964844 120.601562 218.179688 124.183594 224.367188 C 127.832031 230.664062 131.609375 236.820312 135.488281 242.839844 Z M 188.277344 286.460938 C 180.992188 278.601562 173.71875 269.902344 166.617188 260.550781 C 173.507812 260.820312 180.542969 260.960938 187.683594 260.960938 C 195.027344 260.960938 202.28125 260.792969 209.414062 260.480469 C 202.410156 270 195.320312 278.714844 188.277344 286.460938 Z M 261.6875 205.191406 C 266.496094 216.15625 270.558594 226.753906 273.78125 236.847656 C 263.347656 239.226562 252.066406 241.136719 240.199219 242.570312 C 243.9375 236.652344 247.625 230.539062 251.25 224.253906 C 254.921875 217.898438 258.394531 211.53125 261.6875 205.191406 Z M 237.917969 216.578125 C 232.292969 226.332031 226.515625 235.640625 220.648438 244.425781 C 209.976562 245.1875 198.9375 245.578125 187.683594 245.578125 C 176.476562 245.578125 165.578125 245.242188 155.085938 244.554688 C 148.984375 235.65625 143.082031 226.320312 137.492188 216.660156 C 131.914062 207.03125 126.78125 197.316406 122.132812 187.660156 C 126.78125 177.984375 131.902344 168.257812 137.445312 158.644531 L 137.445312 158.648438 C 143.003906 149.011719 148.855469 139.714844 154.902344 130.867188 C 165.605469 130.054688 176.589844 129.632812 187.683594 129.632812 C 198.835938 129.632812 209.820312 130.0625 220.523438 130.875 C 226.484375 139.660156 232.292969 148.925781 237.878906 158.5625 C 243.515625 168.3125 248.707031 177.972656 253.390625 187.449219 C 248.71875 197.078125 243.542969 206.835938 237.917969 216.578125 Z M 269.644531 44.878906 C 281.710938 51.832031 286.394531 79.859375 278.816406 116.613281 C 278.335938 118.960938 277.789062 121.347656 277.199219 123.769531 C 262.261719 120.324219 246.046875 117.761719 229.074219 116.167969 C 219.171875 102.085938 208.921875 89.28125 198.625 78.199219 C 201.398438 75.539062 204.167969 73 206.910156 70.605469 C 233.488281 47.484375 258.339844 38.355469 269.644531 44.878906 Z M 187.683594 155.148438 C 205.433594 155.148438 219.835938 169.53125 219.835938 187.289062 C 219.835938 205.03125 205.433594 219.425781 187.683594 219.425781 C 169.9375 219.425781 155.535156 205.03125 155.535156 187.289062 C 155.535156 169.53125 169.9375 155.148438 187.683594 155.148438 Z M 187.683594 155.148438"/></g></svg>