<?xml version="1.0" encoding="UTF-8"?>
<svg xmlns="http://www.w3.org/2000/svg" xmlns:xlink="http://www.w3.org/1999/xlink" width="224.87999pt" height="225pt" viewBox="0 0 224.87999 225" version="1.2">
<defs>
<clipPath id="clip1">
  <path d="M 10.105469 125 L 95 125 L 95 165.582031 L 10.105469 165.582031 Z M 10.105469 125 "/>
</clipPath>
</defs>
<g id="surface1">
<g clip-path="url(#clip1)" clip-rule="nonzero">
<path style=" stroke:none;fill-rule:nonzero;fill:rgb(0%,38.038635%,54.119873%);fill-opacity:1;" d="M 10.859375 156.351562 L 17.550781 156.351562 L 17.550781 130.097656 L 27.910156 152.992188 C 29.128906 155.753906 30.804688 156.742188 34.085938 156.742188 C 37.367188 156.742188 38.976562 155.761719 40.199219 152.992188 L 50.558594 130.097656 L 50.558594 156.359375 L 57.25 156.359375 L 57.25 130.140625 C 57.25 127.582031 56.21875 126.34375 54.097656 125.707031 C 49.015625 124.128906 45.605469 125.492188 44.0625 128.902344 L 33.894531 151.5 L 24.046875 128.894531 C 22.570312 125.484375 19.09375 124.117188 14.011719 125.695312 C 11.886719 126.335938 10.859375 127.574219 10.859375 130.128906 Z M 62.8125 134.972656 L 69.503906 134.972656 L 69.503906 149.445312 C 69.441406 150.230469 69.757812 152.074219 73.421875 152.132812 C 75.292969 152.160156 87.855469 152.132812 87.972656 152.132812 L 87.972656 134.902344 L 94.675781 134.902344 C 94.707031 134.902344 94.671875 158.394531 94.671875 158.496094 C 94.707031 164.289062 87.4375 165.550781 84.085938 165.648438 L 62.957031 165.648438 L 62.957031 161.171875 L 84.125 161.171875 C 88.429688 160.71875 87.921875 158.589844 87.921875 157.875 L 87.921875 156.128906 L 73.703125 156.128906 C 67.085938 156.070312 62.871094 153.199219 62.820312 149.898438 C 62.8125 149.601562 62.960938 135.117188 62.816406 134.972656 Z M 62.8125 134.972656 "/>
</g>
<path style=" stroke:none;fill-rule:nonzero;fill:rgb(89.408875%,55.688477%,0%);fill-opacity:1;" d="M 99.835938 156.351562 L 119.074219 156.351562 C 121.324219 156.351562 123.515625 155.882812 125.253906 155.070312 C 128.148438 153.75 129.5625 151.957031 129.5625 149.613281 L 129.5625 144.753906 C 129.5625 142.835938 127.957031 141.042969 124.804688 139.851562 C 123.128906 139.210938 121.070312 138.871094 119.078125 138.871094 L 110.96875 138.871094 C 108.269531 138.871094 106.980469 138.058594 106.660156 136.269531 C 106.59375 136.058594 106.59375 135.875 106.59375 135.671875 L 106.59375 132.644531 C 106.59375 132.476562 106.59375 132.304688 106.660156 132.089844 C 106.980469 130.726562 107.6875 130.34375 110.070312 130.121094 C 110.261719 130.121094 110.519531 130.078125 110.714844 130.078125 L 129.824219 130.078125 L 129.824219 125.644531 L 111.035156 125.644531 C 108.332031 125.644531 106.917969 125.8125 105.628906 126.199219 C 101.636719 127.433594 99.898438 129.40625 99.898438 132.816406 L 99.898438 136.695312 C 99.898438 139.679688 103.308594 142.238281 109.035156 142.835938 C 109.679688 142.878906 110.320312 142.921875 110.964844 142.921875 L 117.914062 142.921875 C 118.171875 142.921875 118.429688 142.921875 118.621094 142.964844 C 120.742188 143.132812 121.644531 143.519531 122.289062 144.285156 C 122.683594 144.679688 122.804688 145.054688 122.804688 145.46875 L 122.804688 149.347656 C 122.804688 149.816406 122.484375 150.414062 121.839844 150.925781 C 121.261719 151.4375 120.296875 151.777344 119.007812 151.863281 C 118.75 151.863281 118.558594 151.90625 118.300781 151.90625 L 99.832031 151.90625 L 99.832031 156.339844 Z M 171.308594 148.632812 C 171.308594 153.195312 174.714844 155.753906 181.601562 156.265625 C 182.242188 156.316406 182.886719 156.34375 183.53125 156.351562 L 200.96875 156.351562 L 200.96875 151.917969 L 183.402344 151.917969 C 179.476562 151.917969 177.996094 150.9375 177.996094 148.589844 L 177.996094 125.652344 L 171.304688 125.652344 L 171.304688 148.632812 Z M 133.832031 148.863281 L 133.832031 133.058594 C 133.832031 129.042969 136.667969 126.605469 142.277344 125.835938 C 142.878906 125.753906 143.480469 125.710938 144.085938 125.710938 L 156.785156 125.710938 C 157.414062 125.710938 158.035156 125.753906 158.65625 125.835938 C 164.265625 126.605469 167.101562 129.042969 167.101562 133.058594 L 167.101562 148.863281 C 167.101562 152.121094 165.898438 153.867188 163.121094 155.003906 L 169.710938 160.917969 L 161.941406 160.917969 L 156.609375 156.132812 L 151.242188 156.46875 L 144.085938 156.46875 C 142.859375 156.46875 141.570312 156.300781 140.152344 155.914062 C 135.886719 154.761719 133.832031 152.539062 133.832031 148.863281 Z M 141.054688 148.46875 C 141.054688 148.683594 141.121094 148.898438 141.183594 149.15625 C 141.582031 150.992188 143.3125 152.015625 145.945312 152.015625 L 152.023438 152.015625 L 146.441406 147.007812 L 154.210938 147.007812 L 159.070312 151.375 C 159.96875 150.902344 160.558594 150.171875 160.757812 149.238281 C 160.820312 149.027344 160.820312 148.8125 160.820312 148.597656 L 160.820312 133.445312 C 160.820312 133.273438 160.820312 133.050781 160.757812 132.84375 C 160.359375 131.136719 158.628906 130.152344 156.050781 130.152344 L 145.964844 130.152344 C 142.988281 130.152344 141.0625 131.4375 141.0625 133.445312 L 141.0625 148.480469 Z M 141.054688 148.46875 "/>
<path style=" stroke:none;fill-rule:nonzero;fill:rgb(0%,38.038635%,54.119873%);fill-opacity:1;" d="M 206.851562 118.296875 C 202.738281 118.1875 199.597656 118.566406 196.910156 119.691406 C 196.148438 120.011719 194.929688 120.019531 194.804688 120.972656 C 195.222656 121.40625 195.289062 122.058594 195.621094 122.597656 C 196.265625 123.628906 197.347656 125.011719 198.3125 125.734375 C 199.367188 126.527344 200.457031 127.375 201.589844 128.0625 C 203.601562 129.28125 205.851562 129.980469 207.789062 131.199219 C 208.929688 131.921875 210.066406 132.828125 211.179688 133.640625 C 211.730469 134.042969 212.101562 134.667969 212.816406 134.921875 L 212.816406 134.804688 C 212.4375 134.328125 212.34375 133.671875 212 133.175781 L 210.476562 131.667969 C 208.988281 129.695312 207.105469 127.984375 205.097656 126.550781 C 203.496094 125.410156 199.917969 123.867188 199.25 122.015625 L 199.132812 121.898438 C 200.265625 121.773438 201.59375 121.363281 202.644531 121.085938 C 204.402344 120.617188 205.972656 120.738281 207.789062 120.273438 L 210.246094 119.574219 L 210.246094 119.109375 C 209.328125 118.171875 208.671875 116.933594 207.671875 116.085938 C 205.054688 113.871094 202.195312 111.65625 199.253906 109.808594 C 197.621094 108.785156 195.601562 108.117188 193.871094 107.25 C 193.289062 106.957031 192.269531 106.808594 191.882812 106.320312 C 190.976562 105.167969 190.480469 103.707031 189.78125 102.378906 C 188.3125 99.566406 186.871094 96.5 185.570312 93.542969 C 184.679688 91.527344 184.101562 89.539062 182.996094 87.730469 C 177.683594 79.050781 171.96875 73.8125 163.113281 68.664062 C 161.226562 67.570312 158.960938 67.136719 156.5625 66.570312 L 152.703125 66.339844 C 151.917969 66.015625 151.097656 65.058594 150.363281 64.59375 C 147.429688 62.75 139.902344 58.746094 137.730469 64.003906 C 136.359375 67.328125 139.78125 70.570312 141.003906 72.257812 C 141.863281 73.441406 142.964844 74.765625 143.578125 76.09375 C 143.980469 76.96875 144.050781 77.84375 144.398438 78.769531 C 145.246094 81.035156 145.988281 83.523438 147.085938 85.628906 C 147.640625 86.691406 148.253906 87.8125 148.957031 88.765625 C 149.390625 89.351562 150.128906 89.609375 150.246094 90.511719 C 149.523438 91.515625 149.480469 93.074219 149.074219 94.347656 C 147.246094 100.078125 147.9375 107.195312 150.59375 111.4375 C 151.410156 112.738281 153.332031 115.53125 155.976562 114.460938 C 158.285156 113.523438 157.761719 110.625 158.429688 108.066406 C 158.582031 107.484375 158.488281 107.058594 158.78125 106.671875 L 158.78125 106.789062 L 160.886719 110.972656 C 162.445312 113.464844 165.210938 116.074219 167.554688 117.832031 C 168.769531 118.746094 169.738281 120.320312 171.296875 120.855469 L 171.296875 120.738281 L 171.179688 120.738281 C 170.875 120.265625 170.398438 120.070312 170.011719 119.695312 C 169.09375 118.800781 168.078125 117.691406 167.320312 116.671875 C 165.1875 113.796875 163.304688 110.648438 161.589844 107.371094 C 160.769531 105.804688 160.058594 104.082031 159.367188 102.488281 C 159.101562 101.875 159.105469 100.945312 158.550781 100.628906 C 157.792969 101.796875 156.679688 102.738281 156.09375 104.117188 C 155.15625 106.316406 155.035156 109.003906 154.691406 111.789062 C 154.484375 111.863281 154.574219 111.8125 154.457031 111.90625 C 152.828125 111.515625 152.253906 109.847656 151.648438 108.417969 C 150.117188 104.800781 149.832031 98.976562 151.179688 94.816406 C 151.527344 93.738281 153.105469 90.347656 152.46875 89.351562 C 152.164062 88.359375 151.15625 87.773438 150.59375 87.027344 C 149.902344 86.089844 149.207031 84.855469 148.722656 83.769531 C 147.46875 80.953125 146.886719 77.789062 145.566406 74.9375 C 144.9375 73.574219 143.871094 72.195312 142.992188 70.992188 C 142.023438 69.652344 140.9375 68.664062 140.1875 67.050781 C 139.917969 66.472656 139.554688 65.550781 139.953125 64.957031 C 140.039062 64.578125 140.273438 64.34375 140.65625 64.257812 C 141.332031 63.738281 143.222656 64.433594 143.929688 64.726562 C 145.804688 65.5 147.371094 66.238281 148.960938 67.28125 C 149.722656 67.777344 150.496094 68.757812 151.414062 69.027344 L 152.46875 69.027344 C 154.113281 69.402344 155.957031 69.144531 157.496094 69.609375 C 160.214844 70.429688 162.652344 71.707031 164.863281 73.097656 C 171.605469 77.328125 177.117188 83.351562 180.886719 90.542969 C 181.496094 91.699219 181.757812 92.804688 182.292969 94.03125 C 183.371094 96.496094 184.726562 99.050781 185.800781 101.472656 C 186.871094 103.886719 187.914062 106.320312 189.425781 108.328125 C 190.222656 109.382812 193.292969 109.953125 194.691406 110.539062 C 195.667969 110.949219 197.269531 111.378906 198.199219 111.933594 C 199.96875 112.996094 201.683594 114.257812 203.347656 115.421875 C 204.175781 116.003906 206.726562 117.277344 206.855469 118.328125 Z M 206.851562 118.296875 "/>
<path style=" stroke:none;fill-rule:evenodd;fill:rgb(0%,38.038635%,54.119873%);fill-opacity:1;" d="M 154.574219 74.003906 C 153.71875 73.988281 153.113281 74.097656 152.46875 74.238281 L 152.46875 74.355469 L 152.585938 74.355469 C 152.996094 75.191406 153.71875 75.726562 154.222656 76.445312 L 155.394531 78.886719 L 155.511719 78.773438 C 156.234375 78.265625 156.566406 77.453125 156.5625 76.214844 C 156.273438 75.910156 156.230469 75.53125 155.976562 75.167969 C 155.644531 74.683594 154.984375 74.410156 154.574219 74.003906 Z M 154.574219 74.003906 "/>
<path style=" stroke:none;fill-rule:evenodd;fill:rgb(89.408875%,55.688477%,0%);fill-opacity:1;" d="M 204.113281 151.789062 C 204.113281 154.71875 206.441406 156.691406 209.046875 156.691406 C 211.648438 156.691406 213.976562 154.71875 213.976562 151.789062 C 213.976562 148.863281 211.648438 146.890625 209.046875 146.890625 C 206.441406 146.890625 204.113281 148.863281 204.113281 151.789062 Z M 212.871094 151.789062 C 212.871094 154.011719 211.164062 155.671875 209.042969 155.671875 C 206.902344 155.671875 205.214844 154.011719 205.214844 151.789062 C 205.214844 149.570312 206.898438 147.910156 209.042969 147.910156 C 211.160156 147.910156 212.871094 149.570312 212.871094 151.789062 Z M 210.371094 154.585938 L 211.476562 154.585938 L 209.859375 152.132812 C 210.726562 152.039062 211.382812 151.621094 211.382812 150.601562 C 211.382812 149.464844 210.660156 148.996094 209.269531 148.996094 L 207.070312 148.996094 L 207.070312 154.589844 L 208.019531 154.589844 L 208.019531 152.171875 L 208.898438 152.171875 L 210.371094 154.589844 Z M 208.019531 151.382812 L 208.019531 149.777344 L 209.109375 149.777344 C 209.675781 149.777344 210.359375 149.882812 210.359375 150.535156 C 210.359375 151.320312 209.742188 151.386719 209.03125 151.386719 L 208.019531 151.386719 Z M 208.019531 151.382812 "/>
</g>
</svg>
