<?xml version="1.0" encoding="UTF-8"?>
<svg xmlns="http://www.w3.org/2000/svg" xmlns:xlink="http://www.w3.org/1999/xlink" width="224.87999pt" height="225pt" viewBox="0 0 224.87999 225" version="1.2">
<defs>
<clipPath id="clip1">
  <path d="M 6.425781 8 L 218.5625 8 L 218.5625 218 L 6.425781 218 Z M 6.425781 8 "/>
</clipPath>
</defs>
<g id="surface1">
<g clip-path="url(#clip1)" clip-rule="nonzero">
<path style=" stroke:none;fill-rule:nonzero;fill:rgb(0%,0%,0%);fill-opacity:1;" d="M 112.550781 8.253906 C 53.945312 8.253906 6.425781 55.773438 6.425781 114.382812 C 6.425781 164.109375 40.667969 205.722656 86.835938 217.234375 C 86.339844 215.804688 86.019531 214.140625 86.019531 212.078125 L 86.019531 193.941406 C 81.714844 193.941406 74.496094 193.941406 72.683594 193.941406 C 65.421875 193.941406 58.96875 190.820312 55.835938 185.015625 C 52.359375 178.570312 51.757812 168.710938 43.144531 162.675781 C 40.589844 160.671875 42.535156 158.378906 45.480469 158.6875 C 50.917969 160.226562 55.429688 163.960938 59.675781 169.496094 C 63.902344 175.042969 65.890625 176.296875 73.789062 176.296875 C 77.617188 176.296875 83.347656 176.074219 88.746094 175.226562 C 91.644531 167.859375 96.660156 161.078125 102.789062 157.875 C 67.449219 154.242188 50.582031 136.660156 50.582031 112.789062 C 50.582031 102.511719 54.960938 92.570312 62.398438 84.195312 C 59.957031 75.882812 56.886719 58.929688 63.335938 52.472656 C 79.238281 52.472656 88.851562 62.785156 91.160156 65.570312 C 99.082031 62.855469 107.785156 61.316406 116.929688 61.316406 C 126.09375 61.316406 134.828125 62.855469 142.773438 65.589844 C 145.054688 62.820312 154.675781 52.472656 170.613281 52.472656 C 177.085938 58.9375 173.980469 75.964844 171.515625 84.257812 C 178.90625 92.617188 183.257812 102.53125 183.257812 112.789062 C 183.257812 136.640625 166.421875 154.214844 131.132812 157.867188 C 140.84375 162.933594 147.929688 177.171875 147.929688 187.902344 L 147.929688 212.078125 C 147.929688 213 147.722656 213.664062 147.617188 214.449219 C 188.972656 199.953125 218.679688 160.6875 218.679688 114.382812 C 218.679688 55.773438 171.160156 8.253906 112.550781 8.253906 Z M 112.550781 8.253906 "/>
</g>
</g>
</svg>
