<?xml version="1.0" encoding="UTF-8"?>
<svg xmlns="http://www.w3.org/2000/svg" xmlns:xlink="http://www.w3.org/1999/xlink" width="224.87999pt" height="225pt" viewBox="0 0 224.87999 225" version="1.2">
<defs>
<clipPath id="clip1">
  <path d="M 3.15625 30.539062 L 222.042969 30.539062 L 222.042969 194.699219 L 3.15625 194.699219 Z M 3.15625 30.539062 "/>
</clipPath>
<clipPath id="clip2">
  <path d="M 26 50 L 222.042969 50 L 222.042969 194.699219 L 26 194.699219 Z M 26 50 "/>
</clipPath>
<clipPath id="clip3">
  <path d="M 86 50 L 222.042969 50 L 222.042969 194.699219 L 86 194.699219 Z M 86 50 "/>
</clipPath>
<clipPath id="clip4">
  <path d="M 3.15625 40 L 222.042969 40 L 222.042969 194.699219 L 3.15625 194.699219 Z M 3.15625 40 "/>
</clipPath>
<clipPath id="clip5">
  <path d="M 3.15625 30.539062 L 222.042969 30.539062 L 222.042969 132 L 3.15625 132 Z M 3.15625 30.539062 "/>
</clipPath>
</defs>
<g id="surface1">
<g clip-path="url(#clip1)" clip-rule="nonzero">
<path style=" stroke:none;fill-rule:nonzero;fill:rgb(87.838745%,87.838745%,87.838745%);fill-opacity:1;" d="M 20.59375 194.945312 L 204.933594 194.945312 C 214.5625 194.945312 222.371094 187.140625 222.371094 177.511719 L 222.371094 47.976562 C 222.371094 38.34375 214.5625 30.539062 204.933594 30.539062 L 20.59375 30.539062 C 10.964844 30.539062 3.15625 38.34375 3.15625 47.976562 L 3.15625 177.511719 C 3.15625 187.140625 10.964844 194.945312 20.59375 194.945312 Z M 20.59375 194.945312 "/>
<path style=" stroke:none;fill-rule:nonzero;fill:rgb(85.099792%,85.099792%,85.099792%);fill-opacity:1;" d="M 122.726562 194.945312 L 204.933594 194.945312 C 214.5625 194.945312 222.371094 187.140625 222.371094 177.511719 L 222.371094 47.976562 C 222.371094 38.34375 214.5625 30.539062 204.933594 30.539062 L 20.59375 30.539062 C 10.964844 30.539062 3.15625 38.34375 3.15625 47.976562 Z M 122.726562 194.945312 "/>
</g>
<g clip-path="url(#clip2)" clip-rule="nonzero">
<path style=" stroke:none;fill-rule:nonzero;fill:rgb(93.328857%,93.328857%,93.328857%);fill-opacity:1;" d="M 26.796875 194.945312 L 204.933594 194.945312 C 214.5625 194.945312 222.371094 187.140625 222.371094 177.511719 L 222.371094 50.464844 Z M 26.796875 194.945312 "/>
</g>
<g clip-path="url(#clip3)" clip-rule="nonzero">
<path style=" stroke:none;fill-rule:nonzero;fill:rgb(87.838745%,87.838745%,87.838745%);fill-opacity:1;" d="M 121.457031 194.945312 L 204.933594 194.945312 C 214.5625 194.945312 222.371094 187.140625 222.371094 177.511719 L 222.371094 50.464844 L 86.710938 150.6875 Z M 121.457031 194.945312 "/>
</g>
<g clip-path="url(#clip4)" clip-rule="nonzero">
<path style=" stroke:none;fill-rule:nonzero;fill:rgb(79.219055%,21.569824%,21.569824%);fill-opacity:1;" d="M 204.933594 40.503906 L 20.59375 40.503906 C 10.964844 40.503906 3.15625 38.34375 3.15625 47.976562 L 3.15625 177.511719 C 3.15625 187.140625 10.964844 194.945312 20.59375 194.945312 L 28.066406 194.945312 L 28.066406 52.957031 L 197.460938 52.957031 L 197.460938 194.945312 L 204.933594 194.945312 C 214.5625 194.945312 222.371094 187.140625 222.371094 177.511719 L 222.371094 47.976562 C 222.371094 38.34375 214.5625 40.503906 204.933594 40.503906 Z M 204.933594 40.503906 "/>
</g>
<g clip-path="url(#clip5)" clip-rule="nonzero">
<path style=" stroke:none;fill-rule:nonzero;fill:rgb(96.078491%,96.078491%,96.078491%);fill-opacity:1;" d="M 204.933594 30.539062 L 20.59375 30.539062 C 10.964844 30.539062 3.15625 38.191406 3.15625 47.976562 C 3.15625 53.984375 10.71875 59.226562 10.71875 59.226562 L 112.765625 131.457031 L 214.808594 59.230469 C 214.808594 59.230469 222.371094 53.984375 222.371094 47.980469 C 222.371094 38.191406 214.5625 30.539062 204.933594 30.539062 Z M 204.933594 30.539062 "/>
<path style=" stroke:none;fill-rule:nonzero;fill:rgb(90.979004%,30.979919%,29.40979%);fill-opacity:1;" d="M 208.648438 30.945312 L 112.765625 97.796875 L 16.878906 30.945312 C 9.035156 32.625 3.15625 39.492188 3.15625 47.976562 C 3.15625 53.984375 10.71875 59.226562 10.71875 59.226562 L 112.765625 131.457031 L 214.808594 59.230469 C 214.808594 59.230469 222.371094 53.984375 222.371094 47.980469 C 222.371094 39.492188 216.492188 32.625 208.648438 30.945312 Z M 208.648438 30.945312 "/>
</g>
</g>
</svg>
