<?xml version="1.0" encoding="UTF-8"?>
<svg version="1.1" xmlns="http://www.w3.org/2000/svg" width="512" height="512">
<path d="M0 0 C7.59865432 5.36492917 13.64594825 11.4052658 19 19 C19.54398438 19.76828125 20.08796875 20.5365625 20.6484375 21.328125 C31.24015153 37.56516885 33.57790343 58.51494627 30.38671875 77.38671875 C27.88786777 87.74539174 22.88677223 97.16984166 17 106 C21.04086058 110.16424273 25.09771495 114.31195458 29.17041016 118.44506836 C30.55418944 119.85402795 31.93345278 121.26743736 33.30810547 122.68530273 C35.28229592 124.71998568 37.272055 126.73823057 39.265625 128.75390625 C40.18616669 129.71315758 40.18616669 129.71315758 41.12530518 130.69178772 C41.70560486 131.27246506 42.28590454 131.8531424 42.88378906 132.45141602 C43.64323822 133.22751976 43.64323822 133.22751976 44.41802979 134.01930237 C45.98468883 135.2163111 45.98468883 135.2163111 48.05511475 134.7686615 C50.79349347 133.6863939 52.55828539 131.96029133 54.75 130 C61.60529379 124.25686823 69.07486983 120.09322006 77 116 C77.6295459 115.67225586 78.2590918 115.34451172 78.90771484 115.00683594 C95.69785424 106.38403588 115.95980737 99.96144404 135 101 C135 95.39 135 89.78 135 84 C132.03 83.505 132.03 83.505 129 83 C120.76960856 78.78443365 115.32257868 72.72635777 111.8671875 64.20703125 C109.55550685 55.65797802 109.80930184 45.17787579 113.69140625 37.171875 C118.69386893 28.86928023 124.85359307 24.31242056 134 21 C143.28037884 18.86323703 151.95927204 20.05262368 160.25 24.6875 C167.94367987 29.69200963 172.9076568 35.94885247 175 45 C175.880715 53.93296638 175.93349063 62.17782077 171 70 C170.649375 70.62132813 170.29875 71.24265625 169.9375 71.8828125 C166.78707099 76.9366257 162.32767126 80.39302786 157 83 C155.02 83.33 153.04 83.66 151 84 C151 89.61 151 95.22 151 101 C152.91425781 100.94779297 152.91425781 100.94779297 154.8671875 100.89453125 C160.09302254 100.8996366 165.00931441 101.67471391 170.125 102.6875 C171.04587402 102.86901611 171.96674805 103.05053223 172.91552734 103.23754883 C204.43113836 109.70151538 233.51156633 127.10180412 254 152 C259.29012124 147.59156563 264.18808428 142.92440206 269 138 C268.46890625 137.10539063 267.9378125 136.21078125 267.390625 135.2890625 C255.90613961 115.72742722 251.00443207 95.37278592 256.625 72.75 C259.98458742 62.21150471 264.90667668 53.4374919 272 45 C272.60714844 44.19304688 273.21429688 43.38609375 273.83984375 42.5546875 C285.26291838 29.04530087 302.81922569 22.09431229 320 20 C341.68262249 18.73172512 360.54323497 25.15332761 377.125 39.125 C389.89742637 51.06488347 398.69531826 68.06840704 399.46875 85.63671875 C399.50293053 87.98675369 399.51267543 90.33725068 399.5 92.6875 C399.49427979 93.92048828 399.48855957 95.15347656 399.48266602 96.42382812 C399.07548608 117.27363461 390.51556536 132.68239613 375.77734375 147.1875 C359.21053182 162.61479577 339.85657931 165.85289913 317.91943359 165.17041016 C304.66804674 164.39691392 292.87494812 158.24996542 282 151 C276.72 156.28 271.44 161.56 266 167 C267.41519182 170.53797956 268.85774559 173.6214185 270.71582031 176.90771484 C280.69279185 194.68066745 287.24245125 215.87571962 287.09765625 236.33984375 C287.09553383 237.49027916 287.09553383 237.49027916 287.09336853 238.66395569 C287.08781766 241.0885119 287.07527463 243.51297219 287.0625 245.9375 C287.05747864 247.59179553 287.05291685 249.24609253 287.04882812 250.90039062 C287.03786438 254.93363012 287.02063424 258.96679886 287 263 C290.28841876 264.67313323 293.58124682 266.33739607 296.875 268 C297.81214844 268.47695313 298.74929688 268.95390625 299.71484375 269.4453125 C300.61074219 269.89648438 301.50664062 270.34765625 302.4296875 270.8125 C303.25710449 271.23144531 304.08452148 271.65039062 304.93701172 272.08203125 C306.92821018 273.13551324 306.92821018 273.13551324 309 273 C309.53625 272.278125 310.0725 271.55625 310.625 270.8125 C315.78326097 264.70403306 322.79558266 261.37822164 330.734375 260.6640625 C341.86189081 260.41229007 350.8583623 261.90655229 359.17578125 269.8359375 C365.86610586 277.7726395 368.54449038 286.70653897 368 297 C366.64112215 305.94808242 362.18238624 313.77291897 355.0625 319.375 C346.64686748 325.09636223 337.48480633 327.19416848 327.375 325.4375 C317.91693481 322.83310524 311.10087501 317.27475279 306 309 C302.58595304 302.85471548 302.65735042 296.90375441 303 290 C302.16210938 289.74476563 301.32421875 289.48953125 300.4609375 289.2265625 C296.66792162 287.88231082 293.19775209 286.20985807 289.625 284.375 C288.98433594 284.05015625 288.34367187 283.7253125 287.68359375 283.390625 C286.12052499 282.59742593 284.55999378 281.79922969 283 281 C282.87625 281.65742188 282.7525 282.31484375 282.625 282.9921875 C279.57341682 297.0676149 273.08238703 309.91452465 265.37109375 321.984375 C263.65050785 325.76868358 263.55349434 327.09688643 265 331 C270.49758873 338.33742154 277.51809386 344.61916357 284.0222168 351.05639648 C285.22882402 352.25452179 286.43516642 353.45291384 287.64126587 354.65155029 C290.2252524 357.21890423 292.81061927 359.78485712 295.39694786 362.34985161 C299.49031952 366.41043422 303.5775918 370.47711891 307.66352844 374.54518127 C308.7008827 375.57790583 308.7008827 375.57790583 309.7591936 376.63149351 C311.17249321 378.03848622 312.58578426 379.44548751 313.99906695 380.85249722 C323.50208723 390.31260109 333.009605 399.7681143 342.53149414 409.20922852 C348.96942887 415.59264414 355.3983956 421.98494442 361.81728488 428.38751274 C365.20886349 431.76973527 368.60485497 435.14724367 372.0119381 438.51385307 C375.21486471 441.678833 378.40585746 444.85537363 381.58824539 448.04100037 C382.7545072 449.2043016 383.92503518 450.36334472 385.10021019 451.51764107 C392.05723373 458.35654838 397.98683564 464.43678087 399.53125 474.44140625 C399.45096106 482.46026367 398.75549042 488.04850278 393.12890625 493.96875 C387.44563568 499.21154024 383.02997756 501.28853387 375.1875 501.375 C374.02605469 501.40335938 372.86460937 501.43171875 371.66796875 501.4609375 C360.96553113 500.11600924 354.48055824 492.01226528 347.31347656 484.73583984 C346.048744 483.46670033 344.78310983 482.19845877 343.51664734 480.93104553 C340.80058443 478.20913395 338.0909342 475.48105204 335.38614655 472.74793625 C331.10993616 468.42707719 326.819487 464.12054591 322.52703857 459.81582642 C315.74227575 453.00833625 308.96693235 446.19155981 302.19566035 439.37065279 C290.06019691 427.14639708 277.9134252 414.93340225 265.75624251 402.73074687 C261.49034241 398.44802507 257.23012451 394.15975206 252.97438002 389.86693931 C250.3299142 387.20120755 247.68140601 384.53951942 245.03186989 381.87882805 C243.80298613 380.64299658 242.57584976 379.40542475 241.35058403 378.16600609 C239.67980786 376.47635554 238.00297892 374.79294908 236.32452393 373.1109314 C235.83969992 372.61755323 235.35487591 372.12417506 234.85536027 371.61584604 C232.42311842 369.19175112 230.25465458 367.18464345 227 366 C222.01168115 366.25352719 218.70751653 368.1069554 214.5 370.6875 C200.49780844 378.99164471 185.5471109 383.55796831 170 388 C171.32 393.28 172.64 398.56 174 404 C176.908125 404.309375 176.908125 404.309375 179.875 404.625 C188.84655875 406.03899567 195.12666191 409.35104331 200.9375 416.375 C207.3313697 425.49832823 207.97624312 434.07273325 207 445 C205.00343724 453.37843301 199.04463092 460.22750712 191.9375 464.875 C183.78236712 469.80601058 174.35192195 470.45311091 165.1484375 468.34765625 C156.04135074 465.06290205 149.1968747 458.70282156 145 450 C141.82327425 441.91277211 141.59776737 432.73090246 144.6875 424.5625 C147.35409795 418.83355457 150.53341824 413.44192185 156 410 C155.52808493 405.09208323 154.67857182 400.48449022 153.45703125 395.703125 C153.18479736 394.63223633 152.91256348 393.56134766 152.63208008 392.45800781 C152.42349365 391.64686523 152.21490723 390.83572266 152 390 C150.98353394 389.98598145 150.98353394 389.98598145 149.9465332 389.97167969 C106.39093934 389.22255726 72.34976817 376.38046578 40 347 C36.43235715 348.51376081 34.16293713 350.60513129 31.453125 353.3515625 C30.60878906 354.20234375 29.76445312 355.053125 28.89453125 355.9296875 C28.02183594 356.81914062 27.14914063 357.70859375 26.25 358.625 C25.36183594 359.5221875 24.47367188 360.419375 23.55859375 361.34375 C21.36783031 363.55807004 19.18187237 365.77692435 17 368 C17.53109375 368.89460938 18.0621875 369.78921875 18.609375 370.7109375 C30.09386039 390.27257278 34.99556793 410.62721408 29.375 433.25 C22.91363129 453.51829343 9.73335832 468.9825342 -9 479 C-25.86241812 487.53562032 -45.04858984 487.84804895 -63 483 C-82.26061448 476.63420369 -97.04845986 463.8521286 -106.56640625 446.07421875 C-107.83417111 443.39866723 -108.98256245 440.78124353 -110 438 C-110.387323 436.98220459 -110.387323 436.98220459 -110.7824707 435.94384766 C-113.32870528 428.56422386 -113.50129392 421.50573385 -113.4375 413.75 C-113.42920166 412.45964844 -113.42090332 411.16929687 -113.41235352 409.83984375 C-113.0715736 390.68825519 -106.32963887 374.98519488 -93 361 C-89.82474556 358.07836013 -86.5252446 355.48518796 -83 353 C-82.23171875 352.45601563 -81.4634375 351.91203125 -80.671875 351.3515625 C-64.43483115 340.75984847 -43.48505373 338.42209657 -24.61328125 341.61328125 C-14.25460826 344.11213223 -4.83015834 349.11322777 4 355 C7.16737348 351.95609976 10.31809034 348.89619024 13.4543457 345.8203125 C14.52379507 344.77602855 15.59768596 343.73627331 16.67602539 342.70117188 C18.22427869 341.21348071 19.75589136 339.71029773 21.28515625 338.203125 C22.21207275 337.30239258 23.13898926 336.40166016 24.09399414 335.47363281 C26.241294 333.2362831 26.241294 333.2362831 25.90625 330.85327148 C24.51021557 327.99839613 22.72917215 325.42702241 20.9375 322.8125 C7.45297422 302.4259549 -1.37787566 277.56191789 -1 253 C-6.61 253 -12.22 253 -18 253 C-18.33 254.98 -18.66 256.96 -19 259 C-23.21556635 267.23039144 -29.27364223 272.67742132 -37.79296875 276.1328125 C-46.34202198 278.44449315 -56.82212421 278.19069816 -64.828125 274.30859375 C-73.10888591 269.31928637 -77.75690723 263.15696781 -81 254 C-83.27745684 243.21913921 -81.61167639 234.49435245 -75.69140625 225.29296875 C-70.92318806 218.82889466 -64.85378566 214.81555045 -57 213 C-48.06703362 212.119285 -39.82217923 212.06650937 -32 217 C-31.37867187 217.350625 -30.75734375 217.70125 -30.1171875 218.0625 C-25.0633743 221.21292901 -21.60697214 225.67232874 -19 231 C-18.67 232.98 -18.34 234.96 -18 237 C-12.39 237 -6.78 237 -1 237 C-1.061875 235.865625 -1.12375 234.73125 -1.1875 233.5625 C-1.09972335 205.51785918 11.96705307 174.48268754 30.625 153.9375 C33.26766919 151.36732553 33.26766919 151.36732553 32.81617737 149.00543213 C31.92135467 146.8067603 30.99998229 145.63675382 29.31616211 143.97558594 C28.47540382 143.13516754 28.47540382 143.13516754 27.61766052 142.277771 C27.01035599 141.68595032 26.40305145 141.09412964 25.77734375 140.484375 C25.15726944 139.86854553 24.53719513 139.25271606 23.89833069 138.6182251 C21.91832095 136.65499365 19.92813081 134.70245564 17.9375 132.75 C16.59241465 131.41996252 15.24800512 130.08924121 13.90429688 128.7578125 C10.61065094 125.49722463 7.30783661 122.24618812 4 119 C3.0510083 119.54994629 2.1020166 120.09989258 1.12426758 120.66650391 C-0.13973383 121.39499103 -1.40381695 122.12333639 -2.66796875 122.8515625 C-3.29119019 123.2132251 -3.91441162 123.5748877 -4.55651855 123.94750977 C-21.72113057 133.81533326 -41.96878463 136.16536407 -61.25 131.375 C-81.34473353 124.96896079 -97.26215248 111.76158623 -107 93 C-114.55925971 75.94465533 -116.72646 53.81591475 -110.32421875 35.95703125 C-101.29270255 15.78930923 -88.27188923 1.39006851 -67.83203125 -7.35546875 C-45.59216399 -15.66915732 -19.83887496 -12.64291024 0 0 Z M-80 21 C-91.73956019 33.0557773 -96.43457284 46.87800944 -96.36352539 63.34741211 C-96.10941163 75.65442378 -92.25586957 85.12395531 -85 95 C-84.49984375 95.70769531 -83.9996875 96.41539063 -83.484375 97.14453125 C-75.85474631 106.91276798 -63.14715798 114.0528441 -51 116 C-34.31183506 117.55017021 -20.73937015 115.01644405 -7 105 C-6.36578125 104.56171875 -5.7315625 104.1234375 -5.078125 103.671875 C5.13710124 95.89330823 11.2639544 83.25793536 14 71 C15.41530375 54.33845858 13.05245547 40.68250883 3 27 C2.49984375 26.29230469 1.9996875 25.58460937 1.484375 24.85546875 C-7.51136545 13.33819499 -21.75239089 7.22241719 -35.875 5.125 C-52.91036641 4.01880738 -67.39322211 9.82175219 -80 21 Z M129.625 44.625 C127.42092107 49.20270239 127.2028361 53.00552411 128 58 C130.32968931 62.83858548 133.16141452 65.67031069 138 68 C142.99447589 68.7971639 146.79729761 68.57907893 151.375 66.375 C154.95907713 63.13226355 157.59535241 60.53524104 158.3828125 55.6015625 C158.63883919 49.91777006 157.93626932 46.35061345 154 42 C149.64938655 38.06373068 146.08222994 37.36116081 140.3984375 37.6171875 C135.46475896 38.40464759 132.86773645 41.04092287 129.625 44.625 Z M293 49 C292.36578125 49.43828125 291.7315625 49.8765625 291.078125 50.328125 C280.86289876 58.10669177 274.7360456 70.74206464 272 83 C270.58469625 99.66154142 272.94754453 113.31749117 283 127 C283.50015625 127.70769531 284.0003125 128.41539062 284.515625 129.14453125 C292.14525369 138.91276798 304.85284202 146.0528441 317 148 C333.65166268 149.5467795 347.31565374 147.05380542 361 137 C361.70769531 136.49984375 362.41539062 135.9996875 363.14453125 135.484375 C372.91276798 127.85474631 380.0528441 115.14715798 382 103 C383.5467795 86.34833732 381.05380542 72.68434626 371 59 C370.49984375 58.29230469 369.9996875 57.58460937 369.484375 56.85546875 C361.85474631 47.08723202 349.14715798 39.9471559 337 38 C320.31183506 36.44982979 306.73937015 38.98355595 293 49 Z M59 149 C58.34515625 149.53367188 57.6903125 150.06734375 57.015625 150.6171875 C38.72693463 165.58801811 26.87377481 187.76347614 20 210 C19.7740918 210.71897461 19.54818359 211.43794922 19.31542969 212.17871094 C13.07394881 233.05075989 13.48469945 259.26442863 20 280 C20.24137695 280.78084961 20.48275391 281.56169922 20.73144531 282.36621094 C26.19001197 299.51091653 34.55319595 314.18553452 46 328 C47.00160156 329.23169922 47.00160156 329.23169922 48.0234375 330.48828125 C53.06709635 336.44803323 58.83116922 341.24167323 65 346 C65.85335937 346.680625 66.70671875 347.36125 67.5859375 348.0625 C92.80804763 367.45247055 126.49908857 375.69322993 157.87060547 372.10375977 C177.15555405 369.51297761 195.13216699 362.82313738 211.82495117 352.93261719 C218.51256406 348.98025445 224.53910348 347.83471228 232.20523834 349.47057056 C240.9959038 352.45534673 246.70690345 358.91421997 253.03710938 365.37182617 C254.314812 366.65286273 255.59385121 367.93256735 256.87411499 369.21104431 C260.32916912 372.66863691 263.76552497 376.14428268 267.19885826 379.6234262 C270.79825986 383.264195 274.41519213 386.88746123 278.03039551 390.51252747 C284.86778287 397.37368182 291.69015417 404.24955986 298.50684404 411.13127166 C308.52779793 421.2464508 318.57134044 431.33916299 328.61478424 441.43200397 C330.09496369 442.91953029 331.57513496 444.40706475 333.05529785 445.89460754 C333.77764948 446.62050892 334.50000112 447.34641029 335.24424219 448.09430867 C339.54468922 452.41689356 343.84081564 456.74371687 348.13314915 461.07435834 C350.79563353 463.76016563 353.45994733 466.44415356 356.12453079 469.12787819 C357.36305273 470.37629179 358.60068134 471.62559233 359.83736801 472.87582397 C361.51982173 474.57658547 363.20527744 476.27431521 364.89147949 477.97135925 C365.38465589 478.47154121 365.87783229 478.97172317 366.38595343 479.48706216 C369.25075003 482.36272369 370.76944595 483.86624413 374.875 484.3125 C378.04524767 484.24784917 378.04524767 484.24784917 380.375 482.375 C382.15045403 480.07539163 382.15045403 480.07539163 382.6875 477.25 C380.76074443 468.14170094 369.40683291 460.31297552 362.88598633 453.86767578 C361.66951862 452.6613297 360.45332435 451.45470784 359.23738098 450.24783325 C356.63206442 447.66252284 354.02540826 445.07857335 351.41785622 442.49551773 C347.29044518 438.4056957 343.16968837 434.30921347 339.05046082 430.21115112 C338.353232 429.51755969 337.65600318 428.82396826 336.93764621 428.10935891 C335.51276394 426.6918813 334.08789771 425.27438757 332.66304719 423.85687804 C323.08294773 414.3266376 313.49862089 404.80075945 303.89575195 395.29345703 C297.40319127 388.86540962 290.92139949 382.42671571 284.45174807 375.97560871 C281.03348794 372.56800147 277.61001259 369.16603479 274.17325783 365.77707291 C270.94185762 362.59045467 267.72487159 359.38996022 264.51815605 356.17850876 C263.34309399 355.00667917 262.16291918 353.83994929 260.97716522 352.67893982 C253.42505977 345.27732694 247.34159466 338.51764782 246.5 327.5 C246.94033233 319.61529914 250.84101031 313.1945022 254.8125 306.5625 C270.81676008 279.46454795 274.67100366 245.91200094 267.37426758 215.52563477 C258.3942093 180.99262222 237.62681363 152.87477232 207.07275391 134.19335938 C159.7330432 106.93817611 99.92391412 113.36096221 59 149 Z M-62.375 236.625 C-64.57907893 241.20270239 -64.7971639 245.00552411 -64 250 C-61.67031069 254.83858548 -58.83858548 257.67031069 -54 260 C-49.00552411 260.7971639 -45.20270239 260.57907893 -40.625 258.375 C-37.04092287 255.13226355 -34.40464759 252.53524104 -33.6171875 247.6015625 C-33.36116081 241.91777006 -34.06373068 238.35061345 -38 234 C-42.35061345 230.06373068 -45.91777006 229.36116081 -51.6015625 229.6171875 C-56.53524104 230.40464759 -59.13226355 233.04092287 -62.375 236.625 Z M321.625 284.625 C319.42092107 289.20270239 319.2028361 293.00552411 320 298 C322.32968931 302.83858548 325.16141452 305.67031069 330 308 C334.99447589 308.7971639 338.79729761 308.57907893 343.375 306.375 C346.95907713 303.13226355 349.59535241 300.53524104 350.3828125 295.6015625 C350.63883919 289.91777006 349.93626932 286.35061345 346 282 C341.64938655 278.06373068 338.08222994 277.36116081 332.3984375 277.6171875 C327.46475896 278.40464759 324.86773645 281.04092287 321.625 284.625 Z M-80 373 C-91.73956019 385.0557773 -96.43457284 398.87800944 -96.36352539 415.34741211 C-96.10941163 427.65442378 -92.25586957 437.12395531 -85 447 C-84.49984375 447.70769531 -83.9996875 448.41539062 -83.484375 449.14453125 C-75.85474631 458.91276798 -63.14715798 466.0528441 -51 468 C-34.31183506 469.55017021 -20.73937015 467.01644405 -7 457 C-6.36578125 456.56171875 -5.7315625 456.1234375 -5.078125 455.671875 C5.13710124 447.89330823 11.2639544 435.25793536 14 423 C15.41530375 406.33845858 13.05245547 392.68250883 3 379 C2.49984375 378.29230469 1.9996875 377.58460938 1.484375 376.85546875 C-7.51136545 365.33819499 -21.75239089 359.22241719 -35.875 357.125 C-52.91036641 356.01880738 -67.39322211 361.82175219 -80 373 Z M161.625 428.625 C159.42092107 433.20270239 159.2028361 437.00552411 160 442 C162.32968931 446.83858548 165.16141452 449.67031069 170 452 C174.99447589 452.7971639 178.79729761 452.57907893 183.375 450.375 C186.95907713 447.13226355 189.59535241 444.53524104 190.3828125 439.6015625 C190.63883919 433.91777006 189.93626932 430.35061345 186 426 C181.64938655 422.06373068 178.08222994 421.36116081 172.3984375 421.6171875 C167.46475896 422.40464759 164.86773645 425.04092287 161.625 428.625 Z " fill="#000000" transform="translate(113,11)"/>
<path d="M0 0 C1.00063477 0.29801514 1.00063477 0.29801514 2.02148438 0.60205078 C27.5350309 8.33606182 27.5350309 8.33606182 34 17 C34.67794648 20.06770781 34.58947938 22.91913605 34 26 C31.55591894 28.94727422 30.09570655 29.85687433 26.30859375 30.3515625 C21.88262831 29.88127101 18.9739578 28.04362514 15.1875 25.8125 C-6.76109258 13.60023132 -32.15523564 10.99687801 -56.28125 17.8359375 C-61.71106312 19.53560589 -66.8673048 21.5483495 -72 24 C-72.92296875 24.44085938 -73.8459375 24.88171875 -74.796875 25.3359375 C-81.97772726 29.0075032 -87.99584475 33.64070322 -94 39 C-94.85722656 39.76183594 -95.71445313 40.52367187 -96.59765625 41.30859375 C-114.85131006 58.4901628 -123.6734091 82.82222768 -124.94091797 107.48486328 C-125.50770589 131.61316548 -116.36340015 155.35598592 -100 173 C-99.26910156 173.79921875 -98.53820312 174.5984375 -97.78515625 175.421875 C-80.61841695 193.40320474 -56.99958785 202.80249911 -32.41601562 203.95703125 C-7.83803053 204.39414982 15.95030784 195.73963386 34 179 C34.79921875 178.26910156 35.5984375 177.53820312 36.421875 176.78515625 C51.79703348 162.1065234 62.87154583 140.52532632 64.17700195 119.09423828 C64.67374733 94.58153628 61.53406428 72.35474297 46.1875 52.1875 C43.90528476 48.86198637 43 47.01582031 43 43 C44.23643403 40.13667909 45.33152539 38.50711867 47.8125 36.625 C50.96145094 35.72529973 52.86958112 36.04170851 56 37 C73.55481479 52.7710191 81.43031864 79.5871833 82.875 102.4375 C84.22853894 134.1401735 73.72212809 162.80388677 52.5625 186.3125 C31.83409067 208.56232726 4.04973494 220.24877068 -26 222 C-57.4263581 222.96033467 -85.96064757 211.454337 -108.80493164 190.17211914 C-130.56304344 169.22787438 -142.31813216 140.59888024 -143.05957031 110.58886719 C-143.1935782 80.1447109 -131.91915597 53.63202609 -112 31 C-111.21109375 30.08541016 -111.21109375 30.08541016 -110.40625 29.15234375 C-97.15623496 14.85449589 -78.42221835 5.53295295 -60 0 C-58.95972656 -0.3196875 -57.91945313 -0.639375 -56.84765625 -0.96875 C-39.55700078 -5.32672151 -17.04713807 -5.2528972 0 0 Z " fill="#000000" transform="translate(286,147)"/>
<path d="M0 0 C8.34296853 4.97488123 13.53708251 11.86384564 16.109375 21.2578125 C16.34615058 23.91465482 16.49005778 26.41740363 16.484375 29.0703125 C16.48421387 29.77373779 16.48405273 30.47716309 16.48388672 31.2019043 C16.32348235 38.5273184 14.07418034 43.3106045 10.109375 49.2578125 C10.93179688 49.73089844 11.75421875 50.20398438 12.6015625 50.69140625 C29.42732328 60.65862944 42.10096005 73.70009196 47.25 93.1640625 C48.53260641 99.39358416 48.51816018 105.72345385 48.53491211 112.05932617 C48.54683684 114.18849942 48.59617234 116.31479218 48.64648438 118.44335938 C48.74473717 126.64107318 48.144973 133.51656857 43.109375 140.2578125 C35.23523396 147.88577051 24.35574021 151.04184807 14.109375 154.2578125 C12.37300781 154.80501953 12.37300781 154.80501953 10.6015625 155.36328125 C-8.1271417 160.07866422 -30.53463075 159.19546052 -48.890625 153.2578125 C-49.59348633 153.03818848 -50.29634766 152.81856445 -51.02050781 152.59228516 C-61.26371308 149.31918497 -71.92247445 145.68893136 -77.62890625 136.01953125 C-80.62931574 129.68282393 -80.57602925 123.30602531 -80.43261719 116.43579102 C-80.39075143 114.32668159 -80.39156711 112.22078407 -80.3984375 110.11132812 C-80.34818734 98.98389996 -78.37607125 89.22450008 -73.328125 79.2578125 C-72.98442871 78.57920166 -72.64073242 77.90059082 -72.28662109 77.20141602 C-65.4308349 64.27689889 -54.5362203 56.13041864 -41.890625 49.2578125 C-42.81875 47.9584375 -42.81875 47.9584375 -43.765625 46.6328125 C-48.7074545 38.78402447 -48.80690299 30.24879031 -47.890625 21.2578125 C-45.93824412 12.68286691 -41.19272628 6.23905838 -33.890625 1.4453125 C-24.13209154 -4.51145897 -10.31095059 -4.94787226 0 0 Z M-29.265625 20.8828125 C-31.46970393 25.46051489 -31.6877889 29.26333661 -30.890625 34.2578125 C-28.56093569 39.09639798 -25.72921048 41.92812319 -20.890625 44.2578125 C-15.89614911 45.0549764 -12.09332739 44.83689143 -7.515625 42.6328125 C-3.93154787 39.39007605 -1.29527259 36.79305354 -0.5078125 31.859375 C-0.25178581 26.17558256 -0.95435568 22.60842595 -4.890625 18.2578125 C-9.24123845 14.32154318 -12.80839506 13.61897331 -18.4921875 13.875 C-23.42586604 14.66246009 -26.02288855 17.29873537 -29.265625 20.8828125 Z M-52.296875 78.3203125 C-62.95540581 91.27774211 -65.05379851 106.93395372 -63.890625 123.2578125 C-62.49677335 128.00226909 -60.71801384 129.59226549 -56.5625 131.99609375 C-50.88075083 134.67914197 -44.90104859 136.47428463 -38.890625 138.2578125 C-37.69953125 138.61552734 -37.69953125 138.61552734 -36.484375 138.98046875 C-15.2921045 144.48230821 8.12458905 140.34311637 27.2890625 130.37109375 C29.45324445 129.04750608 30.85687412 127.96706656 31.72265625 125.53515625 C34.02419435 111.9816541 32.1191874 95.61684327 24.609375 83.921875 C16.49920354 72.9205776 6.48284152 65.44396753 -6.890625 62.2578125 C-24.83318658 60.3244204 -39.71935632 65.0308588 -52.296875 78.3203125 Z " fill="#000000" transform="translate(271.890625,178.7421875)"/>
<path d="M0 0 C5.81849978 3.51612567 10.55746523 8.99076391 12.5625 15.5 C13.2460717 23.01041114 13.35854858 29.85691498 9.5625 36.5 C10.09875 36.726875 10.635 36.95375 11.1875 37.1875 C19.49214337 41.77690818 25.43919421 49.67137277 28.08203125 58.78515625 C29.4646143 66.59731252 30.36548226 75.62162066 26.1875 82.6875 C22.46325592 87.25579005 18.022598 89.49953306 12.5625 91.5 C11.7478125 91.81839844 10.933125 92.13679688 10.09375 92.46484375 C-5.82643435 97.54525552 -25.7293591 96.06228597 -40.9453125 89.40234375 C-45.98763835 86.65790441 -49.65576894 83.01761877 -51.4375 77.5 C-52.84962465 65.70313564 -51.25084281 55.33165359 -44.0625 45.625 C-41.13444553 42.11763153 -38.14415162 39.17223722 -34.4375 36.5 C-33.7775 36.5 -33.1175 36.5 -32.4375 36.5 C-32.9325 35.63375 -33.4275 34.7675 -33.9375 33.875 C-36.64793875 27.50741423 -36.50697031 19.69716652 -34.81640625 13.0625 C-32.15881536 7.01500429 -26.95756774 2.27184618 -21.109375 -0.671875 C-14.63535035 -2.67844404 -6.26472423 -2.7761327 0 0 Z M-16.8125 17.125 C-18.92456506 20.21186432 -19.04945145 21.8282913 -18.4375 25.5 C-16.9375 28 -16.9375 28 -14.4375 29.5 C-10.7657913 30.11195145 -9.14936432 29.98706506 -6.0625 27.875 C-3.95043494 24.78813568 -3.82554855 23.1717087 -4.4375 19.5 C-5.9375 17 -5.9375 17 -8.4375 15.5 C-12.1092087 14.88804855 -13.72563568 15.01293494 -16.8125 17.125 Z M-30.125 55.57421875 C-33.56842926 60.86653474 -35.59655006 66.13188586 -34.4375 72.5 C-28.38495723 78.00231161 -18.2324579 78.42680791 -10.4375 78.5 C1.37375917 77.85872499 1.37375917 77.85872499 11.5625 72.5 C12.12468552 66.09108508 11.10351921 61.88096056 7.5625 56.5 C3.26406144 51.38834334 -1.00693865 47.98829158 -7.6484375 47.04296875 C-16.83154702 46.61468924 -24.12951941 48.20477386 -30.125 55.57421875 Z " fill="#000000" transform="translate(83.4375,377.5)"/>
<path d="M0 0 C5.81849978 3.51612567 10.55746523 8.99076391 12.5625 15.5 C13.2460717 23.01041114 13.35854858 29.85691498 9.5625 36.5 C10.09875 36.726875 10.635 36.95375 11.1875 37.1875 C19.49214337 41.77690818 25.43919421 49.67137277 28.08203125 58.78515625 C29.4646143 66.59731252 30.36548226 75.62162066 26.1875 82.6875 C22.46325592 87.25579005 18.022598 89.49953306 12.5625 91.5 C11.7478125 91.81839844 10.933125 92.13679688 10.09375 92.46484375 C-5.82643435 97.54525552 -25.7293591 96.06228597 -40.9453125 89.40234375 C-45.98763835 86.65790441 -49.65576894 83.01761877 -51.4375 77.5 C-52.84962465 65.70313564 -51.25084281 55.33165359 -44.0625 45.625 C-41.13444553 42.11763153 -38.14415162 39.17223722 -34.4375 36.5 C-33.7775 36.5 -33.1175 36.5 -32.4375 36.5 C-32.9325 35.63375 -33.4275 34.7675 -33.9375 33.875 C-36.64793875 27.50741423 -36.50697031 19.69716652 -34.81640625 13.0625 C-32.15881536 7.01500429 -26.95756774 2.27184618 -21.109375 -0.671875 C-14.63535035 -2.67844404 -6.26472423 -2.7761327 0 0 Z M-16.8125 17.125 C-18.92456506 20.21186432 -19.04945145 21.8282913 -18.4375 25.5 C-16.9375 28 -16.9375 28 -14.4375 29.5 C-10.7657913 30.11195145 -9.14936432 29.98706506 -6.0625 27.875 C-3.95043494 24.78813568 -3.82554855 23.1717087 -4.4375 19.5 C-5.9375 17 -5.9375 17 -8.4375 15.5 C-12.1092087 14.88804855 -13.72563568 15.01293494 -16.8125 17.125 Z M-30.125 55.57421875 C-33.56842926 60.86653474 -35.59655006 66.13188586 -34.4375 72.5 C-28.38495723 78.00231161 -18.2324579 78.42680791 -10.4375 78.5 C1.37375917 77.85872499 1.37375917 77.85872499 11.5625 72.5 C12.12468552 66.09108508 11.10351921 61.88096056 7.5625 56.5 C3.26406144 51.38834334 -1.00693865 47.98829158 -7.6484375 47.04296875 C-16.83154702 46.61468924 -24.12951941 48.20477386 -30.125 55.57421875 Z " fill="#000000" transform="translate(451.4375,57.5)"/>
<path d="M0 0 C5.81849978 3.51612567 10.55746523 8.99076391 12.5625 15.5 C13.2460717 23.01041114 13.35854858 29.85691498 9.5625 36.5 C10.09875 36.726875 10.635 36.95375 11.1875 37.1875 C19.49214337 41.77690818 25.43919421 49.67137277 28.08203125 58.78515625 C29.4646143 66.59731252 30.36548226 75.62162066 26.1875 82.6875 C22.46325592 87.25579005 18.022598 89.49953306 12.5625 91.5 C11.7478125 91.81839844 10.933125 92.13679688 10.09375 92.46484375 C-5.82643435 97.54525552 -25.7293591 96.06228597 -40.9453125 89.40234375 C-45.98763835 86.65790441 -49.65576894 83.01761877 -51.4375 77.5 C-52.84962465 65.70313564 -51.25084281 55.33165359 -44.0625 45.625 C-41.13444553 42.11763153 -38.14415162 39.17223722 -34.4375 36.5 C-33.7775 36.5 -33.1175 36.5 -32.4375 36.5 C-32.9325 35.63375 -33.4275 34.7675 -33.9375 33.875 C-36.64793875 27.50741423 -36.50697031 19.69716652 -34.81640625 13.0625 C-32.15881536 7.01500429 -26.95756774 2.27184618 -21.109375 -0.671875 C-14.63535035 -2.67844404 -6.26472423 -2.7761327 0 0 Z M-16.8125 17.125 C-18.92456506 20.21186432 -19.04945145 21.8282913 -18.4375 25.5 C-16.9375 28 -16.9375 28 -14.4375 29.5 C-10.7657913 30.11195145 -9.14936432 29.98706506 -6.0625 27.875 C-3.95043494 24.78813568 -3.82554855 23.1717087 -4.4375 19.5 C-5.9375 17 -5.9375 17 -8.4375 15.5 C-12.1092087 14.88804855 -13.72563568 15.01293494 -16.8125 17.125 Z M-30.125 55.57421875 C-33.56842926 60.86653474 -35.59655006 66.13188586 -34.4375 72.5 C-28.38495723 78.00231161 -18.2324579 78.42680791 -10.4375 78.5 C1.37375917 77.85872499 1.37375917 77.85872499 11.5625 72.5 C12.12468552 66.09108508 11.10351921 61.88096056 7.5625 56.5 C3.26406144 51.38834334 -1.00693865 47.98829158 -7.6484375 47.04296875 C-16.83154702 46.61468924 -24.12951941 48.20477386 -30.125 55.57421875 Z " fill="#000000" transform="translate(83.4375,25.5)"/>
</svg>
